<svg width="392" height="70" viewBox="0 0 392 70" fill="none" xmlns="http://www.w3.org/2000/svg">
<path d="M74.1699 80.045L91.4617 120.578L81.2285 77.7357L116.67 104.228L86.1456 72.2563L130.293 77.5796L87.6913 65.093L128.654 47.8208L85.3847 58.1062L112.225 22.8496L79.8564 53.2056L85.3933 9.48733L72.6328 51.6982L55.341 11.1649L65.5742 54.0075L30.1009 27.5768L60.61 59.5023L16.463 54.179L59.0797 66.7122L18.1167 83.9844L61.3863 73.699L34.531 108.909L66.8992 78.553L61.3778 122.318L74.1699 80.045Z" fill="#FF7A00"/>
<path d="M74.1699 80.045L91.4617 120.578L81.2285 77.7357L116.67 104.228L86.1456 72.2563L130.293 77.5796L87.6913 65.093L128.654 47.8208L85.3847 58.1062L112.225 22.8496L79.8564 53.2056L85.3933 9.48733L72.6328 51.6982L55.341 11.1649L65.5742 54.0075L30.1009 27.5768L60.61 59.5023L16.463 54.179L59.0797 66.7122L18.1167 83.9844L61.3863 73.699L34.531 108.909L66.8992 78.553L61.3778 122.318L74.1699 80.045Z" stroke="#221F1F" stroke-width="2.1198" stroke-miterlimit="10" stroke-linecap="round" stroke-linejoin="round"/>
<path d="M125.213 11.9713L185.01 41.0047C187.995 42.4274 191.585 41.2354 193.107 38.281L193.807 36.9079C195.246 33.9543 194.041 30.4032 191.055 28.8977L131.259 -0.135703C128.273 -1.55842 124.683 -0.366378 123.161 2.588L122.461 3.96108C120.981 6.9565 122.228 10.5486 125.213 11.9713Z" fill="white"/>
<path d="M125.213 11.9713L185.01 41.0047C187.995 42.4275 191.585 41.2354 193.107 38.281L193.807 36.9079C195.246 33.9543 194.041 30.4032 191.055 28.8977L131.259 -0.135703C128.273 -1.55842 124.683 -0.366378 123.161 2.588L122.461 3.96108C120.981 6.9565 122.228 10.5486 125.213 11.9713Z" stroke="#4B4949" stroke-width="2.2553" stroke-miterlimit="10"/>
<path d="M248.8 83.132C260.84 83.132 270.6 73.4766 270.6 61.566C270.6 49.6554 260.84 40 248.8 40C236.76 40 227 49.6554 227 61.566C227 73.4766 236.76 83.132 248.8 83.132Z" fill="white"/>
<path d="M248.8 83.132C260.84 83.132 270.6 73.4766 270.6 61.566C270.6 49.6554 260.84 40 248.8 40C236.76 40 227 49.6554 227 61.566C227 73.4766 236.76 83.132 248.8 83.132Z" fill="white" stroke="#221F1F" stroke-width="2.3527" stroke-miterlimit="10"/>
<path d="M383.785 51.1317C375.34 53.6155 372.35 56.8527 365.562 72.8602C365.358 73.3853 364.544 73.135 364.67 72.5861C368.047 55.5296 367.353 51.1601 361.8 44.3733C370.245 41.8895 373.235 38.6523 380.023 22.6448C380.227 22.1197 381.041 22.37 380.915 22.9189C377.539 39.9754 378.182 44.3714 383.785 51.1317Z" fill="#331108"/>
<path d="M383.785 51.1317C375.34 53.6155 372.35 56.8527 365.562 72.8602C365.358 73.3853 364.544 73.135 364.67 72.5861C368.047 55.5296 367.353 51.1601 361.8 44.3733C370.245 41.8895 373.235 38.6523 380.023 22.6448C380.227 22.1197 381.041 22.37 380.915 22.9189C377.539 39.9754 378.182 44.3714 383.785 51.1317Z" stroke="#221F1F" stroke-width="2.0903" stroke-miterlimit="10" stroke-linecap="round" stroke-linejoin="round"/>
<path d="M308.8 26.4325C313.108 26.4325 316.6 22.9779 316.6 18.7163C316.6 14.4547 313.108 11 308.8 11C304.492 11 301 14.4547 301 18.7163C301 22.9779 304.492 26.4325 308.8 26.4325Z" fill="#DA1A3D"/>
<path d="M308.8 26.4325C313.108 26.4325 316.6 22.9779 316.6 18.7163C316.6 14.4547 313.108 11 308.8 11C304.492 11 301 14.4547 301 18.7163C301 22.9779 304.492 26.4325 308.8 26.4325Z" stroke="#221F1F" stroke-width="2.3527" stroke-miterlimit="10"/>
</svg>
