<svg width="299" height="298" viewBox="0 0 299 298" fill="none" xmlns="http://www.w3.org/2000/svg">
<path d="M99.368 238.925H125.731V207H99.368V238.925Z" fill="#331108"/>
<path d="M99.341 207.039H1V238.963H99.341V207.039Z" fill="#FF7A00"/>
<path d="M99.368 238.925H125.731V207H99.368V238.925Z" stroke="#221F1F" stroke-width="1.2467" stroke-miterlimit="10" stroke-linejoin="round"/>
<path d="M99.341 207.039H1V238.963H99.341V207.039Z" stroke="#221F1F" stroke-width="1.2467" stroke-miterlimit="10" stroke-linejoin="round"/>
<path d="M187.684 255.015H151V296.458H187.684V255.015Z" fill="white"/>
<path d="M187.749 296.443H310.261V255H187.749V296.443Z" fill="#720E28"/>
<path d="M187.684 255.015H151V296.458H187.684V255.015Z" stroke="#221F1F" stroke-width="1.2467" stroke-miterlimit="10" stroke-linejoin="round"/>
<path d="M187.749 296.443H310.261V255H187.749V296.443Z" stroke="#221F1F" stroke-width="1.2467" stroke-miterlimit="10" stroke-linejoin="round"/>
<path d="M188.219 154.155H151V174.047H188.219V154.155Z" fill="#DA1A3D"/>
<path d="M188.219 174.047L237.576 140.839V121L188.219 154.155V174.047Z" fill="white"/>
<path d="M200.358 121L151 154.155H188.219L237.576 121H200.358Z" fill="#331108"/>
<path d="M188.219 154.155H151V174.047H188.219V154.155Z" stroke="#221F1F" stroke-width="1.2467" stroke-miterlimit="10" stroke-linejoin="round"/>
<path d="M188.219 174.047L237.576 140.839V121L188.219 154.155V174.047Z" stroke="#221F1F" stroke-width="1.2467" stroke-miterlimit="10" stroke-linejoin="round"/>
<path d="M200.358 121L151 154.155H188.219L237.576 121H200.358Z" stroke="#221F1F" stroke-width="1.2467" stroke-miterlimit="10" stroke-linejoin="round"/>
<path d="M100 84.5132H113.422V62.0001H100V84.5132Z" fill="#FF7A00"/>
<path d="M181.847 62.0347H113.399V84.5478H181.847V62.0347Z" fill="#331108"/>
<path d="M100 84.5131H113.422V62H100V84.5131Z" stroke="#221F1F" stroke-width="1.2467" stroke-miterlimit="10" stroke-linejoin="round"/>
<path d="M181.847 62.0347H113.399V84.5478H181.847V62.0347Z" stroke="#221F1F" stroke-width="1.2467" stroke-miterlimit="10" stroke-linejoin="round"/>
<path d="M228 18.8736L237.801 37.1703C238.858 36.6062 239.457 36.1127 239.951 35.6191C240.903 34.632 241.291 33.7154 243.371 32.6225C246.473 30.9656 247.143 32.1995 250.245 30.5073C253.347 28.8504 252.713 27.6165 255.815 25.9596C258.917 24.3027 259.587 25.5365 262.69 23.8444C265.792 22.1875 265.157 20.9536 268.26 19.2967L258.459 1C255.357 2.65692 255.991 3.8908 252.889 5.54772C249.787 7.20464 249.117 5.97077 246.015 7.66294C242.912 9.31986 243.547 10.5537 240.445 12.2107C237.342 13.8676 236.672 12.6337 233.57 14.3259C230.468 15.9828 231.138 17.2167 228 18.8736Z" fill="white"/>
<path d="M228 18.8736L237.801 37.1703C238.858 36.6062 239.457 36.1127 239.951 35.6191C240.903 34.632 241.291 33.7154 243.371 32.6225C246.473 30.9656 247.143 32.1995 250.245 30.5073C253.347 28.8504 252.713 27.6165 255.815 25.9596C258.917 24.3027 259.587 25.5365 262.69 23.8444C265.792 22.1875 265.157 20.9536 268.26 19.2967L258.459 1C255.357 2.65692 255.991 3.8908 252.889 5.54772C249.787 7.20464 249.117 5.97076 246.015 7.66294C242.912 9.31986 243.547 10.5537 240.445 12.2107C237.342 13.8676 236.672 12.6337 233.57 14.3259C230.468 15.9828 231.138 17.2167 228 18.8736Z" stroke="#221F1F" stroke-width="1.2467" stroke-miterlimit="10" stroke-linejoin="round"/>
<path d="M238.541 38.5452L250.668 61.178C251.021 61.8126 251.796 62.0594 252.431 61.7068C253.065 61.3543 253.312 60.5787 252.96 59.9441L240.656 36.9587C240.198 37.4875 239.599 37.9811 238.541 38.5452Z" fill="white"/>
<path d="M233.641 29.4143L238.541 38.5803C241.643 36.9233 241.009 35.6895 244.111 34.0325L239.211 24.8666C239.175 24.9018 239.105 24.9018 239.07 24.9371C239.034 24.9723 238.964 24.9723 238.929 25.0076C238.893 25.0428 238.823 25.0428 238.788 25.0781C238.752 25.1133 238.717 25.1133 238.647 25.1486C238.435 25.2544 238.259 25.3954 238.118 25.5011C238.083 25.5364 238.047 25.5716 237.977 25.6069C237.942 25.6421 237.906 25.6422 237.871 25.6774C237.765 25.7479 237.695 25.8184 237.624 25.8889C237.519 25.9594 237.448 26.0299 237.378 26.1005C237.342 26.1357 237.342 26.1357 237.307 26.171C237.166 26.312 237.025 26.453 236.884 26.594C236.849 26.6293 236.849 26.6293 236.813 26.6645C236.778 26.6998 236.778 26.735 236.743 26.735C236.672 26.8055 236.637 26.876 236.567 26.9113C236.531 26.9465 236.496 27.017 236.461 27.0523C236.249 27.2991 236.038 27.5459 235.791 27.7926C235.721 27.8631 235.65 27.9689 235.544 28.0394C235.474 28.1099 235.439 28.1452 235.368 28.2157C235.333 28.2509 235.262 28.3214 235.192 28.3567C235.157 28.3919 235.157 28.3919 235.121 28.4272C234.98 28.5682 234.804 28.674 234.628 28.815C234.557 28.8502 234.487 28.9207 234.416 28.956C234.346 28.9912 234.275 29.0618 234.169 29.097C234.028 29.2028 233.852 29.3085 233.641 29.4143Z" fill="#720E28"/>
<path d="M228.776 20.2484L233.676 29.4144C233.887 29.3086 234.064 29.2028 234.205 29.0971C234.275 29.0618 234.381 28.9913 234.451 28.9561C234.522 28.9208 234.592 28.8503 234.663 28.815C234.839 28.674 235.016 28.5683 235.157 28.4272C235.192 28.4272 235.192 28.392 235.227 28.3567C235.298 28.3215 235.333 28.251 235.403 28.2157C235.474 28.1452 235.544 28.11 235.58 28.0395C235.65 27.969 235.756 27.8632 235.826 27.7927C236.073 27.5459 236.285 27.2991 236.496 27.0524C236.531 27.0171 236.567 26.9466 236.602 26.9113C236.672 26.8408 236.708 26.8056 236.778 26.7351C236.813 26.6998 236.813 26.6646 236.849 26.6646C236.884 26.6293 236.884 26.6293 236.919 26.5941C237.06 26.453 237.166 26.312 237.342 26.171C237.378 26.1358 237.378 26.1358 237.413 26.1005C237.483 26.03 237.589 25.9595 237.66 25.889C237.73 25.8185 237.836 25.748 237.906 25.6775C237.942 25.6422 237.977 25.6422 238.012 25.607C238.047 25.5717 238.083 25.5365 238.153 25.5012C238.329 25.3954 238.506 25.2544 238.682 25.1487C238.717 25.1134 238.752 25.1134 238.823 25.0781C238.858 25.0429 238.893 25.0429 238.964 25.0076C238.999 24.9724 239.07 24.9724 239.105 24.9371C239.14 24.9019 239.211 24.9019 239.246 24.8666L234.346 15.7007C231.208 17.3576 231.878 18.5915 228.776 20.2484Z" fill="#DA1A3D"/>
<path d="M234.31 15.7007L239.211 24.8666C242.313 23.2097 242.983 24.4436 246.085 22.7514L241.185 13.5854C238.083 15.2776 237.448 14.0437 234.31 15.7007Z" fill="#720E28"/>
<path d="M239.211 24.8667L244.111 34.0326C247.213 32.3757 247.883 33.6096 250.986 31.9174L246.085 22.7515C242.983 24.4084 242.313 23.1745 239.211 24.8667Z" fill="#DA1A3D"/>
<path d="M246.085 22.7515L250.985 31.9174C254.088 30.2605 253.453 29.0266 256.556 27.3697L251.655 18.2037C248.553 19.8607 249.223 21.0945 246.085 22.7515Z" fill="#720E28"/>
<path d="M241.185 13.5856L246.085 22.7515C249.187 21.0946 248.553 19.8607 251.655 18.2038L246.755 9.03784C243.653 10.6948 244.322 11.9287 241.185 13.5856Z" fill="#DA1A3D"/>
<path d="M246.755 9.03771L251.655 18.2037C254.758 16.5467 255.427 17.7806 258.53 16.0884L253.629 6.92249C250.527 8.61466 249.857 7.38078 246.755 9.03771Z" fill="#720E28"/>
<path d="M251.655 18.2037L256.555 27.3697C259.658 25.7128 260.328 26.9466 263.43 25.2545L258.53 16.0885C255.427 17.7454 254.757 16.5115 251.655 18.2037Z" fill="#DA1A3D"/>
<path d="M258.53 16.0885L263.43 25.2544C266.532 23.5975 265.898 22.3636 269 20.7067L264.1 11.5408C260.997 13.1977 261.632 14.4316 258.53 16.0885Z" fill="#720E28"/>
<path d="M253.63 6.92248L258.53 16.0884C261.632 14.4315 260.998 13.1976 264.1 11.5407L259.2 2.37476C256.097 4.03168 256.732 5.26555 253.63 6.92248Z" fill="#DA1A3D"/>
<path d="M233.641 29.4143L238.541 38.5803C241.643 36.9233 241.009 35.6895 244.111 34.0325L239.211 24.8666C239.175 24.9018 239.105 24.9018 239.07 24.9371C239.034 24.9723 238.964 24.9723 238.929 25.0076C238.893 25.0428 238.823 25.0428 238.788 25.0781C238.752 25.1133 238.717 25.1133 238.647 25.1486C238.435 25.2544 238.259 25.3954 238.118 25.5011C238.083 25.5364 238.047 25.5716 237.977 25.6069C237.942 25.6421 237.906 25.6422 237.871 25.6774C237.765 25.7479 237.695 25.8184 237.624 25.8889C237.519 25.9594 237.448 26.0299 237.378 26.1005C237.342 26.1357 237.342 26.1357 237.307 26.171C237.166 26.312 237.025 26.453 236.884 26.594C236.849 26.6293 236.849 26.6293 236.813 26.6645C236.778 26.6998 236.778 26.735 236.743 26.735C236.672 26.8055 236.637 26.876 236.567 26.9113C236.531 26.9465 236.496 27.017 236.461 27.0523C236.249 27.2991 236.038 27.5459 235.791 27.7926C235.721 27.8631 235.65 27.9689 235.544 28.0394C235.474 28.1099 235.439 28.1452 235.368 28.2157C235.333 28.2509 235.262 28.3214 235.192 28.3567C235.157 28.3919 235.157 28.3919 235.121 28.4272C234.98 28.5682 234.804 28.674 234.628 28.815C234.557 28.8502 234.487 28.9207 234.416 28.956C234.346 28.9912 234.275 29.0618 234.169 29.097C234.028 29.2028 233.852 29.3085 233.641 29.4143Z" stroke="#221F1F" stroke-width="1.2467" stroke-miterlimit="10" stroke-linejoin="round"/>
<path d="M228.776 20.2484L233.676 29.4144C233.887 29.3086 234.064 29.2028 234.205 29.0971C234.275 29.0618 234.381 28.9913 234.451 28.9561C234.522 28.9208 234.592 28.8503 234.663 28.815C234.839 28.674 235.016 28.5683 235.157 28.4272C235.192 28.4272 235.192 28.392 235.227 28.3567C235.298 28.3215 235.333 28.251 235.403 28.2157C235.474 28.1452 235.544 28.11 235.58 28.0395C235.65 27.969 235.756 27.8632 235.826 27.7927C236.073 27.5459 236.285 27.2991 236.496 27.0524C236.531 27.0171 236.567 26.9466 236.602 26.9113C236.672 26.8408 236.708 26.8056 236.778 26.7351C236.813 26.6998 236.813 26.6646 236.849 26.6646C236.884 26.6293 236.884 26.6293 236.919 26.5941C237.06 26.453 237.166 26.312 237.342 26.171C237.378 26.1358 237.378 26.1358 237.413 26.1005C237.483 26.03 237.589 25.9595 237.66 25.889C237.73 25.8185 237.836 25.748 237.906 25.6775C237.942 25.6422 237.977 25.6422 238.012 25.607C238.047 25.5717 238.083 25.5365 238.153 25.5012C238.329 25.3954 238.506 25.2544 238.682 25.1487C238.717 25.1134 238.752 25.1134 238.823 25.0781C238.858 25.0429 238.893 25.0429 238.964 25.0076C238.999 24.9724 239.07 24.9724 239.105 24.9371C239.14 24.9019 239.211 24.9019 239.246 24.8666L234.346 15.7007C231.208 17.3576 231.878 18.5915 228.776 20.2484Z" stroke="#221F1F" stroke-width="1.2467" stroke-miterlimit="10" stroke-linejoin="round"/>
<path d="M234.31 15.7007L239.211 24.8666C242.313 23.2097 242.983 24.4436 246.085 22.7514L241.185 13.5854C238.083 15.2776 237.448 14.0437 234.31 15.7007Z" stroke="#221F1F" stroke-width="1.2467" stroke-miterlimit="10" stroke-linejoin="round"/>
<path d="M239.211 24.8667L244.111 34.0326C247.213 32.3757 247.883 33.6096 250.986 31.9174L246.085 22.7515C242.983 24.4084 242.313 23.1745 239.211 24.8667Z" stroke="#221F1F" stroke-width="1.2467" stroke-miterlimit="10" stroke-linejoin="round"/>
<path d="M246.085 22.7515L250.985 31.9174C254.088 30.2605 253.453 29.0266 256.556 27.3697L251.655 18.2037C248.553 19.8607 249.223 21.0945 246.085 22.7515Z" stroke="#221F1F" stroke-width="1.2467" stroke-miterlimit="10" stroke-linejoin="round"/>
<path d="M241.185 13.5856L246.085 22.7515C249.187 21.0946 248.553 19.8607 251.655 18.2038L246.755 9.03784C243.653 10.6948 244.322 11.9287 241.185 13.5856Z" stroke="#221F1F" stroke-width="1.2467" stroke-miterlimit="10" stroke-linejoin="round"/>
<path d="M246.755 9.03771L251.655 18.2037C254.758 16.5467 255.427 17.7806 258.53 16.0884L253.629 6.92249C250.527 8.61466 249.857 7.38078 246.755 9.03771Z" stroke="#221F1F" stroke-width="1.2467" stroke-miterlimit="10" stroke-linejoin="round"/>
<path d="M251.655 18.2037L256.555 27.3697C259.658 25.7128 260.328 26.9466 263.43 25.2545L258.53 16.0885C255.427 17.7454 254.757 16.5115 251.655 18.2037Z" stroke="#221F1F" stroke-width="1.2467" stroke-miterlimit="10" stroke-linejoin="round"/>
<path d="M258.53 16.0885L263.43 25.2544C266.532 23.5975 265.898 22.3636 269 20.7067L264.1 11.5408C260.997 13.1977 261.632 14.4316 258.53 16.0885Z" stroke="#221F1F" stroke-width="1.2467" stroke-miterlimit="10" stroke-linejoin="round"/>
<path d="M253.63 6.92248L258.53 16.0884C261.632 14.4315 260.998 13.1976 264.1 11.5407L259.2 2.37476C256.097 4.03168 256.732 5.26555 253.63 6.92248Z" stroke="#221F1F" stroke-width="1.2467" stroke-miterlimit="10" stroke-linejoin="round"/>
<path d="M238.541 38.5452L250.668 61.178C251.021 61.8126 251.796 62.0594 252.431 61.7068C253.065 61.3543 253.312 60.5787 252.96 59.9441L240.656 36.9587C240.198 37.4875 239.599 37.9811 238.541 38.5452Z" stroke="#221F1F" stroke-width="1.2467" stroke-miterlimit="10" stroke-linejoin="round"/>
</svg>
