<svg width="258" height="136" viewBox="0 0 258 136" fill="none" xmlns="http://www.w3.org/2000/svg">
<path d="M6.25446 87.1707L66.4485 116.397C69.4537 117.829 73.0674 116.629 74.6 113.655L75.304 112.273C76.7523 109.3 75.54 105.725 72.5341 104.21L12.34 74.9832C9.33477 73.551 5.72108 74.751 4.18851 77.725L3.48448 79.1072C1.99442 82.1225 3.24923 85.7385 6.25446 87.1707Z" fill="white"/>
<path d="M6.25446 87.1707L66.4485 116.397C69.4537 117.829 73.0674 116.629 74.6 113.655L75.304 112.273C76.7523 109.3 75.54 105.725 72.5341 104.21L12.34 74.9832C9.33477 73.551 5.72108 74.751 4.1885 77.725L3.48448 79.1072C1.99442 82.1225 3.24923 85.7385 6.25446 87.1707Z" stroke="#4B4949" stroke-width="2.2553" stroke-miterlimit="10"/>
<path d="M115.8 64.4325C120.108 64.4325 123.6 60.9779 123.6 56.7163C123.6 52.4547 120.108 49 115.8 49C111.492 49 108 52.4547 108 56.7163C108 60.9779 111.492 64.4325 115.8 64.4325Z" fill="#DA1A3D"/>
<path d="M115.8 64.4325C120.108 64.4325 123.6 60.9779 123.6 56.7163C123.6 52.4547 120.108 49 115.8 49C111.492 49 108 52.4547 108 56.7163C108 60.9779 111.492 64.4325 115.8 64.4325Z" stroke="#221F1F" stroke-width="2.3527" stroke-miterlimit="10"/>
<path d="M165.8 134.132C177.84 134.132 187.6 124.477 187.6 112.566C187.6 100.655 177.84 91 165.8 91C153.76 91 144 100.655 144 112.566C144 124.477 153.76 134.132 165.8 134.132Z" fill="white"/>
<path d="M165.8 134.132C177.84 134.132 187.6 124.477 187.6 112.566C187.6 100.655 177.84 91 165.8 91C153.76 91 144 100.655 144 112.566C144 124.477 153.76 134.132 165.8 134.132Z" fill="white" stroke="#221F1F" stroke-width="2.3527" stroke-miterlimit="10"/>
<path d="M249.596 33.0387C241.151 35.5225 238.161 38.7597 231.373 54.7672C231.169 55.2923 230.355 55.042 230.481 54.4931C233.857 37.4366 233.164 33.067 227.611 26.2803C236.056 23.7965 239.046 20.5593 245.834 4.55175C246.038 4.02667 246.852 4.27698 246.726 4.8259C243.349 21.8824 243.993 26.2784 249.596 33.0387Z" fill="white"/>
<path d="M249.596 33.0387C241.151 35.5225 238.161 38.7597 231.373 54.7672C231.169 55.2923 230.355 55.042 230.481 54.4931C233.857 37.4366 233.164 33.067 227.611 26.2803C236.056 23.7965 239.046 20.5593 245.834 4.55175C246.038 4.02667 246.852 4.27698 246.726 4.8259C243.349 21.8824 243.993 26.2783 249.596 33.0387Z" stroke="#221F1F" stroke-width="2.0903" stroke-miterlimit="10" stroke-linecap="round" stroke-linejoin="round"/>
</svg>
