<svg width="22" height="23" viewBox="0 0 22 23" fill="none" xmlns="http://www.w3.org/2000/svg">
<path d="M11.1543 1.23199C11.1602 1.32103 11.1485 1.41036 11.1199 1.49489C11.0913 1.57941 11.0463 1.65746 10.9875 1.72459C10.9287 1.79172 10.8572 1.8466 10.7772 1.88611C10.6972 1.92562 10.6102 1.94898 10.5211 1.95485C8.69761 2.07607 6.94761 2.72007 5.4805 3.80981C4.01339 4.89955 2.89129 6.38888 2.24844 8.09964C1.60559 9.8104 1.46922 11.6701 1.85563 13.4564C2.24204 15.2426 3.13487 16.8797 4.42732 18.1718C5.71977 19.4639 7.3571 20.3563 9.14344 20.7422C10.9298 21.1282 12.7895 20.9913 14.5001 20.348C16.2106 19.7047 17.6997 18.5822 18.789 17.1148C19.8784 15.6474 20.5219 13.8972 20.6426 12.0736C20.6484 11.9846 20.6717 11.8976 20.7111 11.8175C20.7506 11.7375 20.8054 11.666 20.8724 11.6071C20.9395 11.5483 21.0175 11.5032 21.102 11.4745C21.1865 11.4458 21.2758 11.434 21.3648 11.4398C21.4539 11.4456 21.5409 11.4688 21.6209 11.5083C21.701 11.5477 21.7725 11.6025 21.8313 11.6696C21.8902 11.7366 21.9353 11.8146 21.964 11.8991C21.9927 11.9836 22.0045 12.0729 21.9987 12.162C21.8609 14.2462 21.1256 16.2466 19.8807 17.9238C18.6358 19.601 16.9341 20.8841 14.979 21.6194C13.024 22.3548 10.8985 22.5113 8.85685 22.0702C6.81519 21.6292 4.94384 20.6092 3.46669 19.1324C1.98954 17.6556 0.969161 15.7845 0.527625 13.743C0.086089 11.7014 0.2421 9.57588 0.976991 7.62067C1.71188 5.66546 2.99453 3.96339 4.67148 2.7181C6.34842 1.4728 8.34864 0.737025 10.4328 0.598799C10.6124 0.587248 10.7893 0.647436 10.9245 0.76615C11.0598 0.884864 11.1425 1.0524 11.1543 1.23199ZM12.5199 1.32302C12.5376 1.23546 12.5723 1.15224 12.6222 1.07813C12.6721 1.00402 12.7361 0.940469 12.8105 0.891121C12.885 0.841774 12.9685 0.807596 13.0562 0.790543C13.1438 0.773491 13.234 0.773899 13.3216 0.791744C14.0825 0.945285 14.8135 1.17899 15.5065 1.48336C15.5909 1.51719 15.6677 1.56763 15.7323 1.6317C15.7969 1.69577 15.848 1.77216 15.8825 1.85634C15.917 1.94052 15.9342 2.03077 15.9332 2.12174C15.9322 2.21271 15.9129 2.30254 15.8765 2.38591C15.8401 2.46929 15.7873 2.5445 15.7212 2.60709C15.6552 2.66967 15.5773 2.71837 15.4921 2.75027C15.4069 2.78217 15.3162 2.79664 15.2253 2.79282C15.1344 2.78899 15.0452 2.76695 14.963 2.728C14.349 2.4591 13.7081 2.2564 13.0512 2.12334C12.9637 2.10551 12.8807 2.07063 12.8067 2.02069C12.7327 1.97075 12.6693 1.90673 12.6201 1.83228C12.5709 1.75784 12.5369 1.67443 12.5199 1.58681C12.5029 1.4992 12.5034 1.4091 12.5212 1.32167L12.5199 1.32302ZM21.1196 7.10188C21.0475 6.93665 20.9127 6.80682 20.7449 6.74095C20.5771 6.67508 20.39 6.67857 20.2248 6.75064C20.0596 6.82271 19.9298 6.95747 19.8639 7.12527C19.798 7.29307 19.8015 7.48016 19.8736 7.64539C20.1372 8.24733 20.3396 8.88188 20.4728 9.5436C20.4906 9.63103 20.5255 9.7141 20.5755 9.78804C20.6254 9.86199 20.6894 9.92538 20.7639 9.97459C20.8383 10.0238 20.9217 10.0579 21.0093 10.0748C21.0969 10.0918 21.187 10.0914 21.2745 10.0735C21.3619 10.0557 21.445 10.0208 21.5189 9.97084C21.5929 9.9209 21.6562 9.85687 21.7055 9.78243C21.7547 9.70799 21.7887 9.62458 21.8057 9.53698C21.8227 9.44937 21.8222 9.35928 21.8044 9.27184C21.6532 8.52642 21.4236 7.79906 21.1196 7.10188ZM17.1506 3.17775C17.2661 3.03961 17.4318 2.953 17.6112 2.93695C17.7905 2.9209 17.9689 2.97672 18.1072 3.09215C18.6344 3.53103 19.1208 4.02019 19.557 4.55147C19.6714 4.69075 19.7258 4.86978 19.7082 5.04917C19.6906 5.22857 19.6025 5.39363 19.4632 5.50804C19.3239 5.62246 19.1449 5.67686 18.9655 5.65928C18.7861 5.6417 18.6211 5.55357 18.5066 5.41429C18.1248 4.94911 17.6999 4.52101 17.2375 4.13568C17.1689 4.07855 17.1121 4.00843 17.0705 3.92934C17.029 3.85025 17.0034 3.76374 16.9954 3.67476C16.9873 3.58577 16.9968 3.49607 17.0235 3.41079C17.0501 3.32551 17.0933 3.24632 17.1506 3.17775ZM11.1516 5.3314C11.1516 5.15122 11.08 4.97841 10.9526 4.851C10.8252 4.7236 10.6524 4.65202 10.4722 4.65202C10.292 4.65202 10.1192 4.7236 9.99182 4.851C9.86441 4.97841 9.79283 5.15122 9.79283 5.3314V12.1253C9.79283 12.3055 9.86441 12.4783 9.99182 12.6057C10.1192 12.7331 10.292 12.8047 10.4722 12.8047H14.5485C14.7287 12.8047 14.9015 12.7331 15.0289 12.6057C15.1563 12.4783 15.2279 12.3055 15.2279 12.1253C15.2279 11.9451 15.1563 11.7723 15.0289 11.6449C14.9015 11.5175 14.7287 11.4459 14.5485 11.4459H11.1516V5.3314Z" fill="#1A1918"/>
</svg>
