<svg width="33" height="37" viewBox="0 0 33 37" fill="none" xmlns="http://www.w3.org/2000/svg">
<path d="M20.3428 8.91192H8.94626C8.54978 8.91192 8.22922 8.59136 8.22922 8.19488C8.22922 7.79841 8.54978 7.47784 8.94626 7.47784H20.3428C20.7393 7.47784 21.0599 7.79841 21.0599 8.19488C21.0599 8.59136 20.7393 8.91192 20.3428 8.91192Z" fill="#231F20"/>
<path d="M23.8774 16.3775H8.94626C8.54978 16.3775 8.22922 16.057 8.22922 15.6605C8.22922 15.264 8.54978 14.9435 8.94626 14.9435H23.8774C24.2739 14.9435 24.5944 15.264 24.5944 15.6605C24.5944 16.057 24.2739 16.3775 23.8774 16.3775Z" fill="#231F20"/>
<path d="M23.8774 23.8431H8.94626C8.54978 23.8431 8.22922 23.5225 8.22922 23.1261C8.22922 22.7296 8.54978 22.409 8.94626 22.409H23.8774C24.2739 22.409 24.5944 22.7296 24.5944 23.1261C24.5944 23.5225 24.2739 23.8431 23.8774 23.8431Z" fill="#231F20"/>
<path d="M3.11729 36.4882C2.81361 36.4882 2.50147 36.4291 2.20622 36.3026C1.31204 35.9314 0.755287 35.1047 0.755287 34.1346V2.59361C0.755287 1.16798 1.91942 0.00387573 3.34505 0.00387573H29.4788C30.9044 0.00387573 32.0685 1.16798 32.0685 2.59361V28.7273C32.0685 30.153 30.9044 31.3171 29.4788 31.3171H9.25002L4.77068 35.7964C4.30672 36.2435 3.71622 36.4882 3.11729 36.4882ZM3.34505 1.44637C2.71237 1.44637 2.19781 1.96093 2.19781 2.59361V34.1346C2.19781 34.6998 2.62803 34.9191 2.75456 34.9697C2.88953 35.0204 3.34505 35.1722 3.74152 34.7757L8.43176 30.0855C8.56673 29.9505 8.75232 29.8746 8.9379 29.8746H29.4703C30.103 29.8746 30.6176 29.36 30.6176 28.7273V2.59361C30.6176 1.96093 30.103 1.44637 29.4703 1.44637H3.34505Z" fill="#231F20"/>
</svg>
