<svg width="37" height="37" viewBox="0 0 37 37" fill="none" xmlns="http://www.w3.org/2000/svg">
<path d="M34.1892 26.4189H25.4269V24.9754H34.1892C34.7548 24.9754 35.219 24.5111 35.219 23.9455C35.219 23.667 35.1093 23.4137 34.9152 23.2111L27.9002 16.2046C27.7061 16.0105 27.4444 15.9007 27.1743 15.9007V14.4572C27.8327 14.4572 28.4574 14.7189 28.9217 15.1832L35.9366 22.1897C36.4009 22.654 36.6625 23.2786 36.6625 23.9371C36.6625 25.313 35.5483 26.4189 34.1892 26.4189Z" fill="#231F20"/>
<path d="M11.397 26.4273L2.63466 26.4189C1.26714 26.4189 0.161301 25.3046 0.161301 23.9455C0.161301 23.2871 0.41456 22.6624 0.887286 22.1981L7.89375 15.1916C8.35803 14.7273 8.98271 14.4657 9.64115 14.4657V15.9092C9.36258 15.9092 9.10934 16.0189 8.90674 16.2131L1.90025 23.2195C1.7061 23.4137 1.59637 23.6754 1.59637 23.9455C1.59637 24.5111 2.06066 24.9754 2.62624 24.9754L11.3885 24.9838L11.397 26.4273Z" fill="#231F20"/>
<path d="M25.4183 36.937H11.3969C10.0294 36.937 8.92355 35.8312 8.92355 34.4637C8.92355 33.8052 9.17679 33.1806 9.64951 32.7163L16.656 25.7098C17.1203 25.2455 17.745 24.9838 18.4034 24.9838C19.0618 24.9838 19.6865 25.2455 20.1508 25.7098L27.1657 32.7163C27.63 33.1806 27.8917 33.8052 27.8917 34.4637C27.8917 35.8312 26.7858 36.937 25.4183 36.937ZM18.4034 26.4273C18.1248 26.4273 17.8716 26.5371 17.669 26.7312L10.6625 33.7377C10.4684 33.9318 10.3586 34.1935 10.3586 34.4637C10.3586 35.0293 10.8229 35.4935 11.3885 35.4935H25.4099C25.9754 35.4935 26.4397 35.0293 26.4397 34.4637C26.4397 34.1851 26.33 33.9319 26.1358 33.7293L19.1209 26.7228C18.9352 26.5371 18.682 26.4273 18.4034 26.4273Z" fill="#231F20"/>
<path d="M9.64097 12.4059C6.34033 12.4059 3.66435 9.72154 3.66435 6.42935C3.66435 3.12871 6.34877 0.452728 9.64097 0.452728C12.9332 0.452728 15.6176 3.13715 15.6176 6.42935C15.626 9.72154 12.9416 12.4059 9.64097 12.4059ZM9.64097 1.8878C7.14228 1.8878 5.09942 3.92221 5.09942 6.42935C5.09942 8.92804 7.13384 10.9624 9.64097 10.9624C12.1397 10.9624 14.1825 8.92804 14.1825 6.42935C14.1825 3.92221 12.1481 1.8878 9.64097 1.8878Z" fill="#231F20"/>
<path d="M27.174 12.4059C23.8733 12.4059 21.1974 9.72154 21.1974 6.42935C21.1974 3.12871 23.8818 0.452728 27.174 0.452728C30.4746 0.452728 33.1506 3.13715 33.1506 6.42935C33.1506 9.72154 30.4746 12.4059 27.174 12.4059ZM27.174 1.8878C24.6753 1.8878 22.6324 3.92221 22.6324 6.42935C22.6324 8.92804 24.6668 10.9624 27.174 10.9624C29.6727 10.9624 31.7155 8.92804 31.7155 6.42935C31.7155 3.92221 29.6727 1.8878 27.174 1.8878Z" fill="#231F20"/>
<path d="M18.4121 22.9241C15.1114 22.9241 12.4355 20.2397 12.4355 16.9475C12.4355 13.6553 15.1199 10.9709 18.4121 10.9709C21.7127 10.9709 24.3887 13.6553 24.3887 16.9475C24.3887 20.2397 21.7043 22.9241 18.4121 22.9241ZM18.4121 12.4059C15.9134 12.4059 13.8705 14.4403 13.8705 16.939C13.8705 19.4377 15.9049 21.4721 18.4121 21.4721C20.9108 21.4721 22.9536 19.4377 22.9536 16.939C22.9536 14.4403 20.9108 12.4059 18.4121 12.4059Z" fill="#231F20"/>
<path d="M27.1658 12.3975C23.8652 12.3975 21.1892 9.71309 21.1892 6.42089C21.1892 3.1287 23.8736 0.444275 27.1658 0.444275C30.4664 0.444275 33.1424 3.1287 33.1424 6.42089C33.1424 9.71309 30.4664 12.3975 27.1658 12.3975ZM27.1658 1.87935C24.6671 1.87935 22.6243 3.91375 22.6243 6.41244C22.6243 8.91114 24.6587 10.9455 27.1658 10.9455C29.6645 10.9455 31.7073 8.91114 31.7073 6.41244C31.7073 3.91375 29.6645 1.87935 27.1658 1.87935Z" fill="#231F20"/>
</svg>
