<svg width="21" height="24" viewBox="0 0 21 24" fill="none" xmlns="http://www.w3.org/2000/svg">
<path d="M12.6582 5.89389H5.4449C5.19395 5.89389 4.99106 5.69099 4.99106 5.44005C4.99106 5.1891 5.19395 4.98621 5.4449 4.98621H12.6582C12.9092 4.98621 13.1121 5.1891 13.1121 5.44005C13.1121 5.69099 12.9092 5.89389 12.6582 5.89389Z" fill="#231F20"/>
<path d="M14.8954 10.6192H5.4449C5.19395 10.6192 4.99106 10.4163 4.99106 10.1653C4.99106 9.91438 5.19395 9.71149 5.4449 9.71149H14.8954C15.1463 9.71149 15.3492 9.91438 15.3492 10.1653C15.3492 10.4163 15.1463 10.6192 14.8954 10.6192Z" fill="#231F20"/>
<path d="M14.8954 15.3444H5.4449C5.19395 15.3444 4.99106 15.1415 4.99106 14.8905C4.99106 14.6396 5.19395 14.4367 5.4449 14.4367H14.8954C15.1463 14.4367 15.3492 14.6396 15.3492 14.8905C15.3492 15.1415 15.1463 15.3444 14.8954 15.3444Z" fill="#231F20"/>
<path d="M1.75498 23.348C1.56277 23.348 1.36521 23.3106 1.17833 23.2305C0.612371 22.9956 0.259979 22.4723 0.259979 21.8583V1.89482C0.259979 0.992481 0.996801 0.255676 1.89913 0.255676H18.4402C19.3425 0.255676 20.0793 0.992481 20.0793 1.89482V18.4358C20.0793 19.3382 19.3425 20.075 18.4402 20.075H5.63661L2.80147 22.9101C2.50781 23.1931 2.13407 23.348 1.75498 23.348ZM1.89913 1.16868C1.49869 1.16868 1.173 1.49437 1.173 1.89482V21.8583C1.173 22.216 1.44531 22.3548 1.5254 22.3869C1.61082 22.4189 1.89914 22.515 2.15008 22.2641L5.11871 19.2955C5.20413 19.21 5.3216 19.162 5.43906 19.162H18.4348C18.8353 19.162 19.161 18.8363 19.161 18.4358V1.89482C19.161 1.49437 18.8353 1.16868 18.4348 1.16868H1.89913Z" fill="#231F20"/>
</svg>
