<?xml version="1.0" encoding="UTF-8"?>
<svg width="700pt" height="700pt" version="1.1" viewBox="0 0 700 700" xmlns="http://www.w3.org/2000/svg">
 <path d="m450.47 241.64 138.18-126.16c3.9219 7.3516 6.3516 15.609 6.3516 24.516v280c0 9.8867-2.9062 19.039-7.6836 26.934l-136.87-205.29zm-109.67 35.945c4.8828 3.5508 13.512 3.5703 19.703-1.0859l202.39-184.87c-6.2656-2.6602-13.16-4.1289-20.387-4.1289h-385c-7.2266 0-14.105 1.4688-20.371 4.1133zm-229.43-162.12c-3.9375 7.3516-6.3711 15.629-6.3711 24.535v280c0 9.8867 2.9062 19.039 7.6836 26.934l136.9-205.34zm312.95 150.06-41.512 37.906c-10.113 7.6289-21.789 11.375-33.266 11.375-11.059 0-21.926-3.4648-31.027-10.289l-42.789-39.043-135.85 203.75c5.5312 1.9961 11.41 3.2734 17.621 3.2734h385c6.2109 0 12.094-1.2773 17.621-3.2734l-135.82-203.72z"/>
</svg>
