<svg width="44" height="44" viewBox="0 0 44 44" fill="none" xmlns="http://www.w3.org/2000/svg">
<path d="M15.39 0C14.61 0 13.87 0.300001 13.32 0.860001L0.859985 13.32C0.309985 13.87 0 14.61 0 15.39C0 17.01 1.30999 18.32 2.92999 18.32H15.39C17.01 18.32 18.32 17 18.32 15.39V2.92999C18.32 1.30999 17.01 0 15.39 0Z" fill="#FF7A00"/>
<path d="M40.31 0H27.85C26.23 0 24.92 1.31999 24.92 2.92999V15.39C24.92 17.01 26.23 18.32 27.85 18.32H40.31C41.93 18.32 43.24 17.01 43.24 15.39V2.92999C43.24 1.30999 41.93 0 40.31 0Z" fill="white"/>
<path d="M15.39 24.92H2.92999C1.30999 24.92 0 26.24 0 27.85V40.31C0 41.93 1.30999 43.24 2.92999 43.24H15.39C17.01 43.24 18.32 41.93 18.32 40.31V27.85C18.32 26.23 17.01 24.92 15.39 24.92Z" fill="white"/>
<path d="M27.85 25.42H40.31C41.6539 25.42 42.74 26.5061 42.74 27.85V40.31C42.74 41.6538 41.6539 42.74 40.31 42.74H27.85C26.5061 42.74 25.42 41.6538 25.42 40.31V27.85C25.42 26.515 26.5072 25.42 27.85 25.42Z" fill="white" stroke="white"/>
</svg>
