<svg width="36" height="36" viewBox="0 0 36 36" fill="none" xmlns="http://www.w3.org/2000/svg">
<path d="M13.3607 15.2393H3.25817C1.94468 15.2393 0.882545 14.169 0.882545 12.8637C0.882545 12.2312 1.13388 11.6313 1.57982 11.1853L11.6823 1.08281C12.1364 0.636875 12.7282 0.385529 13.3607 0.385529C14.6741 0.385529 15.7363 1.44768 15.7363 2.76116V12.8637C15.7363 14.1771 14.6741 15.2393 13.3607 15.2393ZM13.3607 1.77199C13.0931 1.77199 12.8499 1.8774 12.6553 2.06388L2.55278 12.1664C2.3663 12.3529 2.26088 12.6042 2.26088 12.8637C2.26088 13.4069 2.70682 13.8528 3.25005 13.8528H13.3526C13.8958 13.8528 14.3417 13.4069 14.3417 12.8637V2.76116C14.3498 2.21793 13.9039 1.77199 13.3607 1.77199Z" fill="black"/>
<path d="M33.5654 15.2393H23.4629C22.1494 15.2393 21.0873 14.1771 21.0873 12.8637V2.76116C21.0873 1.44768 22.1494 0.385529 23.4629 0.385529H33.5654C34.8789 0.385529 35.9411 1.45578 35.9411 2.76116V12.8637C35.9411 14.1771 34.8789 15.2393 33.5654 15.2393ZM23.4629 1.77199C22.9197 1.77199 22.4738 2.21793 22.4738 2.76116V12.8637C22.4738 13.4069 22.9197 13.8528 23.4629 13.8528H33.5654C34.1087 13.8528 34.5546 13.4069 34.5546 12.8637V2.76116C34.5546 2.21793 34.1087 1.77199 33.5654 1.77199H23.4629Z" fill="black"/>
<path d="M13.3606 35.4443H3.25812C1.94463 35.4443 0.8825 34.374 0.8825 33.0687V22.9662C0.8825 21.6527 1.94463 20.5905 3.25812 20.5905H13.3606C14.6741 20.5905 15.7362 21.6608 15.7362 22.9662V33.0687C15.7362 34.3821 14.6741 35.4443 13.3606 35.4443ZM3.25812 21.977C2.71489 21.977 2.26895 22.4229 2.26895 22.9662V33.0687C2.26895 33.6119 2.71489 34.0578 3.25812 34.0578H13.3606C13.9038 34.0578 14.3498 33.6119 14.3498 33.0687V22.9662C14.3498 22.4229 13.9038 21.977 13.3606 21.977H3.25812Z" fill="black"/>
<path d="M33.5654 35.4443H23.4629C22.1494 35.4443 21.0873 34.374 21.0873 33.0687V22.9662C21.0873 21.6527 22.1494 20.5905 23.4629 20.5905H33.5654C34.8789 20.5905 35.9411 21.6608 35.9411 22.9662V33.0687C35.9411 34.3821 34.8789 35.4443 33.5654 35.4443ZM23.4629 21.977C22.9197 21.977 22.4738 22.4229 22.4738 22.9662V33.0687C22.4738 33.6119 22.9197 34.0578 23.4629 34.0578H33.5654C34.1087 34.0578 34.5546 33.6119 34.5546 33.0687V22.9662C34.5546 22.4229 34.1087 21.977 33.5654 21.977H23.4629Z" fill="black"/>
</svg>
