<svg width="44" height="45" viewBox="0 0 44 45" fill="none" xmlns="http://www.w3.org/2000/svg">
<path d="M43.0225 6.7968H18.1024C17.6324 6.7968 17.2524 6.41679 17.2524 5.94679C17.2524 5.47679 17.6324 5.0968 18.1024 5.0968H43.0225C43.4925 5.0968 43.8724 5.47679 43.8724 5.94679C43.8724 6.41679 43.4925 6.7968 43.0225 6.7968Z" fill="#231F20"/>
<path d="M9.79245 6.7968H1.48245C1.01245 6.7968 0.632446 6.41679 0.632446 5.94679C0.632446 5.47679 1.01245 5.0968 1.48245 5.0968H9.79245C10.2625 5.0968 10.6425 5.47679 10.6425 5.94679C10.6425 6.41679 10.2625 6.7968 9.79245 6.7968Z" fill="#231F20"/>
<path d="M43.0225 40.0268H18.1024C17.6324 40.0268 17.2524 39.6468 17.2524 39.1768C17.2524 38.7068 17.6324 38.3268 18.1024 38.3268H43.0225C43.4925 38.3268 43.8724 38.7068 43.8724 39.1768C43.8724 39.6368 43.4925 40.0268 43.0225 40.0268Z" fill="#231F20"/>
<path d="M9.79245 40.0268H1.48245C1.01245 40.0268 0.632446 39.6468 0.632446 39.1768C0.632446 38.7068 1.01245 38.3268 1.48245 38.3268H9.79245C10.2625 38.3268 10.6425 38.7068 10.6425 39.1768C10.6525 39.6368 10.2625 40.0268 9.79245 40.0268Z" fill="#231F20"/>
<path d="M11.8724 44.1768C10.2524 44.1768 8.94244 42.8668 8.94244 41.2468V37.0968C8.94244 35.4768 10.2524 34.1668 11.8724 34.1668C12.2724 34.1668 12.6725 34.2468 13.0424 34.4068L17.5924 36.6868C18.4524 37.2268 18.9625 38.1568 18.9625 39.1668C18.9625 40.1768 18.4524 41.1068 17.5924 41.6468L17.1624 41.8668L13.2924 43.8068C12.8824 44.0368 12.3824 44.1768 11.8724 44.1768ZM11.8724 35.8668C11.2024 35.8668 10.6524 36.4168 10.6524 37.0868V41.2368C10.6524 41.9068 11.2024 42.4568 11.8724 42.4568C12.0924 42.4568 12.2925 42.4068 12.4825 42.2968L16.7125 40.1668C17.0525 39.9368 17.2524 39.5668 17.2524 39.1568C17.2524 38.7468 17.0525 38.3768 16.7125 38.1468L12.3124 35.9368C12.2024 35.9068 12.0424 35.8668 11.8724 35.8668Z" fill="#231F20"/>
<path d="M11.8724 10.9468C10.2524 10.9468 8.94244 9.6268 8.94244 8.0168V3.86679C8.94244 2.24679 10.2524 0.936798 11.8724 0.936798C12.2724 0.936798 12.6725 1.0168 13.0424 1.1768L17.5924 3.4568C18.4524 3.9968 18.9625 4.9268 18.9625 5.9368C18.9625 6.9468 18.4524 7.87679 17.5924 8.41679L17.1624 8.6368L13.2924 10.5768C12.8824 10.8168 12.3824 10.9468 11.8724 10.9468ZM11.8724 2.6468C11.2024 2.6468 10.6524 3.19679 10.6524 3.86679V8.0168C10.6524 8.6868 11.2024 9.2368 11.8724 9.2368C12.0924 9.2368 12.2924 9.1868 12.4724 9.0768L16.7025 6.94679C17.0425 6.71679 17.2425 6.3468 17.2425 5.9368C17.2425 5.5268 17.0425 5.1568 16.7025 4.9268L12.3025 2.7168C12.2025 2.6768 12.0424 2.6468 11.8724 2.6468Z" fill="#231F20"/>
<path d="M28.4825 27.5668C26.8625 27.5668 25.5525 26.2568 25.5525 24.6368V20.4868C25.5525 18.8668 26.8625 17.5568 28.4825 17.5568C28.8925 17.5568 29.2824 17.6368 29.6524 17.7968L34.1924 20.0768C35.0524 20.6168 35.5624 21.5468 35.5624 22.5568C35.5624 23.5768 35.0524 24.4968 34.1924 25.0368L33.7625 25.2568L29.8925 27.1968C29.5025 27.4268 28.9925 27.5668 28.4825 27.5668ZM28.4825 19.2568C27.8125 19.2568 27.2625 19.8068 27.2625 20.4768V24.6268C27.2625 25.2968 27.8125 25.8468 28.4825 25.8468C28.7025 25.8468 28.9025 25.7968 29.0825 25.6868L33.3124 23.5568C33.6524 23.3268 33.8524 22.9568 33.8524 22.5468C33.8524 22.1368 33.6524 21.7668 33.3124 21.5368L28.9124 19.3268C28.8124 19.2868 28.6525 19.2568 28.4825 19.2568Z" fill="#231F20"/>
<path d="M12.6924 44.0068C12.3824 44.0068 12.0824 43.8368 11.9324 43.5368C11.7224 43.1168 11.8924 42.5968 12.3124 42.3868L12.5225 42.2868C12.9425 42.0768 13.4625 42.2468 13.6725 42.6668C13.8825 43.0868 13.7124 43.6068 13.2924 43.8168L13.0825 43.9168C12.9525 43.9768 12.8224 44.0068 12.6924 44.0068Z" fill="#231F20"/>
<path d="M43.0225 23.4068H34.7125C34.2425 23.4068 33.8625 23.0268 33.8625 22.5568C33.8625 22.0868 34.2425 21.7068 34.7125 21.7068H43.0225C43.4925 21.7068 43.8724 22.0868 43.8724 22.5568C43.8724 23.0268 43.4925 23.4068 43.0225 23.4068Z" fill="#231F20"/>
<path d="M26.4024 23.4068H1.48245C1.01245 23.4068 0.632446 23.0268 0.632446 22.5568C0.632446 22.0868 1.01245 21.7068 1.48245 21.7068H26.4024C26.8724 21.7068 27.2524 22.0868 27.2524 22.5568C27.2524 23.0268 26.8824 23.4068 26.4024 23.4068Z" fill="#231F20"/>
</svg>
