<svg width="20" height="24" viewBox="0 0 20 24" fill="none" xmlns="http://www.w3.org/2000/svg">
<path d="M9.93871 1.635C10.3944 0.325496 12.1261 -0.277654 13.1957 0.844204C13.4155 1.07206 13.6327 1.31868 13.7801 1.53984C14.209 2.1832 14.39 3.03163 14.4556 3.85861C14.5226 4.699 14.4771 5.60238 14.3913 6.42133C14.314 7.13287 14.2062 7.84077 14.0683 8.54307L14.0549 8.61277H15.2384C15.8274 8.61268 16.4093 8.74202 16.9429 8.99163C17.4764 9.24124 17.9486 9.60503 18.3261 10.0573C18.7035 10.5095 18.977 11.0392 19.1271 11.6088C19.2773 12.1784 19.3005 12.774 19.195 13.3535L18.2783 18.3945C18.1288 19.2171 17.81 19.9997 17.342 20.6925C16.874 21.3853 16.2671 21.9733 15.5598 22.4191C14.8525 22.8649 14.0603 23.1587 13.2333 23.282C12.4064 23.4053 11.5629 23.3553 10.7563 23.1353L3.25045 21.0886C2.65018 20.9247 2.10742 20.5968 1.68296 20.1419C1.2585 19.6869 0.969117 19.1227 0.847232 18.5125L0.374095 16.1468C0.00148225 14.2851 1.42492 12.7169 2.93815 12.1191C3.34841 11.9665 3.72929 11.7443 4.06403 11.4623C6.35198 9.43306 7.1803 7.81259 8.60106 4.96171C9.07553 4.01007 9.56341 2.71531 9.93871 1.635ZM12.5725 9.12076V9.11808L12.5751 9.1087L12.5845 9.06714C12.6465 8.80749 12.7028 8.5465 12.7534 8.28439C12.8553 7.76434 12.9772 7.05128 13.0577 6.28059C13.1394 5.50722 13.1783 4.69364 13.1193 3.9645C13.0603 3.21927 12.9049 2.64427 12.6636 2.28238C12.5314 2.10026 12.3853 1.92863 12.2267 1.76903C11.9599 1.49024 11.3849 1.55458 11.2053 2.07463C10.826 3.16566 10.3153 4.52744 9.80065 5.55949C8.37052 8.42915 7.44703 10.2533 4.95401 12.4649C4.4983 12.8697 3.9568 13.1578 3.43139 13.3656C2.2519 13.832 1.49193 14.9043 1.68896 15.8841L2.16076 18.2498C2.23406 18.616 2.40795 18.9546 2.66293 19.2276C2.9179 19.5006 3.24387 19.6971 3.6043 19.7952L11.1102 21.8419C11.7373 22.0128 12.3932 22.0516 13.0361 21.9557C13.6791 21.8598 14.2951 21.6313 14.845 21.2847C15.395 20.9382 15.867 20.4811 16.2309 19.9425C16.5949 19.4039 16.843 18.7955 16.9594 18.1559L17.8762 13.1136C17.9465 12.7272 17.931 12.3302 17.8309 11.9504C17.7308 11.5707 17.5485 11.2176 17.2968 10.9161C17.0452 10.6146 16.7304 10.3721 16.3747 10.2057C16.019 10.0393 15.6311 9.95304 15.2384 9.9531H13.2212C13.1195 9.95287 13.0192 9.92951 12.9279 9.88477C12.8366 9.84004 12.7566 9.77511 12.6941 9.69491C12.6316 9.61471 12.5882 9.52134 12.5671 9.42186C12.546 9.32239 12.5479 9.21942 12.5725 9.12076Z" fill="#1A1918"/>
</svg>
