<svg width="45" height="45" viewBox="0 0 45 45" fill="none" xmlns="http://www.w3.org/2000/svg">
<path d="M28.3824 44.2168H4.64246C2.51246 44.2168 0.772461 42.4868 0.772461 40.3468C0.772461 39.3168 1.17244 38.3468 1.90244 37.6068L13.7625 25.7468C14.4925 25.0168 15.4624 24.6168 16.5024 24.6168C17.5324 24.6168 18.5025 25.0168 19.2325 25.7468L31.1125 37.6068C31.8425 38.3368 32.2425 39.3068 32.2425 40.3468C32.2525 42.4868 30.5124 44.2168 28.3824 44.2168ZM16.5024 26.4268C15.9524 26.4268 15.4325 26.6468 15.0424 27.0368L3.18243 38.8968C2.79243 39.2868 2.58246 39.8068 2.58246 40.3568C2.58246 41.4968 3.51244 42.4268 4.65244 42.4268H28.3925C29.5325 42.4268 30.4625 41.4968 30.4625 40.3568C30.4625 39.8068 30.2424 39.2868 29.8524 38.8968L17.9724 27.0368C17.5724 26.6468 17.0524 26.4268 16.5024 26.4268Z" fill="#231F20"/>
<path d="M16.5125 20.4968C11.1025 20.4968 6.71246 16.0968 6.71246 10.6968C6.71246 5.28678 11.1125 0.89679 16.5125 0.89679C21.9225 0.89679 26.3124 5.29678 26.3124 10.6968C26.3124 16.0968 21.9125 20.4968 16.5125 20.4968ZM16.5125 2.68678C12.1025 2.68678 8.51245 6.27678 8.51245 10.6868C8.51245 15.0968 12.1025 18.6868 16.5125 18.6868C20.9225 18.6868 24.5125 15.0968 24.5125 10.6868C24.5125 6.27678 20.9225 2.68678 16.5125 2.68678Z" fill="#231F20"/>
<path d="M7.63245 10.9968H1.67245C1.17245 10.9968 0.772461 10.5968 0.772461 10.0968C0.772461 9.59679 1.17245 9.19678 1.67245 9.19678H7.63245C8.13245 9.19678 8.53244 9.59679 8.53244 10.0968C8.53244 10.5968 8.13245 10.9968 7.63245 10.9968Z" fill="#231F20"/>
<path d="M43.5324 10.9968H25.3925C24.8925 10.9968 24.4925 10.5968 24.4925 10.0968C24.4925 9.59679 24.8925 9.19678 25.3925 9.19678H43.5324C44.0324 9.19678 44.4324 9.59679 44.4324 10.0968C44.4324 10.5968 44.0324 10.9968 43.5324 10.9968Z" fill="#231F20"/>
<path d="M43.5324 23.4568H26.5924C26.0924 23.4568 25.6924 23.0568 25.6924 22.5568C25.6924 22.0568 26.0924 21.6568 26.5924 21.6568H43.5324C44.0324 21.6568 44.4324 22.0568 44.4324 22.5568C44.4324 23.0568 44.0324 23.4568 43.5324 23.4568Z" fill="#231F20"/>
<path d="M43.5324 35.9168H31.9525C31.4525 35.9168 31.0525 35.5168 31.0525 35.0168C31.0525 34.5168 31.4525 34.1168 31.9525 34.1168H43.5324C44.0324 34.1168 44.4324 34.5168 44.4324 35.0168C44.4324 35.5168 44.0324 35.9168 43.5324 35.9168Z" fill="#231F20"/>
</svg>
