<svg width="44" height="43" viewBox="0 0 44 43" fill="none" xmlns="http://www.w3.org/2000/svg">
<path d="M16.8425 40.0068C16.6125 40.0068 16.3825 39.9168 16.2025 39.7468L0.902476 24.4468C-0.167524 23.3768 -0.167524 21.6268 0.902476 20.5468L19.9525 1.49677C21.0225 0.426775 22.7725 0.426775 23.8425 1.49677L37.3125 14.9668C37.6625 15.3168 37.6625 15.8868 37.3125 16.2368C36.9625 16.5868 36.3925 16.5868 36.0425 16.2368L22.5725 2.76678C22.2025 2.39678 21.5925 2.39678 21.2225 2.76678L2.1725 21.8168C1.8025 22.1868 1.8025 22.7968 2.1725 23.1668L17.4725 38.4668C17.8225 38.8168 17.8225 39.3868 17.4725 39.7368C17.3125 39.9168 17.0825 40.0068 16.8425 40.0068Z" fill="#231F20"/>
<path d="M20.5525 42.4168C20.1625 42.4168 19.7825 42.2668 19.4925 41.9768C19.0825 41.5668 18.9425 40.9768 19.1325 40.4368L20.9025 35.1268C21.0425 34.6968 21.2825 34.3068 21.6025 33.9868L37.6225 17.9668C38.3625 17.2268 39.5725 17.2268 40.3125 17.9668L42.7825 20.4368C43.3325 20.9868 43.6325 21.7168 43.6325 22.4968C43.6325 23.2768 43.3325 24.0068 42.7825 24.5568L27.4725 39.8668C27.1525 40.1868 26.7625 40.4268 26.3325 40.5668L21.0225 42.3368C20.8725 42.3868 20.7125 42.4168 20.5525 42.4168ZM38.9625 19.2068C38.9325 19.2068 38.9125 19.2168 38.8925 19.2368L22.8725 35.2568C22.7525 35.3768 22.6625 35.5268 22.6025 35.6868L21.0225 40.4368L25.7725 38.8568C25.9325 38.8068 26.0825 38.7068 26.2025 38.5868L41.5125 23.2768C41.7225 23.0668 41.8425 22.7868 41.8425 22.4968C41.8425 22.1968 41.7225 21.9268 41.5225 21.7168L39.0525 19.2468C39.0225 19.2168 38.9925 19.2068 38.9625 19.2068Z" fill="#231F20"/>
<path d="M13.5925 20.1868C14.6087 20.1868 15.4325 19.363 15.4325 18.3468C15.4325 17.3306 14.6087 16.5068 13.5925 16.5068C12.5763 16.5068 11.7525 17.3306 11.7525 18.3468C11.7525 19.363 12.5763 20.1868 13.5925 20.1868Z" fill="#231F20"/>
<path d="M21.9025 20.1868C22.9187 20.1868 23.7425 19.363 23.7425 18.3468C23.7425 17.3306 22.9187 16.5068 21.9025 16.5068C20.8863 16.5068 20.0625 17.3306 20.0625 18.3468C20.0625 19.363 20.8863 20.1868 21.9025 20.1868Z" fill="#231F20"/>
<path d="M30.2125 20.1868C31.2287 20.1868 32.0525 19.363 32.0525 18.3468C32.0525 17.3306 31.2287 16.5068 30.2125 16.5068C29.1963 16.5068 28.3725 17.3306 28.3725 18.3468C28.3725 19.363 29.1963 20.1868 30.2125 20.1868Z" fill="#231F20"/>
<path d="M21.9025 28.4868C22.9187 28.4868 23.7425 27.663 23.7425 26.6468C23.7425 25.6306 22.9187 24.8068 21.9025 24.8068C20.8863 24.8068 20.0625 25.6306 20.0625 26.6468C20.0625 27.663 20.8863 28.4868 21.9025 28.4868Z" fill="#231F20"/>
<path d="M13.9125 28.4868C14.9287 28.4868 15.7525 27.663 15.7525 26.6468C15.7525 25.6306 14.9287 24.8068 13.9125 24.8068C12.8963 24.8068 12.0725 25.6306 12.0725 26.6468C12.0725 27.663 12.8963 28.4868 13.9125 28.4868Z" fill="#231F20"/>
</svg>
