<svg width="37" height="36" viewBox="0 0 37 36" fill="none" xmlns="http://www.w3.org/2000/svg">
<path d="M29.565 32.428H14.0486C12.5942 32.428 11.4094 31.2432 11.4094 29.7888C11.4094 29.0861 11.6872 28.4243 12.1775 27.9259L19.9316 20.1717C20.43 19.6733 21.0918 19.3955 21.7945 19.3955C22.4972 19.3955 23.1591 19.6733 23.6575 20.1717L31.4198 27.9259C31.9182 28.4243 32.196 29.0861 32.196 29.7888C32.2042 31.2432 31.0194 32.428 29.565 32.428ZM21.8027 20.7927C21.4677 20.7927 21.1572 20.9235 20.9284 21.1604L13.1743 28.9145C12.9374 29.1515 12.8148 29.462 12.8148 29.7888C12.8148 30.4752 13.3704 31.0308 14.0568 31.0308H29.5732C30.2595 31.0308 30.8151 30.4752 30.8151 29.7888C30.8151 29.4538 30.6844 29.1433 30.4475 28.9145L22.6852 21.1604C22.4401 20.9235 22.1295 20.7927 21.8027 20.7927Z" fill="#231F20"/>
<path d="M21.811 16.9197C18.2158 16.9197 15.2906 13.9946 15.2906 10.3994C15.2906 6.80421 18.2158 3.87906 21.811 3.87906C25.4061 3.87906 28.3313 6.80421 28.3313 10.3994C28.3231 13.9946 25.398 16.9197 21.811 16.9197ZM21.811 5.27626C18.9839 5.27626 16.6878 7.57227 16.6878 10.3994C16.6878 13.2265 18.9839 15.5225 21.811 15.5225C24.6381 15.5225 26.9341 13.2265 26.9341 10.3994C26.9259 7.57227 24.6299 5.27626 21.811 5.27626Z" fill="#231F20"/>
<path d="M8.23106 8.59363H1.44109C1.05706 8.59363 0.746567 8.28315 0.746567 7.89912C0.746567 7.51509 1.05706 7.20459 1.44109 7.20459H8.23106C8.61509 7.20459 8.92556 7.51509 8.92556 7.89912C8.93373 8.27497 8.61509 8.59363 8.23106 8.59363Z" fill="#231F20"/>
<path d="M8.23106 18.8562H1.44109C1.05706 18.8562 0.746567 18.5457 0.746567 18.1617C0.746567 17.7777 1.05706 17.4672 1.44109 17.4672H8.23106C8.61509 17.4672 8.92556 17.7777 8.92556 18.1617C8.93373 18.5375 8.61509 18.8562 8.23106 18.8562Z" fill="#231F20"/>
<path d="M8.23106 29.1188H1.44109C1.05706 29.1188 0.746567 28.8083 0.746567 28.4243C0.746567 28.0402 1.05706 27.7297 1.44109 27.7297H8.23106C8.61509 27.7297 8.92556 28.0402 8.92556 28.4243C8.93373 28.8001 8.61509 29.1188 8.23106 29.1188Z" fill="#231F20"/>
<path d="M33.6832 35.8189H9.93053C8.60686 35.8189 7.53648 34.7403 7.53648 33.4248V2.88222C7.53648 1.55855 8.60686 0.488159 9.93053 0.488159H33.6832C35.0068 0.488159 36.0772 1.56672 36.0772 2.88222V33.4248C36.0772 34.7485 35.0068 35.8189 33.6832 35.8189ZM9.93053 1.88538C9.38309 1.88538 8.93369 2.33477 8.93369 2.88222V33.4248C8.93369 33.9722 9.38309 34.4216 9.93053 34.4216H33.6832C34.2306 34.4216 34.68 33.9722 34.68 33.4248V2.88222C34.68 2.33477 34.2306 1.88538 33.6832 1.88538H9.93053Z" fill="#231F20"/>
</svg>
