<svg width="19" height="20" viewBox="0 0 19 20" fill="none" xmlns="http://www.w3.org/2000/svg">
<path d="M18.5227 8.97717L1.27199 0.351795C1.13678 0.284177 0.984909 0.257084 0.834661 0.273778C0.684414 0.290472 0.542196 0.350242 0.42513 0.44589C0.313333 0.539587 0.229888 0.662611 0.184176 0.801133C0.138463 0.939654 0.132297 1.08818 0.166369 1.23001L2.48738 9.67504L0.135004 18.0965C0.103032 18.215 0.0993 18.3393 0.124108 18.4594C0.148915 18.5796 0.20157 18.6922 0.277839 18.7883C0.354108 18.8844 0.451861 18.9613 0.563241 19.0127C0.67462 19.0642 0.796516 19.0888 0.919129 19.0845C1.04188 19.0838 1.16274 19.0543 1.27199 18.9983L18.5227 10.3729C18.6512 10.3071 18.759 10.2071 18.8342 10.084C18.9095 9.96088 18.9493 9.81936 18.9493 9.67504C18.9493 9.53073 18.9095 9.38921 18.8342 9.26608C18.759 9.14295 18.6512 9.04297 18.5227 8.97717ZM2.13452 16.8184L3.86744 10.4592H11.1128V8.89092H3.86744L2.13452 2.53166L16.4134 9.67504L2.13452 16.8184Z" fill="black"/>
</svg>
