<svg width="29" height="37" viewBox="0 0 29 37" fill="none" xmlns="http://www.w3.org/2000/svg">
<path d="M14.408 9.06307C13.7997 9.06307 13.1915 8.82789 12.7292 8.36563L9.36365 5.00004C8.91761 4.554 8.66622 3.95389 8.66622 3.32133C8.66622 2.00753 9.7286 0.945129 11.0424 0.945129H17.7817C19.0954 0.945129 20.1578 2.01564 20.1578 3.32133C20.1578 3.95389 19.9064 4.554 19.4604 5.00004L16.0948 8.36563C15.6244 8.82789 15.0162 9.06307 14.408 9.06307ZM11.0424 2.32381C10.499 2.32381 10.053 2.76985 10.053 3.31321C10.053 3.57272 10.1584 3.82411 10.345 4.01064L13.7105 7.37624C14.0998 7.7574 14.7242 7.76551 15.1135 7.37624L18.4791 4.01064C18.6656 3.82411 18.771 3.57272 18.771 3.31321C18.771 2.76985 18.325 2.32381 17.7817 2.32381H11.0424Z" fill="#231F20"/>
<path d="M2.53509 36.0039C1.23752 35.939 0.248116 34.8928 0.248116 33.6277V3.31318C0.248116 1.99939 1.3105 0.937012 2.62429 0.937012H26.1995C27.5133 0.937012 28.5757 2.0075 28.5757 3.31318V33.6277C28.5757 34.8928 27.5863 35.939 26.3212 36.0039H2.53509ZM2.62429 2.32378C2.08093 2.32378 1.63489 2.76982 1.63489 3.31318V33.6277C1.63489 34.1548 2.04849 34.5928 2.57563 34.6171H26.2888C26.7835 34.5928 27.1889 34.1548 27.1889 33.6277V3.31318C27.1889 2.76982 26.7429 2.32378 26.1995 2.32378H2.62429Z" fill="#231F20"/>
<path d="M17.7814 15.8023H4.31099C3.92983 15.8023 3.62165 15.4941 3.62165 15.113C3.62165 14.7318 3.92983 14.4236 4.31099 14.4236H17.7814C18.1625 14.4236 18.4707 14.7318 18.4707 15.113C18.4707 15.486 18.1625 15.8023 17.7814 15.8023Z" fill="#231F20"/>
<path d="M24.5128 22.5335H4.30309C3.92192 22.5335 3.61375 22.2253 3.61375 21.8441C3.61375 21.463 3.92192 21.1548 4.30309 21.1548H24.5128C24.8939 21.1548 25.2021 21.463 25.2021 21.8441C25.2102 22.2253 24.8939 22.5335 24.5128 22.5335Z" fill="#231F20"/>
<path d="M24.5128 29.2727H4.30309C3.92192 29.2727 3.61375 28.9645 3.61375 28.5834C3.61375 28.2022 3.92192 27.894 4.30309 27.894H24.5128C24.8939 27.894 25.2021 28.2022 25.2021 28.5834C25.2102 28.9645 24.8939 29.2727 24.5128 29.2727Z" fill="#231F20"/>
</svg>
