<svg width="855" height="664" viewBox="0 0 855 664" fill="none" xmlns="http://www.w3.org/2000/svg">
<path d="M702.16 387.087L660.965 448.844L711.529 395.302L705.676 470.879L723.431 397.536L754.576 466.732L734.728 393.335L794.473 437.521L742.417 383.673L814.809 391.048L744.397 371.192L809.944 339.865L740.185 359.296L781.38 297.539L730.816 351.081L736.555 275.513L718.852 348.792L687.706 279.596L707.503 353.058L647.758 308.871L699.814 362.719L627.473 355.28L697.885 375.136L632.287 406.527L702.16 387.087Z" stroke="#221F1F" stroke-width="2.1198" stroke-miterlimit="10" stroke-linecap="round" stroke-linejoin="round"/>
<path d="M428.553 185.423L373.107 98.8774C372.371 97.1741 376.799 93.4528 382.981 90.5668C389.162 87.6809 394.773 86.7153 395.499 88.397L450.769 174.649" fill="white"/>
<path d="M420.618 189.263L439.816 219.294L582.34 441.706C584.54 445.136 587.837 447.633 591.639 448.749C595.441 449.864 599.499 449.525 603.083 447.792L659.379 420.625L683.234 409.114C685.535 408.122 687.371 406.225 688.347 403.83L688.471 403.494C690.805 396.724 685.619 387.578 684.012 384.898L683.887 384.703C683.659 384.334 683.524 384.139 683.524 384.139L526.023 138.314L420.618 189.263Z" fill="#FF7A00"/>
<path d="M403.516 236.838L565.31 489.291C567.509 492.723 570.805 495.223 574.607 496.34C578.409 497.458 582.468 497.12 586.053 495.388L666.588 456.472C668.814 455.396 670.546 453.448 671.41 451.047L674.086 443.561L687.123 407.216L683.223 409.093L659.369 420.604L603.114 447.792C599.53 449.525 595.472 449.864 591.67 448.749C587.868 447.633 584.571 445.136 582.371 441.706L439.816 219.294L420.577 189.263L403.516 236.838Z" fill="#DA1A3D"/>
<path d="M420.618 189.263L439.816 219.294L582.34 441.706C584.54 445.136 587.837 447.633 591.639 448.749C595.441 449.864 599.499 449.525 603.083 447.792L659.379 420.625L683.234 409.114C685.535 408.122 687.371 406.225 688.347 403.83L688.471 403.494C690.805 396.724 685.619 387.578 684.012 384.898L683.887 384.703C683.659 384.334 683.524 384.139 683.524 384.139L526.023 138.314L420.618 189.263Z" stroke="black" stroke-width="1.37" stroke-linejoin="round"/>
<path d="M442.451 223.341L455.851 244.248L560.987 408.333L666.392 357.396L561.256 193.299L547.856 172.393L539.279 176.537L451.028 219.197L442.451 223.341Z" fill="white"/>
<path d="M442.451 223.341L455.851 244.248L560.987 408.333L666.392 357.396L561.256 193.299L547.856 172.393L539.279 176.537L451.028 219.197L442.451 223.341Z" stroke="black" stroke-width="1.37" stroke-linejoin="round"/>
<path d="M666.391 357.396L560.986 408.333L582.382 441.727C584.582 445.158 587.879 447.655 591.681 448.771C595.483 449.886 599.54 449.547 603.125 447.814L659.379 420.625L683.234 409.114C685.535 408.122 687.371 406.225 688.347 403.831L688.471 403.494C690.805 396.724 685.619 387.578 684.012 384.899L683.887 384.703C683.659 384.334 683.524 384.139 683.524 384.139L666.391 357.396Z" fill="#FF7A00"/>
<path d="M666.391 357.396L560.986 408.333L582.382 441.727C584.582 445.158 587.879 447.655 591.681 448.771C595.483 449.886 599.54 449.547 603.125 447.814L659.379 420.625L683.234 409.114C685.535 408.122 687.371 406.225 688.347 403.831L688.471 403.494C690.805 396.724 685.619 387.578 684.012 384.899L683.887 384.703C683.659 384.334 683.524 384.139 683.524 384.139L666.391 357.396Z" stroke="black" stroke-width="1.37" stroke-linejoin="round"/>
<path d="M512.707 315.452L546.715 368.527C549.225 372.447 552.888 375.405 557.15 376.952C561.411 378.498 566.039 378.55 570.331 377.098L598.333 370.415C603.388 369.216 608.078 366.722 611.982 363.157L625.818 350.474C630.368 347.262 633.516 342.294 634.572 336.659C635.627 331.024 634.505 325.181 631.45 320.41L600.957 272.803L512.707 315.452Z" stroke="black" stroke-width="1.37" stroke-linejoin="round"/>
<path d="M464.428 240.103L484.58 271.566L511.141 279.367L560.333 255.585L569.076 223.037L552.679 197.443L464.428 240.103Z" fill="#FF7A00"/>
<path d="M464.428 240.103L484.58 271.566L511.141 279.367L560.333 255.585L569.076 223.037L552.679 197.443L464.428 240.103Z" stroke="black" stroke-width="1.37" stroke-linejoin="round"/>
<path d="M683.223 409.092L687.122 407.215L688.336 403.809C687.36 406.203 685.523 408.1 683.223 409.092V409.092Z" stroke="black" stroke-width="1.37" stroke-miterlimit="10"/>
<path d="M403.516 236.838L449.835 309.029L525.899 427.786L565.31 489.291C567.509 492.723 570.805 495.223 574.607 496.34C578.409 497.458 582.468 497.12 586.053 495.388L666.588 456.472C668.814 455.396 670.546 453.448 671.41 451.047L674.086 443.561L687.123 407.216L683.223 409.093L659.369 420.604L603.114 447.792C599.53 449.525 595.472 449.864 591.67 448.749C587.868 447.633 584.571 445.136 582.371 441.706L439.816 219.294L420.577 189.263L403.516 236.838Z" stroke="black" stroke-width="1.37" stroke-linejoin="round"/>
<path d="M576.833 489.54L590.005 452.826" stroke="#720E28" stroke-width="1.37" stroke-miterlimit="10"/>
<path d="M499.463 151.15L479.166 119.47L495.574 111.528L515.881 143.219L499.463 151.15Z" fill="white"/>
<path d="M479.166 119.469L473.171 136.188L486.706 157.323L499.463 151.149L479.166 119.469Z" fill="white"/>
<path d="M499.463 151.15L479.166 119.47L495.574 111.528L515.881 143.219L499.463 151.15Z" stroke="black" stroke-width="1.37" stroke-linejoin="round"/>
<path d="M479.166 119.469L473.171 136.188L486.706 157.323L499.463 151.149L479.166 119.469Z" stroke="black" stroke-width="1.37" stroke-linejoin="round"/>
<path d="M491.57 113.47L495.397 120.435" stroke="black" stroke-width="1.37" stroke-linejoin="round"/>
<path d="M483.937 117.158L488.656 123.331" stroke="black" stroke-width="1.37" stroke-linejoin="round"/>
<path d="M449.835 309.029L525.899 427.786L531.22 412.944C533.076 407.766 533.725 402.2 533.114 396.708C532.502 391.215 530.648 385.954 527.704 381.362L466.678 286.115C466.157 285.295 465.429 284.642 464.575 284.227C463.721 283.813 462.775 283.653 461.839 283.765C460.904 283.877 460.017 284.257 459.275 284.863C458.533 285.469 457.965 286.278 457.634 287.2L449.835 309.029Z" fill="#FF7A00"/>
<path d="M428.553 185.423L373.107 98.8774C372.371 97.1741 376.799 93.4528 382.981 90.5668C389.162 87.6809 394.773 86.7153 395.499 88.397L450.769 174.649" stroke="black" stroke-width="1.37" stroke-linejoin="round"/>
<path d="M382.493 98.8774L435.72 181.951" stroke="black" stroke-width="1.37" stroke-linejoin="round"/>
<path d="M388.113 88.5488L390.52 92.3018" stroke="black" stroke-width="1.37" stroke-linejoin="round"/>
<path d="M382.482 90.7944L386.236 96.3276" stroke="black" stroke-width="1.37" stroke-linejoin="round"/>
<path d="M449.835 309.029L525.899 427.786L531.22 412.944C533.076 407.766 533.725 402.2 533.114 396.708C532.502 391.215 530.648 385.954 527.704 381.362L466.678 286.115C466.157 285.295 465.429 284.642 464.575 284.227C463.721 283.813 462.775 283.653 461.839 283.765C460.904 283.877 460.017 284.257 459.275 284.863C458.533 285.469 457.965 286.278 457.634 287.2L449.835 309.029Z" stroke="black" stroke-width="1.37" stroke-miterlimit="10"/>
<path d="M664.69 376.089C664.852 376.319 664.963 376.585 665.013 376.867C665.063 377.148 665.051 377.438 664.978 377.714C664.905 377.99 664.773 378.245 664.592 378.46C664.411 378.674 664.185 378.843 663.933 378.953C663.373 379.197 662.751 379.231 662.17 379.049C661.59 378.867 661.088 378.48 660.749 377.955C660.586 377.724 660.476 377.458 660.427 377.175C660.378 376.893 660.391 376.603 660.465 376.327C660.539 376.051 660.672 375.796 660.854 375.582C661.036 375.368 661.263 375.2 661.516 375.091C662.074 374.85 662.695 374.818 663.273 375C663.851 375.181 664.351 375.566 664.69 376.089Z" fill="white"/>
<path d="M654.993 380.635C655.155 380.866 655.265 381.132 655.314 381.414C655.364 381.696 655.351 381.986 655.277 382.262C655.203 382.538 655.07 382.793 654.888 383.007C654.705 383.222 654.479 383.39 654.226 383.499C653.665 383.743 653.04 383.777 652.458 383.596C651.876 383.414 651.372 383.027 651.031 382.501C650.869 382.269 650.759 382.001 650.71 381.719C650.66 381.436 650.673 381.145 650.747 380.868C650.821 380.591 650.954 380.336 651.136 380.12C651.318 379.905 651.545 379.736 651.799 379.626C652.361 379.384 652.985 379.353 653.567 379.537C654.149 379.72 654.652 380.108 654.993 380.635Z" fill="white"/>
<path d="M645.244 385.278C645.406 385.51 645.516 385.777 645.565 386.06C645.615 386.343 645.602 386.634 645.528 386.911C645.454 387.187 645.321 387.443 645.139 387.658C644.957 387.874 644.73 388.043 644.476 388.153C643.912 388.397 643.285 388.431 642.7 388.249C642.115 388.068 641.607 387.681 641.261 387.155C641.099 386.922 640.989 386.654 640.94 386.37C640.891 386.087 640.903 385.795 640.977 385.518C641.051 385.24 641.184 384.983 641.366 384.767C641.548 384.551 641.775 384.381 642.029 384.269C642.595 384.03 643.221 384 643.806 384.183C644.39 384.367 644.897 384.753 645.244 385.278Z" fill="white"/>
<path d="M635.443 389.9C635.605 390.133 635.714 390.402 635.763 390.686C635.811 390.971 635.797 391.262 635.723 391.54C635.648 391.818 635.514 392.074 635.33 392.29C635.147 392.506 634.92 392.675 634.665 392.786C634.099 393.033 633.47 393.068 632.882 392.886C632.295 392.704 631.785 392.317 631.439 391.788C631.277 391.554 631.168 391.285 631.119 391.001C631.071 390.717 631.084 390.425 631.159 390.148C631.234 389.87 631.368 389.613 631.551 389.398C631.735 389.182 631.962 389.012 632.217 388.902C632.783 388.657 633.412 388.623 633.999 388.804C634.586 388.986 635.095 389.373 635.443 389.9Z" fill="white"/>
<path d="M625.601 394.554C625.763 394.789 625.872 395.058 625.921 395.343C625.969 395.628 625.956 395.921 625.881 396.199C625.806 396.478 625.672 396.735 625.489 396.952C625.306 397.169 625.078 397.339 624.823 397.451C624.254 397.695 623.622 397.729 623.032 397.548C622.442 397.367 621.929 396.98 621.577 396.453C621.413 396.218 621.301 395.948 621.252 395.662C621.202 395.376 621.215 395.082 621.29 394.802C621.365 394.522 621.5 394.263 621.684 394.045C621.869 393.828 622.098 393.657 622.355 393.545C622.924 393.3 623.557 393.267 624.148 393.45C624.739 393.634 625.251 394.024 625.601 394.554Z" fill="white"/>
<path d="M615.696 399.22C615.86 399.454 615.971 399.725 616.02 400.011C616.07 400.297 616.057 400.591 615.982 400.871C615.907 401.151 615.772 401.41 615.588 401.627C615.404 401.845 615.174 402.016 614.918 402.127C614.346 402.377 613.71 402.414 613.115 402.233C612.521 402.051 612.004 401.661 611.651 401.129C611.487 400.894 611.376 400.623 611.327 400.336C611.279 400.049 611.293 399.755 611.369 399.475C611.444 399.195 611.58 398.936 611.766 398.719C611.951 398.502 612.181 398.332 612.439 398.222C613.009 397.977 613.643 397.942 614.235 398.123C614.826 398.305 615.342 398.691 615.696 399.22Z" fill="white"/>
<path d="M605.759 403.918C605.922 404.153 606.033 404.424 606.082 404.711C606.131 404.997 606.117 405.292 606.041 405.572C605.965 405.852 605.829 406.11 605.644 406.328C605.458 406.545 605.228 406.715 604.97 406.825C604.398 407.075 603.762 407.113 603.166 406.933C602.57 406.754 602.051 406.368 601.693 405.838C601.527 405.603 601.414 405.332 601.363 405.044C601.313 404.757 601.325 404.461 601.4 404.18C601.475 403.898 601.611 403.639 601.796 403.42C601.982 403.202 602.212 403.03 602.471 402.919C603.046 402.67 603.685 402.633 604.282 402.815C604.88 402.996 605.4 403.385 605.759 403.918Z" fill="white"/>
<path d="M595.762 408.637C595.926 408.873 596.037 409.145 596.086 409.432C596.135 409.72 596.121 410.015 596.045 410.296C595.969 410.577 595.833 410.836 595.648 411.054C595.462 411.272 595.232 411.444 594.974 411.555C594.399 411.804 593.759 411.842 593.161 411.663C592.562 411.484 592.039 411.098 591.676 410.568C591.508 410.332 591.394 410.059 591.343 409.77C591.292 409.481 591.305 409.183 591.381 408.9C591.457 408.617 591.595 408.356 591.782 408.138C591.97 407.919 592.203 407.748 592.464 407.639C593.041 407.389 593.681 407.351 594.281 407.533C594.88 407.714 595.403 408.103 595.762 408.637Z" fill="white"/>
<path d="M585.71 413.378C585.878 413.614 585.991 413.888 586.042 414.178C586.092 414.467 586.078 414.765 586.001 415.049C585.924 415.332 585.785 415.592 585.596 415.811C585.408 416.029 585.173 416.199 584.911 416.307C584.335 416.559 583.693 416.599 583.092 416.419C582.491 416.24 581.966 415.852 581.603 415.32C581.435 415.083 581.322 414.808 581.272 414.518C581.221 414.227 581.235 413.929 581.312 413.645C581.389 413.361 581.527 413.099 581.716 412.88C581.905 412.661 582.14 412.49 582.402 412.38C582.98 412.129 583.622 412.091 584.223 412.273C584.824 412.454 585.349 412.844 585.71 413.378Z" fill="white"/>
<path d="M668.455 382.11C668.615 382.342 668.723 382.609 668.772 382.89C668.82 383.172 668.806 383.461 668.732 383.736C668.659 384.012 668.526 384.266 668.345 384.481C668.164 384.695 667.939 384.864 667.687 384.975C667.129 385.213 666.509 385.245 665.932 385.063C665.354 384.881 664.853 384.498 664.514 383.976C664.353 383.746 664.244 383.48 664.195 383.199C664.147 382.918 664.159 382.629 664.232 382.353C664.305 382.078 664.436 381.823 664.616 381.609C664.796 381.394 665.02 381.224 665.271 381.112C665.831 380.873 666.452 380.841 667.031 381.023C667.611 381.204 668.113 381.588 668.455 382.11Z" fill="white"/>
<path d="M658.767 386.699C658.928 386.932 659.036 387.199 659.084 387.481C659.132 387.764 659.119 388.054 659.045 388.33C658.971 388.606 658.839 388.861 658.658 389.077C658.477 389.292 658.252 389.462 658 389.574C657.438 389.813 656.816 389.844 656.235 389.662C655.654 389.481 655.15 389.098 654.805 388.576C654.645 388.344 654.537 388.076 654.489 387.794C654.441 387.512 654.454 387.222 654.528 386.945C654.601 386.669 654.734 386.414 654.915 386.199C655.095 385.983 655.32 385.813 655.573 385.701C656.134 385.461 656.757 385.429 657.338 385.61C657.92 385.792 658.424 386.176 658.767 386.699Z" fill="white"/>
<path d="M649.039 391.311C649.202 391.543 649.312 391.81 649.362 392.093C649.412 392.376 649.4 392.667 649.327 392.945C649.255 393.222 649.123 393.479 648.942 393.696C648.761 393.913 648.535 394.084 648.282 394.196C647.718 394.44 647.091 394.474 646.506 394.293C645.921 394.111 645.413 393.725 645.067 393.198C644.905 392.965 644.796 392.696 644.747 392.412C644.699 392.128 644.712 391.836 644.787 391.558C644.862 391.28 644.996 391.024 645.179 390.808C645.363 390.592 645.59 390.423 645.845 390.312C646.407 390.076 647.029 390.046 647.609 390.227C648.189 390.409 648.693 390.791 649.039 391.311Z" fill="white"/>
<path d="M639.259 395.954C639.421 396.187 639.531 396.456 639.579 396.74C639.627 397.024 639.614 397.316 639.539 397.594C639.464 397.872 639.33 398.128 639.147 398.344C638.964 398.56 638.736 398.729 638.481 398.84C637.917 399.084 637.29 399.117 636.705 398.936C636.12 398.754 635.612 398.368 635.266 397.841C635.102 397.609 634.99 397.341 634.94 397.057C634.889 396.773 634.902 396.481 634.976 396.202C635.05 395.924 635.184 395.667 635.367 395.451C635.55 395.235 635.778 395.066 636.034 394.956C636.599 394.711 637.228 394.676 637.815 394.858C638.402 395.04 638.912 395.426 639.259 395.954Z" fill="white"/>
<path d="M629.428 400.608C629.592 400.842 629.703 401.112 629.753 401.397C629.802 401.683 629.789 401.976 629.714 402.255C629.639 402.534 629.504 402.792 629.32 403.009C629.136 403.225 628.907 403.395 628.65 403.505C628.084 403.752 627.454 403.788 626.866 403.609C626.277 403.429 625.765 403.044 625.414 402.518C625.25 402.283 625.139 402.013 625.089 401.727C625.04 401.441 625.053 401.146 625.128 400.866C625.203 400.586 625.338 400.328 625.522 400.11C625.706 399.893 625.935 399.722 626.192 399.61C626.759 399.365 627.39 399.33 627.979 399.512C628.567 399.693 629.079 400.08 629.428 400.608Z" fill="white"/>
<path d="M619.553 405.295C619.717 405.529 619.828 405.799 619.878 406.084C619.927 406.37 619.914 406.663 619.839 406.942C619.764 407.221 619.629 407.479 619.445 407.696C619.261 407.912 619.032 408.082 618.775 408.192C618.206 408.442 617.573 408.481 616.98 408.301C616.387 408.121 615.871 407.734 615.519 407.205C615.354 406.97 615.243 406.7 615.194 406.414C615.144 406.128 615.157 405.833 615.232 405.553C615.307 405.273 615.442 405.015 615.626 404.797C615.81 404.58 616.04 404.409 616.296 404.297C616.867 404.05 617.5 404.015 618.093 404.196C618.685 404.378 619.2 404.766 619.553 405.295Z" fill="white"/>
<path d="M609.628 409.993C609.791 410.229 609.902 410.501 609.951 410.789C610 411.076 609.986 411.371 609.91 411.652C609.834 411.933 609.698 412.192 609.513 412.411C609.327 412.629 609.097 412.8 608.839 412.912C608.269 413.16 607.634 413.198 607.04 413.019C606.446 412.839 605.928 412.453 605.572 411.924C605.406 411.689 605.294 411.418 605.243 411.131C605.192 410.843 605.205 410.548 605.28 410.266C605.355 409.985 605.49 409.725 605.676 409.507C605.861 409.288 606.092 409.117 606.35 409.006C606.922 408.756 607.559 408.718 608.155 408.898C608.75 409.077 609.27 409.463 609.628 409.993Z" fill="white"/>
<path d="M599.652 414.724C599.816 414.96 599.926 415.232 599.975 415.519C600.024 415.807 600.01 416.102 599.934 416.383C599.858 416.664 599.723 416.923 599.537 417.141C599.352 417.359 599.122 417.53 598.864 417.642C598.291 417.896 597.651 417.937 597.053 417.757C596.454 417.578 595.933 417.188 595.576 416.655C595.41 416.419 595.298 416.147 595.248 415.859C595.198 415.571 595.211 415.275 595.288 414.994C595.364 414.712 595.5 414.453 595.687 414.235C595.873 414.017 596.105 413.846 596.364 413.736C596.938 413.488 597.576 413.45 598.173 413.63C598.77 413.809 599.291 414.195 599.652 414.724Z" fill="white"/>
<path d="M589.621 419.475C589.789 419.711 589.903 419.984 589.954 420.273C590.005 420.562 589.992 420.86 589.916 421.143C589.84 421.426 589.702 421.687 589.514 421.906C589.327 422.125 589.093 422.295 588.833 422.405C588.256 422.659 587.614 422.699 587.012 422.52C586.411 422.34 585.886 421.951 585.524 421.418C585.358 421.18 585.247 420.907 585.197 420.618C585.148 420.328 585.163 420.031 585.24 419.749C585.317 419.466 585.454 419.206 585.642 418.988C585.829 418.769 586.062 418.598 586.323 418.488C586.898 418.239 587.537 418.201 588.136 418.38C588.735 418.56 589.258 418.946 589.621 419.475Z" fill="white"/>
<path d="M662.533 392.721C662.695 392.951 662.806 393.217 662.856 393.499C662.905 393.78 662.893 394.07 662.82 394.346C662.748 394.622 662.616 394.877 662.434 395.091C662.253 395.306 662.028 395.475 661.775 395.585C661.217 395.828 660.596 395.862 660.016 395.683C659.436 395.503 658.933 395.12 658.591 394.598C658.429 394.367 658.318 394.1 658.268 393.818C658.219 393.535 658.231 393.245 658.303 392.968C658.376 392.692 658.508 392.436 658.689 392.22C658.87 392.004 659.096 391.834 659.349 391.723C659.908 391.479 660.531 391.445 661.111 391.627C661.691 391.809 662.194 392.196 662.533 392.721Z" fill="white"/>
<path d="M652.826 397.342C652.988 397.574 653.098 397.842 653.147 398.124C653.197 398.407 653.184 398.698 653.11 398.975C653.036 399.252 652.903 399.507 652.721 399.723C652.539 399.938 652.312 400.107 652.059 400.217C651.497 400.46 650.873 400.494 650.29 400.314C649.707 400.135 649.2 399.752 648.854 399.23C648.693 398.997 648.585 398.729 648.537 398.445C648.489 398.162 648.502 397.872 648.576 397.595C648.649 397.318 648.782 397.061 648.963 396.845C649.143 396.629 649.369 396.458 649.621 396.344C650.184 396.101 650.809 396.068 651.393 396.249C651.976 396.431 652.482 396.817 652.826 397.342Z" fill="white"/>
<path d="M643.097 401.986C643.259 402.22 643.368 402.489 643.417 402.773C643.465 403.057 643.452 403.349 643.377 403.627C643.302 403.904 643.168 404.161 642.985 404.376C642.801 404.592 642.574 404.762 642.319 404.872C641.756 405.117 641.13 405.153 640.545 404.973C639.96 404.793 639.451 404.409 639.104 403.885C638.942 403.651 638.832 403.383 638.784 403.098C638.735 402.814 638.749 402.522 638.824 402.245C638.899 401.967 639.033 401.711 639.216 401.495C639.399 401.279 639.627 401.109 639.882 400.999C640.445 400.754 641.071 400.718 641.656 400.898C642.241 401.078 642.75 401.462 643.097 401.986Z" fill="white"/>
<path d="M633.255 406.673C633.417 406.908 633.527 407.177 633.575 407.462C633.624 407.747 633.61 408.04 633.535 408.318C633.46 408.597 633.326 408.854 633.143 409.071C632.96 409.288 632.732 409.458 632.477 409.57C631.913 409.818 631.284 409.855 630.697 409.675C630.11 409.495 629.599 409.11 629.252 408.583C629.088 408.349 628.977 408.079 628.927 407.794C628.877 407.509 628.891 407.215 628.965 406.936C629.04 406.657 629.175 406.399 629.36 406.182C629.544 405.966 629.773 405.796 630.03 405.686C630.594 405.442 631.222 405.407 631.808 405.587C632.395 405.766 632.905 406.149 633.255 406.673Z" fill="white"/>
<path d="M623.391 411.349C623.553 411.584 623.662 411.853 623.711 412.138C623.759 412.423 623.746 412.716 623.671 412.994C623.596 413.273 623.462 413.53 623.279 413.747C623.096 413.963 622.868 414.134 622.613 414.246C622.045 414.497 621.412 414.537 620.82 414.359C620.227 414.182 619.711 413.797 619.356 413.269C619.192 413.035 619.081 412.764 619.032 412.478C618.982 412.192 618.995 411.898 619.07 411.618C619.145 411.338 619.28 411.079 619.464 410.862C619.648 410.644 619.877 410.473 620.134 410.362C620.703 410.112 621.337 410.073 621.929 410.253C622.522 410.433 623.038 410.82 623.391 411.349Z" fill="white"/>
<path d="M613.486 416.068C613.65 416.303 613.761 416.574 613.81 416.86C613.86 417.146 613.847 417.44 613.772 417.72C613.697 418 613.562 418.258 613.378 418.476C613.194 418.694 612.964 418.865 612.708 418.976C612.137 419.225 611.502 419.263 610.908 419.083C610.314 418.904 609.797 418.518 609.441 417.989C609.277 417.753 609.166 417.482 609.117 417.196C609.069 416.909 609.083 416.614 609.159 416.334C609.234 416.054 609.37 415.796 609.556 415.579C609.741 415.362 609.971 415.191 610.229 415.081C610.798 414.831 611.432 414.793 612.024 414.972C612.617 415.152 613.133 415.539 613.486 416.068Z" fill="white"/>
<path d="M603.529 420.777C603.695 421.011 603.807 421.282 603.858 421.569C603.909 421.855 603.896 422.15 603.821 422.431C603.746 422.711 603.611 422.97 603.425 423.188C603.239 423.405 603.009 423.575 602.751 423.685C602.179 423.94 601.54 423.983 600.942 423.805C600.343 423.627 599.821 423.24 599.463 422.709C599.299 422.472 599.189 422.2 599.14 421.913C599.091 421.626 599.105 421.33 599.181 421.049C599.257 420.769 599.392 420.509 599.578 420.291C599.763 420.073 599.993 419.902 600.251 419.79C600.823 419.539 601.46 419.499 602.056 419.679C602.653 419.858 603.172 420.246 603.529 420.777Z" fill="white"/>
<path d="M656.579 403.353C656.742 403.584 656.852 403.851 656.902 404.133C656.952 404.415 656.94 404.706 656.867 404.983C656.795 405.259 656.663 405.515 656.482 405.731C656.301 405.947 656.075 406.117 655.822 406.228C655.262 406.473 654.638 406.51 654.055 406.333C653.472 406.155 652.964 405.773 652.618 405.252C652.457 405.017 652.35 404.749 652.302 404.465C652.255 404.181 652.269 403.89 652.344 403.613C652.418 403.336 652.552 403.08 652.734 402.864C652.916 402.648 653.142 402.478 653.395 402.366C653.954 402.123 654.575 402.089 655.155 402.268C655.735 402.448 656.238 402.831 656.579 403.353Z" fill="white"/>
<path d="M646.862 408.008C647.024 408.241 647.134 408.509 647.184 408.792C647.233 409.076 647.22 409.367 647.146 409.645C647.072 409.923 646.939 410.179 646.757 410.396C646.575 410.612 646.349 410.782 646.095 410.894C645.533 411.142 644.907 411.18 644.321 411.002C643.736 410.825 643.227 410.441 642.879 409.917C642.717 409.684 642.608 409.415 642.559 409.131C642.511 408.847 642.525 408.555 642.6 408.277C642.674 407.999 642.808 407.743 642.992 407.527C643.175 407.311 643.402 407.142 643.657 407.031C644.217 406.784 644.842 406.746 645.426 406.924C646.009 407.102 646.517 407.485 646.862 408.008Z" fill="white"/>
<path d="M637.071 412.694C637.233 412.927 637.343 413.195 637.393 413.479C637.442 413.762 637.429 414.054 637.355 414.332C637.281 414.609 637.148 414.866 636.966 415.082C636.784 415.298 636.558 415.469 636.304 415.58C635.741 415.831 635.112 415.871 634.525 415.693C633.937 415.515 633.426 415.13 633.078 414.604C632.914 414.371 632.802 414.102 632.752 413.817C632.702 413.532 632.714 413.239 632.788 412.96C632.862 412.681 632.995 412.423 633.179 412.206C633.362 411.989 633.59 411.818 633.846 411.707C634.41 411.461 635.038 411.425 635.625 411.605C636.212 411.784 636.722 412.169 637.071 412.694Z" fill="white"/>
<path d="M627.238 417.393C627.401 417.627 627.51 417.897 627.558 418.181C627.607 418.466 627.593 418.759 627.519 419.037C627.444 419.316 627.31 419.573 627.127 419.79C626.943 420.007 626.716 420.177 626.461 420.289C625.894 420.54 625.263 420.579 624.672 420.402C624.082 420.224 623.567 419.84 623.214 419.313C623.05 419.079 622.939 418.809 622.89 418.524C622.84 418.239 622.853 417.945 622.928 417.666C623.003 417.387 623.138 417.129 623.322 416.913C623.507 416.696 623.736 416.526 623.992 416.416C624.558 416.166 625.19 416.126 625.78 416.304C626.371 416.481 626.886 416.866 627.238 417.393Z" fill="white"/>
<path d="M617.344 422.122C617.508 422.357 617.619 422.628 617.669 422.914C617.718 423.2 617.705 423.494 617.63 423.774C617.555 424.054 617.421 424.313 617.236 424.53C617.052 424.748 616.823 424.919 616.566 425.03C615.998 425.281 615.366 425.321 614.773 425.144C614.18 424.966 613.664 424.581 613.31 424.054C613.145 423.819 613.034 423.548 612.985 423.262C612.935 422.976 612.948 422.682 613.023 422.402C613.098 422.122 613.233 421.864 613.417 421.646C613.601 421.428 613.831 421.258 614.087 421.146C614.655 420.895 615.288 420.855 615.881 421.033C616.473 421.21 616.99 421.595 617.344 422.122Z" fill="white"/>
<path d="M664.69 376.089C664.852 376.319 664.963 376.585 665.013 376.867C665.063 377.148 665.051 377.438 664.978 377.714C664.905 377.99 664.773 378.245 664.592 378.46C664.411 378.674 664.185 378.843 663.933 378.953C663.373 379.197 662.751 379.231 662.17 379.049C661.59 378.867 661.088 378.48 660.749 377.955C660.586 377.724 660.476 377.458 660.427 377.175C660.378 376.893 660.391 376.603 660.465 376.327C660.539 376.051 660.672 375.796 660.854 375.582C661.036 375.368 661.263 375.2 661.516 375.091C662.074 374.85 662.695 374.818 663.273 375C663.851 375.181 664.351 375.566 664.69 376.089V376.089Z" stroke="black" stroke-width="0.75" stroke-linejoin="round"/>
<path d="M654.993 380.635C655.155 380.866 655.265 381.132 655.314 381.414C655.364 381.696 655.351 381.986 655.277 382.262C655.203 382.538 655.07 382.793 654.888 383.007C654.705 383.222 654.479 383.39 654.226 383.499C653.665 383.743 653.04 383.777 652.458 383.596C651.876 383.414 651.372 383.027 651.031 382.501C650.869 382.269 650.759 382.001 650.71 381.719C650.66 381.436 650.673 381.145 650.747 380.868C650.821 380.591 650.954 380.336 651.136 380.12C651.318 379.905 651.545 379.736 651.799 379.626C652.361 379.384 652.985 379.353 653.567 379.537C654.149 379.72 654.652 380.108 654.993 380.635V380.635Z" stroke="black" stroke-width="0.75" stroke-linejoin="round"/>
<path d="M645.244 385.278C645.406 385.51 645.516 385.777 645.565 386.06C645.615 386.343 645.602 386.634 645.528 386.911C645.454 387.187 645.321 387.443 645.139 387.658C644.957 387.874 644.73 388.043 644.476 388.153C643.912 388.397 643.285 388.431 642.7 388.249C642.115 388.068 641.607 387.681 641.261 387.155C641.099 386.922 640.989 386.654 640.94 386.37C640.891 386.087 640.903 385.795 640.977 385.518C641.051 385.24 641.184 384.983 641.366 384.767C641.548 384.551 641.775 384.381 642.029 384.269C642.595 384.03 643.221 384 643.806 384.183C644.39 384.367 644.897 384.753 645.244 385.278V385.278Z" stroke="black" stroke-width="0.75" stroke-linejoin="round"/>
<path d="M635.443 389.9C635.605 390.133 635.714 390.402 635.763 390.686C635.811 390.971 635.797 391.262 635.723 391.54C635.648 391.818 635.514 392.074 635.33 392.29C635.147 392.506 634.92 392.675 634.665 392.786C634.099 393.033 633.47 393.068 632.882 392.886C632.295 392.704 631.785 392.317 631.439 391.788C631.277 391.554 631.168 391.285 631.119 391.001C631.071 390.717 631.084 390.425 631.159 390.148C631.234 389.87 631.368 389.613 631.551 389.398C631.735 389.182 631.962 389.012 632.217 388.902C632.783 388.657 633.412 388.623 633.999 388.804C634.586 388.986 635.095 389.373 635.443 389.9V389.9Z" stroke="black" stroke-width="0.75" stroke-linejoin="round"/>
<path d="M625.601 394.554C625.763 394.789 625.872 395.058 625.921 395.343C625.969 395.628 625.956 395.921 625.881 396.199C625.806 396.478 625.672 396.735 625.489 396.952C625.306 397.169 625.078 397.339 624.823 397.451C624.254 397.695 623.622 397.729 623.032 397.548C622.442 397.367 621.929 396.98 621.577 396.453C621.413 396.218 621.301 395.948 621.252 395.662C621.202 395.376 621.215 395.082 621.29 394.802C621.365 394.522 621.5 394.263 621.684 394.045C621.869 393.828 622.098 393.657 622.355 393.545C622.924 393.3 623.557 393.267 624.148 393.45C624.739 393.634 625.251 394.024 625.601 394.554V394.554Z" stroke="black" stroke-width="0.75" stroke-linejoin="round"/>
<path d="M615.696 399.22C615.86 399.454 615.971 399.725 616.02 400.011C616.07 400.297 616.057 400.591 615.982 400.871C615.907 401.151 615.772 401.41 615.588 401.627C615.404 401.845 615.174 402.016 614.918 402.127C614.346 402.377 613.71 402.414 613.115 402.233C612.521 402.051 612.004 401.661 611.651 401.129C611.487 400.894 611.376 400.623 611.327 400.336C611.279 400.049 611.293 399.755 611.369 399.475C611.444 399.195 611.58 398.936 611.766 398.719C611.951 398.502 612.181 398.332 612.439 398.222C613.009 397.977 613.643 397.942 614.235 398.123C614.826 398.305 615.342 398.691 615.696 399.22V399.22Z" stroke="black" stroke-width="0.75" stroke-linejoin="round"/>
<path d="M605.759 403.918C605.922 404.153 606.033 404.424 606.082 404.711C606.131 404.997 606.117 405.292 606.041 405.572C605.965 405.852 605.829 406.11 605.644 406.328C605.458 406.545 605.228 406.715 604.97 406.825C604.398 407.075 603.762 407.113 603.166 406.933C602.57 406.754 602.051 406.368 601.693 405.838C601.527 405.603 601.414 405.332 601.363 405.044C601.313 404.757 601.325 404.461 601.4 404.18C601.475 403.898 601.611 403.639 601.796 403.42C601.982 403.202 602.212 403.03 602.471 402.919C603.046 402.67 603.685 402.633 604.282 402.815C604.88 402.996 605.4 403.385 605.759 403.918V403.918Z" stroke="black" stroke-width="0.75" stroke-linejoin="round"/>
<path d="M595.762 408.637C595.926 408.873 596.037 409.145 596.086 409.432C596.135 409.72 596.121 410.015 596.045 410.296C595.969 410.577 595.833 410.836 595.648 411.054C595.462 411.272 595.232 411.444 594.974 411.555C594.399 411.804 593.759 411.842 593.161 411.663C592.562 411.484 592.039 411.098 591.676 410.568C591.508 410.332 591.394 410.059 591.343 409.77C591.292 409.481 591.305 409.183 591.381 408.9C591.457 408.617 591.595 408.356 591.782 408.138C591.97 407.919 592.203 407.748 592.464 407.639C593.041 407.389 593.681 407.351 594.281 407.533C594.88 407.714 595.403 408.103 595.762 408.637V408.637Z" stroke="black" stroke-width="0.75" stroke-linejoin="round"/>
<path d="M585.71 413.378C585.878 413.614 585.991 413.888 586.042 414.178C586.092 414.467 586.078 414.765 586.001 415.049C585.924 415.332 585.785 415.592 585.596 415.811C585.408 416.029 585.173 416.199 584.911 416.307C584.335 416.559 583.693 416.599 583.092 416.419C582.491 416.24 581.966 415.852 581.603 415.32C581.435 415.083 581.322 414.808 581.272 414.518C581.221 414.227 581.235 413.929 581.312 413.645C581.389 413.361 581.527 413.099 581.716 412.88C581.905 412.661 582.14 412.49 582.402 412.38C582.98 412.129 583.622 412.091 584.223 412.273C584.824 412.454 585.349 412.844 585.71 413.378V413.378Z" stroke="black" stroke-width="0.75" stroke-linejoin="round"/>
<path d="M668.455 382.11C668.615 382.342 668.723 382.609 668.772 382.89C668.82 383.172 668.806 383.461 668.732 383.736C668.659 384.012 668.526 384.266 668.345 384.481C668.164 384.695 667.939 384.864 667.687 384.975C667.129 385.213 666.509 385.245 665.932 385.063C665.354 384.881 664.853 384.498 664.514 383.976C664.353 383.746 664.244 383.48 664.195 383.199C664.147 382.918 664.159 382.629 664.232 382.353C664.305 382.078 664.436 381.823 664.616 381.609C664.796 381.394 665.02 381.224 665.271 381.112C665.831 380.873 666.452 380.841 667.031 381.023C667.611 381.204 668.113 381.588 668.455 382.11V382.11Z" stroke="black" stroke-width="0.75" stroke-linejoin="round"/>
<path d="M658.767 386.699C658.928 386.932 659.036 387.199 659.084 387.481C659.132 387.764 659.119 388.054 659.045 388.33C658.971 388.606 658.839 388.861 658.658 389.077C658.477 389.292 658.252 389.462 658 389.574C657.438 389.813 656.816 389.844 656.235 389.662C655.654 389.481 655.15 389.098 654.805 388.576C654.645 388.344 654.537 388.076 654.489 387.794C654.441 387.512 654.454 387.222 654.528 386.945C654.601 386.669 654.734 386.414 654.915 386.199C655.095 385.983 655.32 385.813 655.573 385.701C656.134 385.461 656.757 385.429 657.338 385.61C657.92 385.792 658.424 386.176 658.767 386.699V386.699Z" stroke="black" stroke-width="0.75" stroke-linejoin="round"/>
<path d="M649.039 391.311C649.202 391.543 649.312 391.81 649.362 392.093C649.412 392.376 649.4 392.667 649.327 392.945C649.255 393.222 649.123 393.479 648.942 393.696C648.761 393.913 648.535 394.084 648.282 394.196C647.718 394.44 647.091 394.474 646.506 394.293C645.921 394.111 645.413 393.725 645.067 393.198C644.905 392.965 644.796 392.696 644.747 392.412C644.699 392.128 644.712 391.836 644.787 391.558C644.862 391.28 644.996 391.024 645.179 390.808C645.363 390.592 645.59 390.423 645.845 390.312C646.407 390.076 647.029 390.046 647.609 390.227C648.189 390.409 648.693 390.791 649.039 391.311V391.311Z" stroke="black" stroke-width="0.75" stroke-linejoin="round"/>
<path d="M639.259 395.954C639.421 396.187 639.531 396.456 639.579 396.74C639.627 397.024 639.614 397.316 639.539 397.594C639.464 397.872 639.33 398.128 639.147 398.344C638.964 398.56 638.736 398.729 638.481 398.84C637.917 399.084 637.29 399.117 636.705 398.936C636.12 398.754 635.612 398.368 635.266 397.841C635.102 397.609 634.99 397.341 634.94 397.057C634.889 396.773 634.902 396.481 634.976 396.202C635.05 395.924 635.184 395.667 635.367 395.451C635.55 395.235 635.778 395.066 636.034 394.956C636.599 394.711 637.228 394.676 637.815 394.858C638.402 395.04 638.912 395.426 639.259 395.954V395.954Z" stroke="black" stroke-width="0.75" stroke-linejoin="round"/>
<path d="M629.428 400.608C629.592 400.842 629.703 401.112 629.753 401.397C629.802 401.683 629.789 401.976 629.714 402.255C629.639 402.534 629.504 402.792 629.32 403.009C629.136 403.225 628.907 403.395 628.65 403.505C628.084 403.752 627.454 403.788 626.866 403.609C626.277 403.429 625.765 403.044 625.414 402.518C625.25 402.283 625.139 402.013 625.089 401.727C625.04 401.441 625.053 401.146 625.128 400.866C625.203 400.586 625.338 400.328 625.522 400.11C625.706 399.893 625.935 399.722 626.192 399.61C626.759 399.365 627.39 399.33 627.979 399.512C628.567 399.693 629.079 400.08 629.428 400.608V400.608Z" stroke="black" stroke-width="0.75" stroke-linejoin="round"/>
<path d="M619.553 405.295C619.717 405.529 619.828 405.799 619.878 406.084C619.927 406.37 619.914 406.663 619.839 406.942C619.764 407.221 619.629 407.479 619.445 407.696C619.261 407.912 619.032 408.082 618.775 408.192C618.206 408.442 617.573 408.481 616.98 408.301C616.387 408.121 615.871 407.734 615.519 407.205C615.354 406.97 615.243 406.7 615.194 406.414C615.144 406.128 615.157 405.833 615.232 405.553C615.307 405.273 615.442 405.015 615.626 404.797C615.81 404.58 616.04 404.409 616.296 404.297C616.867 404.05 617.5 404.015 618.093 404.196C618.685 404.378 619.2 404.766 619.553 405.295V405.295Z" stroke="black" stroke-width="0.75" stroke-linejoin="round"/>
<path d="M609.628 409.993C609.791 410.229 609.902 410.501 609.951 410.789C610 411.076 609.986 411.371 609.91 411.652C609.834 411.933 609.698 412.192 609.513 412.411C609.327 412.629 609.097 412.8 608.839 412.912C608.269 413.16 607.634 413.198 607.04 413.019C606.446 412.839 605.928 412.453 605.572 411.924C605.406 411.689 605.294 411.418 605.243 411.131C605.192 410.843 605.205 410.548 605.28 410.266C605.355 409.985 605.49 409.725 605.676 409.507C605.861 409.288 606.092 409.117 606.35 409.006C606.922 408.756 607.559 408.718 608.155 408.898C608.75 409.077 609.27 409.463 609.628 409.993V409.993Z" stroke="black" stroke-width="0.75" stroke-linejoin="round"/>
<path d="M599.652 414.724C599.816 414.96 599.926 415.232 599.975 415.519C600.024 415.807 600.01 416.102 599.934 416.383C599.858 416.664 599.723 416.923 599.537 417.141C599.352 417.359 599.122 417.53 598.864 417.642C598.291 417.896 597.651 417.937 597.053 417.757C596.454 417.578 595.933 417.188 595.576 416.655C595.41 416.419 595.298 416.147 595.248 415.859C595.198 415.571 595.211 415.275 595.288 414.994C595.364 414.712 595.5 414.453 595.687 414.235C595.873 414.017 596.105 413.846 596.364 413.736C596.938 413.488 597.576 413.45 598.173 413.63C598.77 413.809 599.291 414.195 599.652 414.724V414.724Z" stroke="black" stroke-width="0.75" stroke-linejoin="round"/>
<path d="M589.621 419.475C589.789 419.711 589.903 419.984 589.954 420.273C590.005 420.562 589.992 420.86 589.916 421.143C589.84 421.426 589.702 421.687 589.514 421.906C589.327 422.125 589.093 422.295 588.833 422.405C588.256 422.659 587.614 422.699 587.012 422.52C586.411 422.34 585.886 421.951 585.524 421.418C585.358 421.18 585.247 420.907 585.197 420.618C585.148 420.328 585.163 420.031 585.24 419.749C585.317 419.466 585.454 419.206 585.642 418.988C585.829 418.769 586.062 418.598 586.323 418.488C586.898 418.239 587.537 418.201 588.136 418.38C588.735 418.56 589.258 418.946 589.621 419.475V419.475Z" stroke="black" stroke-width="0.75" stroke-linejoin="round"/>
<path d="M662.533 392.721C662.695 392.951 662.806 393.217 662.856 393.499C662.905 393.78 662.893 394.07 662.82 394.346C662.748 394.622 662.616 394.877 662.434 395.091C662.253 395.306 662.028 395.475 661.775 395.585C661.217 395.828 660.596 395.862 660.016 395.683C659.436 395.503 658.933 395.12 658.591 394.598C658.429 394.367 658.318 394.1 658.268 393.818C658.219 393.535 658.231 393.245 658.303 392.968C658.376 392.692 658.508 392.436 658.689 392.22C658.87 392.004 659.096 391.834 659.349 391.723C659.908 391.479 660.531 391.445 661.111 391.627C661.691 391.809 662.194 392.196 662.533 392.721V392.721Z" stroke="black" stroke-width="0.75" stroke-linejoin="round"/>
<path d="M652.826 397.342C652.988 397.574 653.098 397.842 653.147 398.124C653.197 398.407 653.184 398.698 653.11 398.975C653.036 399.252 652.903 399.507 652.721 399.723C652.539 399.938 652.312 400.107 652.059 400.217C651.497 400.46 650.873 400.494 650.29 400.314C649.707 400.135 649.2 399.752 648.854 399.23C648.693 398.997 648.585 398.729 648.537 398.445C648.489 398.162 648.502 397.872 648.576 397.595C648.649 397.318 648.782 397.061 648.963 396.845C649.143 396.629 649.369 396.458 649.621 396.344C650.184 396.101 650.809 396.068 651.393 396.249C651.976 396.431 652.482 396.817 652.826 397.342V397.342Z" stroke="black" stroke-width="0.75" stroke-linejoin="round"/>
<path d="M643.097 401.986C643.259 402.22 643.368 402.489 643.417 402.773C643.465 403.057 643.452 403.349 643.377 403.627C643.302 403.904 643.168 404.161 642.985 404.376C642.801 404.592 642.574 404.762 642.319 404.872C641.756 405.117 641.13 405.153 640.545 404.973C639.96 404.793 639.451 404.409 639.104 403.885C638.942 403.651 638.832 403.383 638.784 403.098C638.735 402.814 638.749 402.522 638.824 402.245C638.899 401.967 639.033 401.711 639.216 401.495C639.399 401.279 639.627 401.109 639.882 400.999C640.445 400.754 641.071 400.718 641.656 400.898C642.241 401.078 642.75 401.462 643.097 401.986V401.986Z" stroke="black" stroke-width="0.75" stroke-linejoin="round"/>
<path d="M633.255 406.673C633.417 406.908 633.527 407.177 633.575 407.462C633.624 407.747 633.61 408.04 633.535 408.318C633.46 408.597 633.326 408.854 633.143 409.071C632.96 409.288 632.732 409.458 632.477 409.57C631.913 409.818 631.284 409.855 630.697 409.675C630.11 409.495 629.599 409.11 629.252 408.583C629.088 408.349 628.977 408.079 628.927 407.794C628.877 407.509 628.891 407.215 628.965 406.936C629.04 406.657 629.175 406.399 629.36 406.182C629.544 405.966 629.773 405.796 630.03 405.686C630.594 405.442 631.222 405.407 631.808 405.587C632.395 405.766 632.905 406.149 633.255 406.673V406.673Z" stroke="black" stroke-width="0.75" stroke-linejoin="round"/>
<path d="M623.391 411.349C623.553 411.584 623.662 411.853 623.711 412.138C623.759 412.423 623.746 412.716 623.671 412.994C623.596 413.273 623.462 413.53 623.279 413.747C623.096 413.963 622.868 414.134 622.613 414.246C622.045 414.497 621.412 414.537 620.82 414.359C620.227 414.182 619.711 413.797 619.356 413.269C619.192 413.035 619.081 412.764 619.032 412.478C618.982 412.192 618.995 411.898 619.07 411.618C619.145 411.338 619.28 411.079 619.464 410.862C619.648 410.644 619.877 410.473 620.134 410.362C620.703 410.112 621.337 410.073 621.929 410.253C622.522 410.433 623.038 410.82 623.391 411.349V411.349Z" stroke="black" stroke-width="0.75" stroke-linejoin="round"/>
<path d="M613.486 416.068C613.65 416.303 613.761 416.574 613.81 416.86C613.86 417.146 613.847 417.44 613.772 417.72C613.697 418 613.562 418.258 613.378 418.476C613.194 418.694 612.964 418.865 612.708 418.976C612.137 419.225 611.502 419.263 610.908 419.083C610.314 418.904 609.797 418.518 609.441 417.989C609.277 417.753 609.166 417.482 609.117 417.196C609.069 416.909 609.083 416.614 609.159 416.334C609.234 416.054 609.37 415.796 609.556 415.579C609.741 415.362 609.971 415.191 610.229 415.081C610.798 414.831 611.432 414.793 612.024 414.972C612.617 415.152 613.133 415.539 613.486 416.068V416.068Z" stroke="black" stroke-width="0.75" stroke-linejoin="round"/>
<path d="M603.529 420.777C603.695 421.011 603.807 421.282 603.858 421.569C603.909 421.855 603.896 422.15 603.821 422.431C603.746 422.711 603.611 422.97 603.425 423.188C603.239 423.405 603.009 423.575 602.751 423.685C602.179 423.94 601.54 423.983 600.942 423.805C600.343 423.627 599.821 423.24 599.463 422.709C599.299 422.472 599.189 422.2 599.14 421.913C599.091 421.626 599.105 421.33 599.181 421.049C599.257 420.769 599.392 420.509 599.578 420.291C599.763 420.073 599.993 419.902 600.251 419.79C600.823 419.539 601.46 419.499 602.056 419.679C602.653 419.858 603.172 420.246 603.529 420.777V420.777Z" stroke="black" stroke-width="0.75" stroke-linejoin="round"/>
<path d="M656.579 403.353C656.742 403.584 656.852 403.851 656.902 404.133C656.952 404.415 656.94 404.706 656.867 404.983C656.795 405.259 656.663 405.515 656.482 405.731C656.301 405.947 656.075 406.117 655.822 406.228C655.262 406.473 654.638 406.51 654.055 406.333C653.472 406.155 652.964 405.773 652.618 405.252C652.457 405.017 652.35 404.749 652.302 404.465C652.255 404.181 652.269 403.89 652.344 403.613C652.418 403.336 652.552 403.08 652.734 402.864C652.916 402.648 653.142 402.478 653.395 402.366C653.954 402.123 654.575 402.089 655.155 402.268C655.735 402.448 656.238 402.831 656.579 403.353V403.353Z" stroke="black" stroke-width="0.75" stroke-linejoin="round"/>
<path d="M646.862 408.008C647.024 408.241 647.134 408.509 647.184 408.792C647.233 409.076 647.22 409.367 647.146 409.645C647.072 409.923 646.939 410.179 646.757 410.396C646.575 410.612 646.349 410.782 646.095 410.894C645.533 411.142 644.907 411.18 644.321 411.002C643.736 410.825 643.227 410.441 642.879 409.917C642.717 409.684 642.608 409.415 642.559 409.131C642.511 408.847 642.525 408.555 642.6 408.277C642.674 407.999 642.808 407.743 642.992 407.527C643.175 407.311 643.402 407.142 643.657 407.031C644.217 406.784 644.842 406.746 645.426 406.924C646.009 407.102 646.517 407.485 646.862 408.008V408.008Z" stroke="black" stroke-width="0.75" stroke-linejoin="round"/>
<path d="M637.071 412.694C637.233 412.927 637.343 413.195 637.393 413.479C637.442 413.762 637.429 414.054 637.355 414.332C637.281 414.609 637.148 414.866 636.966 415.082C636.784 415.298 636.558 415.469 636.304 415.58C635.741 415.831 635.112 415.871 634.525 415.693C633.937 415.515 633.426 415.13 633.078 414.604C632.914 414.371 632.802 414.102 632.752 413.817C632.702 413.532 632.714 413.239 632.788 412.96C632.862 412.681 632.995 412.423 633.179 412.206C633.362 411.989 633.59 411.818 633.846 411.707C634.41 411.461 635.038 411.425 635.625 411.605C636.212 411.784 636.722 412.169 637.071 412.694V412.694Z" stroke="black" stroke-width="0.75" stroke-linejoin="round"/>
<path d="M627.238 417.393C627.401 417.627 627.51 417.897 627.558 418.181C627.607 418.466 627.593 418.759 627.519 419.037C627.444 419.316 627.31 419.573 627.127 419.79C626.943 420.007 626.716 420.177 626.461 420.289C625.894 420.54 625.263 420.579 624.672 420.402C624.082 420.224 623.567 419.84 623.214 419.313C623.05 419.079 622.939 418.809 622.89 418.524C622.84 418.239 622.853 417.945 622.928 417.666C623.003 417.387 623.138 417.129 623.322 416.913C623.507 416.696 623.736 416.526 623.992 416.416C624.558 416.166 625.19 416.126 625.78 416.304C626.371 416.481 626.886 416.866 627.238 417.393V417.393Z" stroke="black" stroke-width="0.75" stroke-linejoin="round"/>
<path d="M617.344 422.122C617.508 422.357 617.619 422.628 617.669 422.914C617.718 423.2 617.705 423.494 617.63 423.774C617.555 424.054 617.421 424.313 617.236 424.53C617.052 424.748 616.823 424.919 616.566 425.03C615.998 425.281 615.366 425.321 614.773 425.144C614.18 424.966 613.664 424.581 613.31 424.054C613.145 423.819 613.034 423.548 612.985 423.262C612.935 422.976 612.948 422.682 613.023 422.402C613.098 422.122 613.233 421.864 613.417 421.646C613.601 421.428 613.831 421.258 614.087 421.146C614.655 420.895 615.288 420.855 615.881 421.033C616.473 421.21 616.99 421.595 617.344 422.122V422.122Z" stroke="black" stroke-width="0.75" stroke-linejoin="round"/>
<path d="M502.272 251.566L500.156 252.606L497.31 245.153L488.866 249.251L491.761 256.73L489.594 257.73L483.102 240.874L485.276 239.866L488.146 247.272L496.596 243.166L493.767 235.779L495.941 234.771L502.272 251.566Z" fill="white"/>
<path d="M510.536 230.05L502.152 234.09L504.216 239.502L512.115 235.675L512.848 237.638L504.966 241.478L507.032 246.958L515.533 242.787L516.29 244.702L505.674 249.928L499.313 233.136L509.817 228.086L510.536 230.05Z" fill="white"/>
<path d="M520.141 240.474L527.936 236.658L528.637 238.608L518.814 243.442L512.651 226.713L514.735 225.714L520.141 240.474Z" fill="white"/>
<path d="M532.065 234.64L539.753 230.871L540.445 232.815L530.733 237.578L524.663 220.923L526.739 219.917L532.065 234.64Z" fill="white"/>
<path d="M542.374 212.067C547.117 209.795 550.548 211.663 552.504 217.282C554.461 222.9 553.13 227.013 548.449 229.294C543.768 231.576 540.292 229.764 538.295 224.18C536.297 218.596 537.584 214.329 542.374 212.067ZM547.75 227.305C550.842 225.78 552.12 222.998 550.471 218.269C548.823 213.539 546.189 212.588 543.092 214.084C539.996 215.58 538.675 218.382 540.385 223.173C542.096 227.964 544.636 228.788 547.716 227.279L547.75 227.305Z" fill="white"/>
<path d="M532.847 249.978C532.113 248.24 532.241 246.498 533.132 246.087C534.023 245.675 535.339 246.75 536.073 248.488C536.806 250.226 536.678 251.968 535.787 252.379C534.897 252.791 533.58 251.715 532.847 249.978Z" fill="white"/>
<path d="M525.028 253.586C524.295 251.849 524.423 250.106 525.313 249.695C526.204 249.284 527.521 250.359 528.254 252.096C528.988 253.834 528.86 255.576 527.969 255.988C527.078 256.399 525.762 255.324 525.028 253.586Z" fill="white"/>
<path d="M537.961 257.179C538.709 257.186 539.446 256.988 540.098 256.604L539.652 255.845C538.903 256.255 538.042 256.382 537.214 256.203C536.825 256.114 536.457 255.941 536.134 255.697C535.811 255.453 535.54 255.141 535.337 254.782L534.57 255.184C534.832 255.659 535.186 256.073 535.609 256.397C536.032 256.722 536.515 256.952 537.028 257.071C537.334 257.142 537.647 257.178 537.961 257.179Z" fill="white"/>
<path d="M530.981 261.531C532.021 261.516 533.045 261.261 533.979 260.782C534.825 260.429 535.584 259.88 536.2 259.178C536.816 258.475 537.272 257.637 537.536 256.724L536.706 256.54C536.462 257.316 536.056 258.027 535.518 258.619C534.98 259.212 534.323 259.673 533.595 259.968C531.012 261.238 529.353 260.326 529.291 260.283L528.876 261.064C529.53 261.4 530.253 261.561 530.981 261.531Z" fill="white"/>
<path d="M515.735 262.453C514.681 262.453 513.827 261.559 513.827 260.456C513.827 259.354 514.681 258.46 515.735 258.46C516.789 258.46 517.644 259.354 517.644 260.456C517.644 261.559 516.789 262.453 515.735 262.453Z" fill="white"/>
<path d="M505.55 267.433C504.496 267.433 503.641 266.539 503.641 265.437C503.641 264.334 504.496 263.44 505.55 263.44C506.604 263.44 507.458 264.334 507.458 265.437C507.458 266.539 506.604 267.433 505.55 267.433Z" fill="white"/>
<path d="M555.966 242.392C554.912 242.392 554.057 241.499 554.057 240.396C554.057 239.294 554.912 238.4 555.966 238.4C557.02 238.4 557.874 239.294 557.874 240.396C557.874 241.499 557.02 242.392 555.966 242.392Z" fill="white"/>
<path d="M545.772 247.372C544.718 247.372 543.864 246.479 543.864 245.376C543.864 244.274 544.718 243.38 545.772 243.38C546.826 243.38 547.681 244.274 547.681 245.376C547.681 246.479 546.826 247.372 545.772 247.372Z" fill="white"/>
<path d="M578.897 283.468L622.852 353.186" stroke="black" stroke-width="1.37" stroke-linejoin="round"/>
<path d="M556.827 294.133L603.758 368.559" stroke="black" stroke-width="1.37" stroke-linejoin="round"/>
<path d="M534.766 304.787L579.042 375.015" stroke="black" stroke-width="1.37" stroke-linejoin="round"/>
<path d="M104.153 266.076C107.379 288.003 112.129 295.641 112.129 295.641L133.587 353.262C130.631 352.353 127.476 352.448 124.574 353.533C125.282 353.342 125.998 353.189 126.721 353.077C137.093 351.374 144.353 360.14 144.353 360.14L139.447 346.872C139.447 346.872 138.586 346.524 140.183 340.308C140.183 340.308 141.936 323.198 149.113 312.219C156.29 301.239 164.1 290.585 186.202 282.622C186.202 282.622 205.42 276.166 213.043 274.528C213.043 274.528 249.291 258.048 256.458 252.417C256.458 252.417 278.487 238.053 284.71 231.369C290.933 224.686 308.564 215.898 316 215.161C328.104 210.55 354.686 212.6 354.686 212.6C360.048 200.948 355.267 194.026 355.267 194.026C336.536 173.358 300.163 172.533 300.163 172.533C275.614 143.707 253.118 134.355 232.075 131.794C211.031 129.234 177.407 145.356 177.407 145.356C160.812 152.278 143.43 165.069 130.32 175.061C117.211 185.054 106.559 198.745 104.194 213.034C101.83 227.323 100.927 244.15 104.153 266.076Z" fill="#DA1A3D"/>
<path d="M112.327 375.524C112.607 376.425 112.866 377.271 113.136 378.074C113.872 380.352 114.546 382.251 115.21 383.846V383.9C116.228 386.757 117.97 389.27 120.251 391.169L120.344 391.245C122.418 392.84 125.001 394.001 128.766 395.65L130.269 396.312C133.102 397.498 136.109 398.166 139.158 398.286C145.293 398.449 151.41 397.499 157.235 395.476H157.308C158.822 399.501 160.056 403.071 161.384 406.413C163.686 412.141 166.289 417.023 171.247 421.721L171.921 422.339C173.967 424.171 176.152 425.826 178.455 427.287C185.894 431.99 194.125 435.161 202.704 436.628L203.741 436.812H203.855C206.344 437.203 207.837 437.279 207.837 437.279H206.914C198.617 437.485 184.294 443.94 184.294 443.94C163.375 455.766 163.759 466.127 159.942 482.325C156.125 498.523 157.09 529.629 157.09 529.629L159.932 650.056L221.32 644.697C264.663 663.943 337.076 669.455 368.388 656.425C404.501 641.388 420.909 628.336 420.909 628.336L407.716 487.088C420.795 499.804 431.062 502.44 437.098 504.447C443.135 506.454 463.027 510.957 482.826 492.187C502.625 473.418 504.897 437.051 504.897 437.051L506.141 436.964C518.182 431.648 522.113 421.884 522.113 421.884L471.791 343.367L473.668 336.977C479.964 321.484 483.158 286.354 483.158 286.354C483.376 278.097 483.376 268.366 473.004 261.292C462.633 254.218 458.816 265.49 458.816 265.49C448.87 284.119 436.642 325.531 436.642 325.531C433.054 334.59 429.88 357.395 429.994 368.841C430.099 375.822 431.683 382.692 434.63 388.956L433.303 407.118C423.838 397.792 413.061 390.042 401.348 384.139C376.457 374.374 350.766 391.733 350.766 391.733L346.525 389.433L349.273 386.84C357.57 381.654 368.979 361.941 368.979 361.941C371.997 358.014 373.967 352.687 375.202 347.761C375.197 347.74 375.197 347.717 375.202 347.696C376.327 343.269 377.07 338.744 377.421 334.178C377.463 333.422 377.463 332.665 377.421 331.91V331.259C377.328 329.933 377.158 328.614 376.913 327.31C376.918 327.289 376.918 327.266 376.913 327.245C375.451 319.14 371.592 310.114 370.597 307.868C370.534 307.738 370.483 307.608 370.441 307.51C370.411 307.459 370.387 307.404 370.369 307.347C370.649 307.239 370.918 307.119 371.198 306.989C378.137 303.886 385.417 296.237 385.417 296.237C386.164 295.402 386.859 294.578 387.492 293.753C391.243 289.145 393.62 283.486 394.327 277.479C394.331 277.458 394.331 277.435 394.327 277.414C394.468 276.048 394.499 274.673 394.42 273.302C394.358 271.776 394.103 270.266 393.663 268.81C392.792 265.242 391.197 261.911 388.985 259.046C385.374 254.624 380.283 251.813 374.756 251.191C373.965 251.076 373.168 251.025 372.37 251.039C371.592 251.321 370.856 251.614 370.151 251.929C366.236 253.461 362.799 256.088 360.215 259.523L360.09 259.697C358.762 261.629 357.845 263.836 357.401 266.17C356.958 268.503 356.998 270.91 357.518 273.226L356.937 271.696L356.585 270.774V270.676L356.471 270.373C352.354 258.509 346.336 247.465 338.673 237.716L338.601 237.618C333.852 231.515 328.59 225.869 322.878 220.748L322.089 220.064C319.123 217.46 316.997 215.876 316.302 215.377L316.053 215.193C308.596 215.931 290.996 224.719 284.763 231.402C278.529 238.085 256.511 252.45 256.511 252.45C249.344 258.08 213.096 274.56 213.096 274.56C205.473 276.199 186.254 282.654 186.254 282.654C164.153 290.639 156.333 301.282 149.145 312.251C141.958 323.22 140.216 340.34 140.216 340.34C138.618 346.557 139.479 346.904 139.479 346.904L144.385 360.173C144.385 360.173 137.125 351.406 126.753 353.11C126.031 353.222 125.314 353.374 124.607 353.565C120.532 354.912 116.968 357.57 114.422 361.16C112.99 363.2 112.052 365.572 111.687 368.073C111.322 370.574 111.542 373.131 112.327 375.524Z" fill="#FF7A00"/>
<path d="M112.699 375.524C112.788 376.383 112.93 377.235 113.124 378.074C113.566 380.086 114.263 382.028 115.199 383.846V383.9C116.339 385.874 117.574 387.786 118.901 389.629C119.233 390.239 119.69 390.765 120.239 391.169L120.332 391.245C122.895 393.177 125.739 394.664 128.754 395.65C130.497 396.29 132.519 396.93 134.842 397.527C136.257 397.889 137.696 398.143 139.146 398.286C145.297 398.78 151.476 397.82 157.224 395.476H157.296C158.427 398.916 159.754 402.702 161.372 406.413C163.924 412.098 167.035 417.685 171.267 421.688L171.941 422.307C178.993 428.61 190.972 434.393 202.671 436.606L203.709 436.791H203.823C204.808 436.964 205.835 437.116 206.882 437.257C220.394 439.063 234.079 438.906 247.549 436.791C262.411 434.285 275.5 429.511 289.875 424.498C304.249 419.486 318.915 409.201 326.019 405.458C333.124 401.715 345.466 389.856 354.022 381.98C362.579 374.103 370.316 359.522 372.909 354.064C373.841 352.04 374.625 349.943 375.252 347.794C375.248 347.772 375.248 347.75 375.252 347.728C376.662 343.049 377.42 338.182 377.503 333.277C377.503 332.843 377.503 332.398 377.503 331.943V331.292C377.503 330.641 377.41 330.001 377.327 329.371C377.244 328.742 377.13 328.048 376.995 327.343C377 327.321 377 327.299 376.995 327.277C375.605 320.106 371.809 310.656 370.679 307.9C370.616 307.77 370.565 307.64 370.523 307.542C370.493 307.491 370.469 307.437 370.45 307.38C370.388 307.217 370.347 307.13 370.347 307.13C370.662 307.162 370.979 307.125 371.28 307.022C372.805 306.631 376.393 305.004 383.384 298.527C384.911 297.092 386.301 295.504 387.532 293.786C390.941 288.961 393.277 283.401 394.367 277.511C394.372 277.49 394.372 277.468 394.367 277.446C394.574 276.361 394.637 275.656 394.637 275.656C394.637 274.886 394.554 274.116 394.46 273.335C393.783 268.197 391.901 263.315 388.984 259.122C386.423 255.455 383.187 252.71 379.65 251.831C378.035 251.418 376.375 251.228 374.713 251.267C373.153 251.295 371.604 251.543 370.108 252.005C366.06 253.266 362.551 255.948 360.172 259.599L360.048 259.773C358.775 261.84 357.91 264.153 357.504 266.575C357.098 268.997 357.159 271.48 357.683 273.877L357.455 273.259L356.864 271.696L356.511 270.774V270.676C348.007 250.204 345.6 247.632 338.6 237.716L338.527 237.618L337.832 236.631C333.684 230.686 327.523 224.827 322.804 220.748L322.016 220.064C319.164 217.634 316.955 215.931 316.229 215.377L315.98 215.193C308.522 215.931 290.922 224.719 284.689 231.402C278.456 238.085 256.437 252.45 256.437 252.45C249.27 258.08 213.022 274.56 213.022 274.56C205.399 276.199 186.181 282.654 186.181 282.654C164.079 290.639 156.259 301.282 149.072 312.251C141.884 323.22 140.142 340.34 140.142 340.34C138.545 346.557 139.406 346.904 139.406 346.904L144.311 360.173C144.311 360.173 137.051 351.406 126.68 353.11C125.957 353.222 125.24 353.374 124.533 353.565C118.59 355.106 115.8 358.48 114.348 361.16C113.878 362.054 113.462 362.978 113.104 363.927C112.066 366.292 111.797 367.192 112.699 375.524Z" fill="white"/>
<path d="M305.898 388.761C305.898 388.761 293.515 382.761 279.721 384.833C265.927 386.905 263.946 390.258 263.946 390.258C263.946 390.258 277.284 400.847 293.411 397.223C298.431 396.115 302.88 393.1 305.898 388.761Z" fill="#DA1A3D"/>
<path d="M330.904 401.878C333.597 404.077 335.654 407.014 336.847 410.362C338.921 416.058 341.649 427.374 336.411 442.639C331.174 457.904 321.746 465.607 308.512 468.591C295.278 471.574 282.034 470.077 267.441 460.996C267.441 460.996 255.472 452.317 251.033 445.069C246.594 437.822 247.331 436.52 247.331 436.52C247.331 436.52 265.771 432.82 282.594 427.406C294.604 423.522 321.258 409.776 330.904 401.878Z" fill="white"/>
<path d="M431.581 348.412C437.244 320.486 434.443 331.411 438.913 317.719C443.384 304.028 451.836 277.989 457.188 268.04C457.188 268.04 459.999 262.019 463.649 259.361C463.649 259.361 472.195 256.497 479.3 267.422C486.404 278.347 482.277 295.511 479.901 312.436L471.791 343.302L522.113 421.765C518.491 428.985 512.311 434.437 504.897 436.954C504.935 440.302 504.586 443.642 503.86 446.903C503.86 446.903 494.525 443.257 481.042 448.855C467.559 454.454 466.657 446.078 459.999 442.487C453.34 438.896 447.646 443.008 442.367 438.277C437.088 433.547 441.33 428.578 432.39 422.85C432.39 422.85 433.51 390.931 434.547 388.913C434.63 388.956 425.908 376.295 431.581 348.412Z" fill="white"/>
<path d="M469.655 350.615L476.261 328.059C476.261 328.059 485.72 290.878 482.557 275.928C479.394 260.977 468.037 258.124 465.112 258.71C462.187 259.296 456.431 263.05 439.36 316.309C420.618 374.798 435.667 390.399 435.667 390.399" stroke="black" stroke-width="1.37" stroke-miterlimit="10"/>
<path d="M466.875 346.589C466.875 346.589 481.198 361.778 473.969 397.191" stroke="black" stroke-width="1.37" stroke-miterlimit="10"/>
<path d="M443.964 411.013C449.326 421.374 468.057 439.286 491.528 439.221C514.998 439.156 522.113 421.862 522.113 421.862" stroke="black" stroke-width="1.37" stroke-miterlimit="10"/>
<path d="M475.774 263.115C475.774 263.115 471.813 287.33 460.788 290.238C460.788 290.238 456.027 291.746 447.668 290.13" stroke="black" stroke-width="1.37" stroke-miterlimit="10"/>
<path d="M434.631 388.956C434.631 388.956 431.084 428.99 433.075 441.684" stroke="black" stroke-width="1.37" stroke-miterlimit="10"/>
<path d="M505.157 436.91C505.157 436.91 501.952 498.806 455.447 505.988C455.447 505.988 430.058 510.132 407.666 486.459" stroke="black" stroke-width="1.37" stroke-miterlimit="10"/>
<path d="M433.304 407.118C433.304 407.118 408.64 382.273 389.744 381.025C373.575 379.94 367.87 383.195 350.747 391.766" stroke="black" stroke-width="1.37" stroke-miterlimit="10"/>
<path d="M403.504 442.53L420.907 628.347C420.907 628.347 401.554 642.668 368.386 656.436" stroke="black" stroke-width="1.37" stroke-miterlimit="10"/>
<path d="M139.199 346.079C140.187 349.595 141.335 353.088 142.642 356.56L161.985 407.758C174.545 441.022 232.438 448.269 291.275 423.945C292.032 423.63 292.769 423.327 293.505 423.001C351.056 398.438 387.471 352.48 375.066 319.683L355.724 268.463C347.67 247.057 333.876 228.54 316.001 215.139" stroke="black" stroke-width="1.37" stroke-miterlimit="10"/>
<path d="M144.675 361.963C144.675 361.963 137.799 348.716 122.895 354.087C107.815 359.511 109.568 380.44 120.085 390.974C120.085 390.974 134.605 403.798 157.287 395.499" stroke="black" stroke-width="1.37" stroke-miterlimit="10"/>
<path d="M357.756 273.877C357.756 273.877 354.126 259.306 368.48 252.59C383 245.788 395.446 262.29 394.596 277.468C394.596 277.468 392.386 297.203 370.409 307.369" stroke="black" stroke-width="1.37" stroke-miterlimit="10"/>
<path d="M147.506 248.718C211.332 190.457 269.101 173.38 295.496 172.534C321.892 171.687 345.207 184.327 353.317 191.856C361.428 199.386 354.686 212.557 354.686 212.557C354.686 212.557 310.836 207.577 286.836 229.417C262.837 251.256 232.842 266.749 215.501 273.606C198.16 280.463 144.55 283.24 139.209 346.036" stroke="black" stroke-width="1.37" stroke-miterlimit="10"/>
<path d="M133.587 353.262C133.587 353.262 113.643 299.503 108.862 287.016C104.08 274.528 96.2914 225.869 108.862 199.396C121.432 172.924 192.207 128.268 232.064 131.794C271.922 135.32 300.163 172.533 300.163 172.533" stroke="black" stroke-width="1.37" stroke-miterlimit="10"/>
<path d="M212.972 437.865C212.972 437.865 179.783 435.782 165.616 461.636C165.616 461.636 157.204 475.859 157.09 523.477C156.976 571.095 159.922 650.078 159.922 650.078" stroke="black" stroke-width="1.37" stroke-miterlimit="10"/>
<path d="M222.71 482.792L221.32 644.708" stroke="black" stroke-width="1.37" stroke-miterlimit="10"/>
<path d="M282.425 302.242C277.055 292.512 277.13 281.95 282.591 278.652C288.053 275.353 296.834 280.567 302.204 290.296C307.574 300.026 307.499 310.588 302.038 313.886C296.576 317.185 287.795 311.971 282.425 302.242Z" fill="#221F1F"/>
<path d="M214.482 337.641C209.112 327.911 209.186 317.35 214.648 314.051C220.109 310.753 228.89 315.966 234.26 325.696C239.63 335.426 239.556 345.987 234.094 349.286C228.633 352.584 219.852 347.371 214.482 337.641Z" fill="#221F1F"/>
<path d="M332.523 403.744C332.523 403.744 344.263 413.649 337.283 439.709C330.303 465.769 309.716 469.002 305.028 469.295C300.34 469.588 282.688 473.093 264.579 458.555C246.471 444.016 247.342 436.487 247.342 436.487" stroke="black" stroke-width="1.37" stroke-miterlimit="10"/>
<path d="M282.425 302.242C277.055 292.512 277.13 281.95 282.591 278.652C288.053 275.353 296.834 280.567 302.204 290.296C307.574 300.026 307.499 310.588 302.038 313.886C296.576 317.185 287.795 311.971 282.425 302.242Z" stroke="black" stroke-width="1.37" stroke-miterlimit="10"/>
<path d="M214.482 337.641C209.112 327.911 209.186 317.35 214.648 314.051C220.109 310.753 228.89 315.966 234.26 325.696C239.63 335.426 239.556 345.987 234.094 349.286C228.633 352.584 219.852 347.371 214.482 337.641Z" stroke="black" stroke-width="1.37" stroke-miterlimit="10"/>
<path d="M317.795 330.728L275.127 348.087C275.127 348.087 252.911 355.888 252.673 372.628C252.673 372.628 252.724 389.597 279.535 397.777C279.535 397.777 309.674 404.232 310.856 371.511C310.575 365.377 309.013 359.381 306.281 353.946C303.548 348.511 299.712 343.767 295.04 340.048" stroke="black" stroke-width="1.37" stroke-miterlimit="10"/>
<path d="M314.683 259.719C314.683 259.719 283.454 254.999 264.63 276.481" stroke="black" stroke-width="1.37" stroke-miterlimit="10"/>
<path d="M223.663 299.948C223.663 299.948 194.239 293.439 178.547 323.47" stroke="black" stroke-width="1.37" stroke-miterlimit="10"/>
<path d="M305.898 388.761C305.898 388.761 285 378.205 263.946 390.291" stroke="black" stroke-width="1.37" stroke-miterlimit="10"/>
<path d="M295.342 404.362C295.342 404.362 285.831 409.341 273.458 404.362" stroke="black" stroke-width="1.37" stroke-miterlimit="10"/>
<path d="M522.113 421.83L471.791 343.313" stroke="black" stroke-width="1.37" stroke-miterlimit="10"/>
<path d="M137.042 112.623L109.257 28.7036L93.627 33.6726L130.57 114.815L137.042 112.623Z" fill="#FF7A00"/>
<path d="M94.6641 102.208L77.9038 65.396L71.8572 66.6762L92.1646 102.794L94.6641 102.208Z" fill="#FF7A00"/>
<path d="M59.7529 145.931L22.1356 135.255L19.128 140.886L58.5499 148.296L59.7529 145.931Z" fill="#FF7A00"/>
<path d="M90.7744 136.123L42.6198 82.1694L32.3521 91.4673L86.5636 140.072L90.7744 136.123Z" fill="#FF7A00"/>
<path d="M69.4092 169.832L19.5121 162.823L17.863 172.805L68.7973 173.998L69.4092 169.832Z" fill="#FF7A00"/>
<path d="M592.277 241.763C592.277 241.763 631.16 217.699 616.048 167.988C600.937 118.276 618.6 99.8212 625.943 93.5611C633.286 87.3011 654.215 60.4381 647.08 20.6318" stroke="black" stroke-width="1.92" stroke-linejoin="round"/>
<path d="M366.095 61.0454C366.095 61.0454 339.803 67.1644 339.202 99.4738" stroke="black" stroke-width="1.37" stroke-linejoin="round"/>
<path d="M368.106 71.5371C368.106 71.5371 349.51 77.2981 350.174 97.1633" stroke="black" stroke-width="1.37" stroke-linejoin="round"/>
<path d="M369.341 82.896C369.341 82.896 360.058 84.3824 360.359 94.2119" stroke="black" stroke-width="1.37" stroke-linejoin="round"/>
<rect x="155.873" y="19.9315" width="19.6543" height="166.938" rx="9.82715" transform="rotate(-71.0797 155.873 19.9315)" fill="white" stroke="black" stroke-width="2"/>
<path d="M18.2183 400.289C27.3044 400.289 34.6701 392.667 34.6701 383.264C34.6701 373.862 27.3044 366.239 18.2183 366.239C9.13227 366.239 1.7666 373.862 1.7666 383.264C1.7666 392.667 9.13227 400.289 18.2183 400.289Z" fill="#DA1A3D"/>
<path d="M18.2183 400.289C27.3044 400.289 34.6701 392.667 34.6701 383.264C34.6701 373.862 27.3044 366.239 18.2183 366.239C9.13227 366.239 1.7666 373.862 1.7666 383.264C1.7666 392.667 9.13227 400.289 18.2183 400.289Z" stroke="#221F1F" stroke-width="2.3527" stroke-miterlimit="10"/>
</svg>
