<svg width="961" height="796" viewBox="0 0 961 796" fill="none" xmlns="http://www.w3.org/2000/svg">
<path d="M136.331 614.136L95.1356 675.893L145.7 622.351L139.847 697.929L157.602 624.586L188.747 693.782L168.899 620.384L228.644 664.57L176.588 610.722L248.98 618.097L178.568 598.241L244.114 566.914L174.355 586.345L215.551 524.588L164.987 578.13L170.726 502.562L153.022 575.841L121.877 506.645L141.674 580.107L81.9291 535.921L133.985 589.769L61.644 582.329L132.056 602.186L66.4583 633.577L136.331 614.136Z" stroke="#221F1F" stroke-width="2.1198" stroke-miterlimit="10" stroke-linecap="round" stroke-linejoin="round"/>
<path d="M142.285 436.494C174.4 436.494 200.434 409.26 200.434 375.665C200.434 342.07 174.4 314.836 142.285 314.836C110.17 314.836 84.1357 342.07 84.1357 375.665C84.1357 409.26 110.17 436.494 142.285 436.494Z" fill="#221F1F"/>
<path d="M142.285 427.244C132.527 427.244 122.988 424.217 114.875 418.546C106.761 412.875 100.438 404.815 96.7038 395.385C92.9696 385.954 91.9926 375.577 93.8962 365.566C95.7999 355.555 100.499 346.359 107.399 339.141C114.298 331.923 123.089 327.008 132.66 325.017C142.23 323.025 152.15 324.047 161.165 327.953C170.18 331.86 177.885 338.475 183.306 346.962C188.727 355.449 191.621 365.427 191.621 375.635C191.605 389.317 186.402 402.435 177.153 412.11C167.904 421.785 155.365 427.228 142.285 427.244Z" fill="#DA1A3D"/>
<path d="M200.435 425.14C200.435 425.14 256.381 485.466 338.773 469.31C421.165 453.153 422.755 358.782 396.752 293.444C350.469 177.022 386.069 125.421 441.505 104.198C507.04 79.1088 578.83 95.1725 614.4 229.096C647.16 352.416 687.595 406.292 757.833 403.686C843.781 400.492 874.294 312.71 868.734 219.328" stroke="#DA1A3D" stroke-width="56.69" stroke-miterlimit="10"/>
<path d="M200.435 425.14C200.435 425.14 202.86 427.754 207.436 431.745" stroke="white" stroke-width="5.67" stroke-linecap="round" stroke-linejoin="round"/>
<path d="M222.675 443.485C246.334 459.727 287.419 479.356 338.752 469.294C421.166 453.161 422.756 358.782 396.753 293.444C350.47 177.022 386.07 125.421 441.506 104.198C507.041 79.1088 578.831 95.1725 614.401 229.096C647.161 352.416 687.596 406.292 757.834 403.686C837.683 400.716 869.689 324.736 869.341 239.089" stroke="white" stroke-width="5.67" stroke-linecap="round" stroke-linejoin="round" stroke-dasharray="25.62 25.62"/>
<path d="M869.178 229.181C869.074 225.902 868.924 222.618 868.727 219.328" stroke="white" stroke-width="5.67" stroke-linecap="round" stroke-linejoin="round"/>
<path d="M346.964 513.99C361.195 513.99 372.73 501.922 372.73 487.036C372.73 472.15 361.195 460.083 346.964 460.083C332.734 460.083 321.198 472.15 321.198 487.036C321.198 501.922 332.734 513.99 346.964 513.99Z" fill="#E6E6E6"/>
<path d="M501.902 105.18C512.155 105.18 520.467 96.4857 520.467 85.7602C520.467 75.0346 512.155 66.3398 501.902 66.3398C491.649 66.3398 483.337 75.0346 483.337 85.7602C483.337 96.4857 491.649 105.18 501.902 105.18Z" fill="#331108"/>
<path d="M372.398 528.731C386.44 528.731 397.824 516.823 397.824 502.133C397.824 487.444 386.44 475.536 372.398 475.536C358.355 475.536 346.972 487.444 346.972 502.133C346.972 516.823 358.355 528.731 372.398 528.731Z" fill="white" stroke="black" stroke-width="17.01" stroke-linecap="round" stroke-linejoin="round"/>
<path d="M390.38 520.942L417.543 549.357" stroke="black" stroke-width="17.01" stroke-linecap="round" stroke-linejoin="round"/>
<path d="M583.865 67.7473L508.459 78.6601L521.013 4.38184L538.757 33.4698L554.794 17.2746L569.477 32.6345L555.814 49.9434L583.865 67.7473Z" fill="white" stroke="#FF7A00" stroke-width="8.5" stroke-linecap="round" stroke-linejoin="round"/>
<path d="M821.343 172.104L778.099 203.798L819.376 211.594L816.744 250.706L854.695 225.732L871.352 266.027L889.606 230.852L919.631 241.595L905.184 197.789L960.635 202.445L921.531 172.104L960.044 141.964L915.764 138.368L919.646 102.59L887.788 119.21L871.352 68.7222L856.07 122.923L825.631 106.287L828.241 139.358L788.501 143.735L821.343 172.104Z" fill="#FF7A00"/>
<path d="M879.092 171.771H859.647V192.669H879.092V171.771Z" fill="white"/>
<path d="M851.958 219.197H886.774C887.794 219.193 888.794 218.893 889.663 218.332C890.531 217.77 891.233 216.968 891.693 216.014C892.152 215.061 892.35 213.993 892.265 212.929C892.179 211.864 891.814 210.846 891.21 209.985L879.062 192.692H859.625L847.478 209.985C846.871 210.849 846.505 211.872 846.422 212.94C846.338 214.008 846.54 215.08 847.005 216.035C847.469 216.99 848.178 217.792 849.053 218.35C849.928 218.908 850.933 219.201 851.958 219.197Z" fill="#331108"/>
<path d="M880.045 193.674H858.686V170.766H880.045V193.674ZM860.6 191.671H878.13V172.792H860.6V191.671Z" fill="#221F1F"/>
<path d="M886.774 220.163H851.959C850.755 220.168 849.574 219.822 848.548 219.164C847.522 218.506 846.691 217.562 846.148 216.438C845.606 215.314 845.373 214.055 845.476 212.8C845.579 211.546 846.014 210.346 846.731 209.336L859.16 191.632H879.573L892.001 209.336C892.719 210.346 893.154 211.546 893.257 212.8C893.36 214.055 893.127 215.314 892.584 216.438C892.042 217.562 891.211 218.506 890.185 219.164C889.159 219.822 887.978 220.168 886.774 220.163ZM860.158 193.666L848.328 210.55C847.828 211.264 847.527 212.109 847.458 212.991C847.389 213.873 847.555 214.758 847.938 215.548C848.321 216.337 848.906 217 849.628 217.462C850.349 217.925 851.179 218.169 852.025 218.168H886.841C887.687 218.169 888.517 217.925 889.238 217.462C889.96 217 890.544 216.337 890.927 215.548C891.31 214.758 891.477 213.873 891.408 212.991C891.339 212.109 891.038 211.264 890.537 210.55L878.708 193.666H860.158Z" fill="#221F1F"/>
<path d="M907.343 101.491V101.863L903.513 142.08C902.676 150.935 898.721 159.149 892.417 165.123C886.112 171.098 877.91 174.407 869.403 174.407C860.896 174.407 852.694 171.098 846.39 165.123C840.086 159.149 836.131 150.935 835.293 142.08L831.434 101.507C831.336 100.472 831.446 99.4273 831.758 98.4398C832.069 97.4523 832.574 96.5439 833.242 95.773C833.909 95.0022 834.723 94.3861 835.631 93.9644C836.54 93.5426 837.523 93.3245 838.517 93.3242H900.289C901.279 93.3302 902.257 93.5519 903.16 93.975C904.064 94.3981 904.873 95.0134 905.536 95.7818C906.2 96.5501 906.703 97.4546 907.014 98.4377C907.325 99.4207 907.437 100.461 907.343 101.491Z" fill="#FF7A00"/>
<path d="M907.305 101.863L906.425 111.059L906.617 109.226H911.563C911.805 109.225 912.045 109.278 912.266 109.381C912.487 109.484 912.685 109.635 912.847 109.823C913.008 110.011 913.131 110.233 913.205 110.474C913.279 110.715 913.304 110.969 913.278 111.221L909.981 143.356C909.353 149.505 903.645 154.749 897.863 158.438V158.399C896.129 161.122 894.047 163.584 891.675 165.716C904.081 164.571 917.803 154.424 919.03 141.222L922.446 105.305C922.493 104.87 922.452 104.43 922.324 104.014C922.197 103.597 921.987 103.214 921.707 102.888C921.428 102.563 921.085 102.304 920.703 102.127C920.321 101.95 919.907 101.86 919.489 101.863H907.305Z" fill="white"/>
<path d="M831.427 101.863L832.307 111.059L832.114 109.226H827.175C826.933 109.225 826.694 109.278 826.473 109.381C826.252 109.484 826.054 109.635 825.892 109.823C825.73 110.011 825.608 110.233 825.534 110.474C825.459 110.715 825.434 110.969 825.46 111.221L828.743 143.356C829.371 149.505 835.079 154.749 840.861 158.438V158.399C842.594 161.122 844.677 163.584 847.049 165.716C834.643 164.571 820.921 154.424 819.693 141.222L816.278 105.305C816.231 104.87 816.272 104.43 816.4 104.014C816.527 103.597 816.737 103.214 817.017 102.888C817.296 102.563 817.638 102.304 818.021 102.127C818.403 101.95 818.817 101.86 819.235 101.863H831.427Z" fill="white"/>
<path d="M869.362 175.383C860.613 175.408 852.17 172.017 845.686 165.873C839.201 159.729 835.142 151.275 834.303 142.165L830.443 101.592C830.333 100.418 830.458 99.2333 830.812 98.1134C831.166 96.9935 831.739 95.9633 832.496 95.0892C833.253 94.2151 834.176 93.5164 835.207 93.0379C836.238 92.5594 837.352 92.3118 838.48 92.311H900.252C901.379 92.3118 902.494 92.5594 903.525 93.0379C904.555 93.5164 905.479 94.2151 906.236 95.0892C906.992 95.9633 907.566 96.9935 907.92 98.1134C908.273 99.2333 908.399 100.418 908.289 101.592V101.963L904.466 142.181C903.597 151.28 899.528 159.717 893.049 165.855C886.569 171.993 878.141 175.394 869.399 175.398L869.362 175.383ZM838.48 94.3142C837.619 94.3141 836.767 94.5027 835.98 94.8676C835.193 95.2326 834.488 95.7659 833.91 96.4333C833.332 97.1007 832.894 97.8872 832.624 98.7424C832.354 99.5976 832.259 100.502 832.343 101.399L836.203 141.972C837.027 150.573 840.877 158.547 847.005 164.347C853.133 170.147 861.102 173.358 869.366 173.358C877.63 173.358 885.599 170.147 891.727 164.347C897.855 158.547 901.704 150.573 902.529 141.972L906.388 101.399C906.474 100.502 906.379 99.5969 906.11 98.7412C905.841 97.8854 905.403 97.0984 904.824 96.4308C904.246 95.7631 903.54 95.2298 902.753 94.8652C901.965 94.5007 901.113 94.3129 900.252 94.3142H838.48Z" fill="#221F1F"/>
<path d="M888.821 166.984L891.084 164.957C893.39 162.883 895.415 160.489 897.102 157.842L897.782 158.275L897.375 157.587C902.359 154.4 908.466 149.334 909.042 143.248L912.332 111.112C912.349 111.002 912.341 110.888 912.311 110.781C912.282 110.673 912.23 110.573 912.159 110.489C912.089 110.404 912.002 110.337 911.904 110.291C911.806 110.245 911.7 110.222 911.593 110.223H907.505L907.408 111.159L905.508 110.958L906.469 100.865H919.548C920.099 100.866 920.644 100.988 921.147 101.223C921.65 101.457 922.101 101.799 922.471 102.227C922.84 102.654 923.121 103.158 923.293 103.705C923.466 104.252 923.528 104.831 923.474 105.405L920.059 141.322C918.757 155.073 904.407 165.553 891.816 166.713L888.821 166.984ZM898.544 159.18C897.366 161.002 896.032 162.708 894.559 164.277C905.582 162.011 917.02 152.846 918.129 141.121L921.545 105.204C921.57 104.909 921.537 104.612 921.447 104.332C921.357 104.052 921.212 103.794 921.021 103.576C920.83 103.358 920.598 103.183 920.34 103.064C920.081 102.945 919.801 102.883 919.519 102.883H908.17L907.66 108.235H911.563C911.939 108.237 912.309 108.32 912.652 108.48C912.994 108.64 913.301 108.873 913.552 109.164C913.804 109.456 913.994 109.799 914.111 110.171C914.228 110.544 914.27 110.939 914.233 111.329L910.942 143.464C910.255 150.286 903.86 155.777 898.544 159.18Z" fill="#221F1F"/>
<path d="M849.91 166.984L846.953 166.713C834.384 165.553 820.011 155.112 818.71 141.322L815.294 105.405C815.241 104.831 815.302 104.252 815.475 103.705C815.648 103.158 815.928 102.654 816.297 102.227C816.667 101.799 817.118 101.457 817.621 101.223C818.125 100.988 818.669 100.866 819.22 100.865H832.299L833.26 110.958L831.36 111.159L831.264 110.223H827.175C827.068 110.221 826.961 110.243 826.863 110.289C826.765 110.334 826.677 110.401 826.606 110.486C826.533 110.57 826.478 110.669 826.443 110.777C826.409 110.885 826.396 110.999 826.406 111.112L829.697 143.248C830.31 149.334 836.351 154.4 841.363 157.587L840.927 158.36L841.666 157.865C843.354 160.514 845.382 162.908 847.692 164.98L849.91 166.984ZM819.213 102.868C818.93 102.868 818.65 102.929 818.392 103.048C818.133 103.168 817.901 103.342 817.71 103.56C817.52 103.779 817.375 104.036 817.285 104.317C817.194 104.597 817.161 104.894 817.187 105.188L820.603 141.105C821.712 152.83 833.171 161.987 844.173 164.261C842.699 162.692 841.365 160.986 840.188 159.164C834.872 155.746 828.484 150.27 827.789 143.449L824.499 111.314C824.462 110.922 824.502 110.527 824.618 110.153C824.734 109.779 824.922 109.434 825.172 109.14C825.423 108.846 825.73 108.611 826.074 108.449C826.418 108.288 826.791 108.205 827.168 108.204H831.079L830.569 102.852L819.213 102.868Z" fill="#221F1F"/>
<path d="M248.359 191.586C268.231 191.53 288.087 192.809 307.802 195.414C301.703 207.224 291.537 216.01 281.97 224.958C272.403 233.907 262.924 243.868 259.006 256.668L239.398 246.792C234.223 244.185 226.467 241.942 223.059 236.776C220.323 232.638 222.016 229.576 224.789 226.103C228.389 221.485 231.755 216.673 234.874 211.687C237.136 208.183 239.494 204.726 241.816 201.292C242.681 200.047 247.191 191.593 248.359 191.586Z" fill="white" stroke="black" stroke-width="5.79" stroke-linecap="round" stroke-linejoin="round"/>
<path d="M246.488 210.883C246.084 215.018 245.444 219.124 244.573 223.18C245.894 222.277 247.259 221.446 248.662 220.689C261.171 213.798 274.99 209.993 288.712 206.436" stroke="black" stroke-width="5.79" stroke-linecap="round" stroke-linejoin="round"/>
<path d="M735.889 263.907C755.759 263.848 775.612 265.127 795.324 267.736C789.232 279.546 779.059 288.324 769.499 297.28C759.94 306.236 750.454 316.19 746.535 328.99L726.95 319.136C721.775 316.53 714.019 314.287 710.611 309.121C707.875 304.983 709.568 301.92 712.341 298.448C715.938 293.828 719.304 289.016 722.425 284.031C724.688 280.528 727.046 277.071 729.368 273.637C730.203 272.368 734.713 263.907 735.889 263.907Z" fill="white" stroke="black" stroke-width="5.79" stroke-linecap="round" stroke-linejoin="round"/>
<path d="M734.018 283.204C733.615 287.339 732.978 291.445 732.11 295.501C733.43 294.594 734.795 293.76 736.199 293.003C748.709 286.12 762.527 282.315 776.249 278.757" stroke="black" stroke-width="5.79" stroke-linecap="round" stroke-linejoin="round"/>
<path d="M301.502 245.292C301.502 245.292 291.329 302.423 335.408 305.973C379.488 309.523 404.019 194.602 478.212 199.243C552.405 203.883 522.573 335.618 702.973 283.22" stroke="black" stroke-width="5.79" stroke-linecap="round" stroke-linejoin="round"/>
<path d="M529.553 394.413C540.974 394.413 550.233 384.727 550.233 372.78C550.233 360.833 540.974 351.148 529.553 351.148C518.133 351.148 508.874 360.833 508.874 372.78C508.874 384.727 518.133 394.413 529.553 394.413Z" fill="white" stroke="black" stroke-width="4.97" stroke-linecap="round" stroke-linejoin="round"/>
<path d="M523.705 405.782L507.906 434.398C507.312 435.471 507 436.689 506.999 437.929C506.998 439.168 507.31 440.386 507.902 441.46C508.494 442.534 509.345 443.426 510.371 444.046C511.397 444.666 512.561 444.993 513.746 444.994H545.361C546.545 444.992 547.709 444.665 548.735 444.045C549.76 443.424 550.612 442.533 551.205 441.459C551.797 440.386 552.109 439.169 552.11 437.929C552.111 436.69 551.8 435.472 551.209 434.398L535.402 405.782C534.81 404.707 533.957 403.815 532.931 403.194C531.904 402.574 530.739 402.247 529.554 402.247C528.368 402.247 527.203 402.574 526.176 403.194C525.15 403.815 524.297 404.707 523.705 405.782Z" fill="white" stroke="black" stroke-width="4.97" stroke-linecap="round" stroke-linejoin="round"/>
<path d="M560.782 338.913L556.457 350.731L567.739 346.918C568.357 346.679 569 346.518 569.654 346.438C570.835 346.429 572.007 346.654 573.107 347.103C582.6 350.197 593.069 350.545 602.385 346.887C604.161 346.301 605.778 345.28 607.102 343.909C607.858 342.969 608.467 341.909 608.906 340.769C610.52 336.951 611.331 332.816 611.287 328.642C611.242 325.649 610.666 322.455 608.677 320.305C606.858 318.325 604.174 317.551 601.623 316.925C596.226 315.587 590.696 314.535 585.158 314.914C579.621 315.293 574.068 317.234 570.009 321.21C568.305 322.995 566.772 324.951 565.433 327.049C564.176 328.71 563.178 330.569 562.475 332.556C561.751 334.667 561.551 336.817 560.782 338.913Z" fill="white" stroke="black" stroke-width="4.97" stroke-linecap="round" stroke-linejoin="round"/>
<path d="M576.242 331.285C583.998 330.397 591.85 330.814 599.62 330.065L576.242 331.285Z" fill="white"/>
<path d="M576.242 331.285C583.998 330.397 591.85 330.814 599.62 330.065" stroke="black" stroke-width="4.97" stroke-linecap="round" stroke-linejoin="round"/>
<path d="M587.192 322.06C588.53 328.425 587.007 335.038 587.118 341.565L587.192 322.06Z" fill="white"/>
<path d="M587.192 322.06C588.53 328.425 587.007 335.038 587.118 341.565" stroke="black" stroke-width="4.97" stroke-linecap="round" stroke-linejoin="round"/>
<path d="M684.223 121.238C681.251 119.694 680.093 116.034 681.636 113.061C683.179 110.089 686.84 108.931 689.812 110.474L731.891 132.325C734.863 133.869 736.022 137.529 734.478 140.502C732.935 143.474 729.274 144.632 726.302 143.088L684.223 121.238Z" fill="white" stroke="black" stroke-width="2"/>
<path d="M265.257 121.654C262.417 123.429 258.676 122.565 256.902 119.725C255.127 116.885 255.991 113.144 258.831 111.369L361.955 46.9316C364.795 45.157 368.536 46.0207 370.311 48.8608C372.086 51.7009 371.222 55.4419 368.382 57.2166L265.257 121.654Z" fill="white" stroke="black" stroke-width="2"/>
<path d="M639.29 513.99C648.376 513.99 655.741 506.367 655.741 496.965C655.741 487.562 648.376 479.939 639.29 479.939C630.204 479.939 622.838 487.562 622.838 496.965C622.838 506.367 630.204 513.99 639.29 513.99Z" fill="#DA1A3D"/>
<path d="M639.29 513.99C648.376 513.99 655.741 506.367 655.741 496.965C655.741 487.562 648.376 479.939 639.29 479.939C630.204 479.939 622.838 487.562 622.838 496.965C622.838 506.367 630.204 513.99 639.29 513.99Z" stroke="#221F1F" stroke-width="2.3527" stroke-miterlimit="10"/>
</svg>
