<svg width="1920" height="556" viewBox="0 0 1920 556" fill="none" xmlns="http://www.w3.org/2000/svg">
<path d="M472.681 164.544H392.276C383.698 164.544 376.745 171.507 376.745 180.096V260.611C376.745 269.2 383.698 276.162 392.276 276.162H472.681C481.259 276.162 488.212 269.2 488.212 260.611V180.096C488.212 171.507 481.259 164.544 472.681 164.544Z" fill="white"/>
<path d="M472.681 164.544H392.276C383.698 164.544 376.745 171.507 376.745 180.096V260.611C376.745 269.2 383.698 276.162 392.276 276.162H472.681C481.259 276.162 488.212 269.2 488.212 260.611V180.096C488.212 171.507 481.259 164.544 472.681 164.544Z" stroke="#221F1F" stroke-width="2" stroke-miterlimit="10"/>
<path d="M376.745 245.536L408.166 224.431C409.914 223.253 411.996 222.674 414.1 222.781C416.204 222.887 418.217 223.675 419.837 225.024L438.61 240.614C440.245 241.97 442.321 242.675 444.442 242.597C446.563 242.519 448.582 241.661 450.113 240.189L488.212 203.507" stroke="#221F1F" stroke-width="2" stroke-miterlimit="10"/>
<path d="M443.846 213.042C450.128 213.042 455.22 207.942 455.22 201.652C455.22 195.361 450.128 190.262 443.846 190.262C437.564 190.262 432.472 195.361 432.472 201.652C432.472 207.942 437.564 213.042 443.846 213.042Z" fill="#FF7A00"/>
<path d="M443.846 213.042C450.128 213.042 455.22 207.942 455.22 201.652C455.22 195.361 450.128 190.262 443.846 190.262C437.564 190.262 432.472 195.361 432.472 201.652C432.472 207.942 437.564 213.042 443.846 213.042Z" stroke="#221F1F" stroke-width="2" stroke-miterlimit="10"/>
<path d="M18.5662 376.195L13.3461 385.736C12.9937 386.361 12.485 386.883 11.8701 387.251C11.2552 387.62 10.5552 387.822 9.83883 387.837C9.12247 387.853 8.41439 387.681 7.78413 387.34C7.15387 386.999 6.6231 386.499 6.24396 385.89L0.597737 376.598C0.222172 375.976 0.0163704 375.266 0.000936912 374.539C-0.0144966 373.812 0.160981 373.095 0.509799 372.457C0.858618 371.82 1.36854 371.285 1.98849 370.907C2.60845 370.529 3.31668 370.321 4.04229 370.304L14.8968 370.067C15.6172 370.062 16.3265 370.245 16.9546 370.598C17.5828 370.952 18.108 371.463 18.4785 372.082C18.849 372.7 19.052 373.405 19.0673 374.126C19.0827 374.848 18.91 375.561 18.5662 376.195V376.195Z" stroke="#221F1F" stroke-width="1.25" stroke-miterlimit="10"/>
<path d="M101.367 316.595L14.1523 376.798L16.0603 379.569L103.275 319.367L101.367 316.595Z" fill="#331108"/>
<path d="M95.6936 310.382L8.83203 370.844L10.7482 373.604L97.6098 313.142L95.6936 310.382Z" fill="#331108"/>
<path d="M117.346 277.637C118.681 275.775 120.37 274.196 122.316 272.988C124.261 271.781 126.425 270.969 128.684 270.599C130.943 270.229 133.253 270.308 135.481 270.833C137.709 271.357 139.813 272.316 141.671 273.654L155.224 283.433C166.114 278.016 179.099 278.407 189.137 285.626L147.707 343.255C137.682 336.037 133.172 323.84 134.841 311.774L121.264 301.995C117.519 299.285 115.002 295.196 114.268 290.628C113.533 286.06 114.64 281.387 117.346 277.637Z" fill="#331108"/>
<path d="M147.719 343.256C162.55 353.923 183.845 349.704 195.268 333.773C206.69 317.843 203.944 296.294 189.113 285.614" fill="#DA1A3D"/>
<path d="M195.277 333.788C206.708 317.87 203.949 296.306 189.114 285.624C174.279 274.942 152.987 279.186 141.556 295.104C130.125 311.022 132.884 332.585 147.719 343.267C162.553 353.95 183.846 349.705 195.277 333.788Z" stroke="#221F1F" stroke-width="1.25" stroke-miterlimit="10"/>
<path d="M117.346 277.637C118.681 275.775 120.37 274.196 122.316 272.988C124.261 271.781 126.425 270.969 128.684 270.599C130.943 270.229 133.253 270.308 135.481 270.833C137.709 271.357 139.813 272.316 141.671 273.654L155.224 283.433C166.114 278.016 179.099 278.407 189.137 285.626L147.707 343.255C137.682 336.037 133.172 323.84 134.841 311.774L121.264 301.995C117.519 299.285 115.002 295.196 114.268 290.628C113.533 286.06 114.64 281.387 117.346 277.637V277.637Z" stroke="#221F1F" stroke-width="1.25" stroke-miterlimit="10"/>
<path d="M122.495 306.831C125.47 306.831 127.881 304.417 127.881 301.438C127.881 298.46 125.47 296.045 122.495 296.045C119.521 296.045 117.109 298.46 117.109 301.438C117.109 304.417 119.521 306.831 122.495 306.831Z" fill="#331108"/>
<path d="M119.39 303.348L107.513 308.778L108.127 310.126L120.004 304.696L119.39 303.348Z" fill="#331108"/>
<path d="M791.329 521.42H42.5004C39.8855 521.42 37.7656 523.543 37.7656 526.161V556.161C37.7656 558.78 39.8855 560.902 42.5004 560.902H791.329C793.944 560.902 796.064 558.78 796.064 556.161V526.161C796.064 523.543 793.944 521.42 791.329 521.42Z" fill="white"/>
<path d="M791.329 521.42H42.5004C39.8855 521.42 37.7656 523.543 37.7656 526.161V556.161C37.7656 558.78 39.8855 560.902 42.5004 560.902H791.329C793.944 560.902 796.064 558.78 796.064 556.161V526.161C796.064 523.543 793.944 521.42 791.329 521.42Z" stroke="#221F1F" stroke-width="2" stroke-miterlimit="10"/>
<path d="M28.5685 584.121H30.0481V523.255C30.0481 521.998 30.5469 520.792 31.4349 519.903C32.3228 519.014 33.5271 518.514 34.7829 518.514H38.0854V517.032H34.7947C33.9763 517.026 33.1648 517.183 32.4073 517.493C31.6499 517.803 30.9615 518.261 30.3823 518.84C29.803 519.419 29.3444 520.108 29.033 520.866C28.7216 521.623 28.5637 522.436 28.5685 523.255V584.121Z" fill="#331108"/>
<path d="M38.097 521.42H72.6846V515.209H38.097V521.42Z" fill="#331108"/>
<path d="M67.1926 504.278H43.6016V515.207H67.1926V504.278Z" fill="#331108"/>
<path d="M38.097 521.42H72.6846V515.209H38.097V521.42Z" stroke="#221F1F" stroke-width="1.25" stroke-linejoin="round"/>
<path d="M67.1926 504.278H43.6016V515.207H67.1926V504.278Z" stroke="#221F1F" stroke-width="1.25" stroke-linejoin="round"/>
<path d="M57.0598 483.323H53.71V504.268H57.0598V483.323Z" fill="#1A2427"/>
<path d="M9.07334 379.915L6.05664 381.373L52.1154 476.907L55.1321 475.449L9.07334 379.915Z" fill="#331108"/>
<path d="M16.1847 378.544L13.168 380.002L59.2267 475.536L62.2434 474.078L16.1847 378.544Z" fill="#331108"/>
<path d="M67.8908 481.841L58.7172 487.672C58.1041 488.063 57.399 488.284 56.673 488.315C55.9471 488.345 55.226 488.183 54.5825 487.845C53.9389 487.507 53.3958 487.006 53.0078 486.39C52.6198 485.775 52.4007 485.069 52.3726 484.342L51.9228 473.472C51.8915 472.746 52.052 472.024 52.3882 471.379C52.7245 470.734 53.2245 470.19 53.8379 469.8C54.4513 469.411 55.1564 469.19 55.8821 469.161C56.6078 469.131 57.3285 469.294 57.9715 469.632L67.6304 474.669C68.2708 475.011 68.8103 475.515 69.195 476.131C69.5796 476.747 69.796 477.454 69.8224 478.18C69.8487 478.906 69.6842 479.626 69.3452 480.269C69.0062 480.911 68.5047 481.453 67.8908 481.841Z" fill="#331108"/>
<path d="M67.8908 481.841L58.7172 487.672C58.1041 488.063 57.399 488.284 56.673 488.315C55.9471 488.345 55.226 488.183 54.5825 487.845C53.9389 487.507 53.3958 487.006 53.0078 486.39C52.6198 485.775 52.4007 485.069 52.3726 484.342L51.9228 473.472C51.8915 472.746 52.052 472.024 52.3882 471.379C52.7245 470.734 53.2245 470.19 53.8379 469.8C54.4513 469.411 55.1564 469.19 55.8821 469.161C56.6078 469.131 57.3285 469.294 57.9715 469.632L67.6304 474.669C68.2708 475.011 68.8103 475.515 69.195 476.131C69.5796 476.747 69.796 477.454 69.8224 478.18C69.8487 478.906 69.6842 479.626 69.3452 480.269C69.0062 480.911 68.5047 481.453 67.8908 481.841V481.841Z" stroke="#221F1F" stroke-width="1.25" stroke-miterlimit="10"/>
<path d="M18.5662 376.195L13.3461 385.736C12.9937 386.361 12.485 386.883 11.8701 387.251C11.2552 387.62 10.5552 387.822 9.83883 387.837C9.12247 387.853 8.41439 387.681 7.78413 387.34C7.15387 386.999 6.6231 386.499 6.24396 385.89L0.597737 376.598C0.222172 375.976 0.0163704 375.266 0.000936912 374.539C-0.0144966 373.812 0.160981 373.095 0.509799 372.457C0.858618 371.82 1.36854 371.285 1.98849 370.907C2.60845 370.529 3.31668 370.321 4.04229 370.304L14.8968 370.067C15.6172 370.062 16.3265 370.245 16.9546 370.598C17.5828 370.952 18.108 371.463 18.4785 372.082C18.849 372.7 19.052 373.405 19.0673 374.126C19.0827 374.848 18.91 375.561 18.5662 376.195Z" fill="#331108"/>
<path d="M110.457 312.343L105.568 322.063C105.236 322.699 104.745 323.238 104.142 323.627C103.54 324.016 102.847 324.241 102.131 324.282C101.416 324.323 100.702 324.177 100.059 323.858C99.4168 323.54 98.8679 323.06 98.4661 322.466L92.5476 313.362C92.149 312.754 91.9176 312.052 91.8767 311.326C91.8358 310.599 91.9868 309.875 92.3145 309.226C92.6422 308.577 93.135 308.026 93.7433 307.628C94.3516 307.231 95.0538 307.001 95.7791 306.962L106.622 306.345C107.339 306.32 108.051 306.482 108.687 306.816C109.323 307.149 109.861 307.643 110.248 308.249C110.635 308.854 110.858 309.55 110.894 310.268C110.931 310.986 110.78 311.701 110.457 312.343Z" fill="#331108"/>
<path d="M110.457 312.343L105.568 322.063C105.236 322.699 104.745 323.238 104.142 323.627C103.54 324.016 102.847 324.241 102.131 324.282C101.416 324.323 100.702 324.177 100.059 323.858C99.4168 323.54 98.8679 323.06 98.4661 322.466L92.5476 313.362C92.149 312.754 91.9176 312.052 91.8767 311.326C91.8358 310.599 91.9868 309.875 92.3145 309.226C92.6422 308.577 93.135 308.026 93.7433 307.628C94.3516 307.231 95.0538 307.001 95.7791 306.962L106.622 306.345C107.339 306.32 108.051 306.482 108.687 306.816C109.323 307.149 109.861 307.643 110.248 308.249C110.635 308.854 110.858 309.55 110.894 310.268C110.931 310.986 110.78 311.701 110.457 312.343V312.343Z" stroke="#221F1F" stroke-width="1.25" stroke-miterlimit="10"/>
<path d="M497.622 502.198H319.247V521.829H497.622V502.198Z" fill="white"/>
<path d="M497.622 502.198H319.247V521.829H497.622V502.198Z" stroke="#221F1F" stroke-width="2" stroke-miterlimit="10"/>
<path d="M402.591 484.545H278.516V492.268H402.591V484.545Z" fill="#331108"/>
<path d="M361.861 343.782H319.247V484.546H361.861V343.782Z" fill="#331108"/>
<path d="M361.861 343.782H319.247V484.546H361.861V343.782Z" stroke="#221F1F" stroke-width="1.25" stroke-linecap="round" stroke-linejoin="round"/>
<path d="M402.591 484.545H278.516V492.268H402.591V484.545Z" stroke="#221F1F" stroke-width="1.25" stroke-linecap="round" stroke-linejoin="round"/>
<path d="M464.965 428.235H216.143C214.961 428.234 213.815 427.827 212.898 427.081C211.98 426.336 211.345 425.298 211.1 424.14L175.128 253.814C174.971 253.063 174.983 252.286 175.163 251.539C175.344 250.793 175.688 250.097 176.171 249.5C176.654 248.904 177.264 248.423 177.956 248.093C178.648 247.762 179.404 247.59 180.171 247.589H500.937C501.703 247.59 502.46 247.762 503.152 248.093C503.844 248.423 504.454 248.904 504.937 249.5C505.42 250.097 505.764 250.793 505.944 251.539C506.125 252.286 506.137 253.063 505.98 253.814L470.008 424.14C469.763 425.298 469.128 426.336 468.21 427.081C467.292 427.827 466.147 428.234 464.965 428.235Z" fill="#331108"/>
<path d="M418.082 380.396H263.026C261.789 380.394 260.594 379.947 259.659 379.136C258.724 378.325 258.111 377.205 257.931 375.979L248.671 313.095C248.563 312.362 248.615 311.614 248.822 310.903C249.028 310.191 249.385 309.533 249.868 308.972C250.352 308.411 250.95 307.96 251.622 307.651C252.295 307.342 253.025 307.181 253.765 307.18H427.329C428.069 307.181 428.8 307.342 429.473 307.651C430.145 307.96 430.743 308.411 431.226 308.972C431.71 309.533 432.067 310.191 432.273 310.903C432.48 311.614 432.531 312.362 432.424 313.095L423.176 376.031C422.986 377.247 422.368 378.355 421.434 379.155C420.5 379.956 419.311 380.396 418.082 380.396Z" stroke="white" stroke-width="1.25" stroke-miterlimit="10"/>
<path d="M296.031 380.396H263.026C261.789 380.394 260.594 379.947 259.659 379.136C258.724 378.325 258.111 377.205 257.931 375.979L248.671 313.095C248.563 312.362 248.615 311.614 248.822 310.903C249.028 310.191 249.385 309.533 249.868 308.972C250.352 308.411 250.95 307.96 251.622 307.651C252.295 307.342 253.025 307.181 253.765 307.18H290.175L296.031 380.396Z" stroke="white" stroke-width="1.25" stroke-miterlimit="10"/>
<path d="M418.081 380.396H385.076L390.932 307.18H427.329C428.069 307.181 428.8 307.342 429.472 307.651C430.145 307.96 430.743 308.411 431.226 308.972C431.709 309.533 432.066 310.191 432.273 310.903C432.479 311.614 432.531 312.362 432.424 313.095L423.176 376.031C422.985 377.247 422.367 378.355 421.433 379.155C420.499 379.956 419.311 380.396 418.081 380.396Z" stroke="white" stroke-width="1.25" stroke-miterlimit="10"/>
<path d="M267.282 331.37C267.408 332.638 267.981 333.819 268.898 334.701C269.815 335.584 271.016 336.111 272.286 336.188C272.872 336.168 273.446 336.021 273.97 335.759C274.494 335.496 274.956 335.124 275.323 334.667C275.69 334.209 275.955 333.678 276.098 333.109C276.242 332.541 276.261 331.947 276.155 331.37C276.038 330.091 275.468 328.896 274.548 328.001C273.628 327.106 272.419 326.569 271.138 326.488C270.547 326.509 269.967 326.657 269.44 326.925C268.912 327.192 268.448 327.571 268.081 328.035C267.714 328.5 267.453 329.039 267.315 329.615C267.177 330.19 267.165 330.79 267.282 331.37V331.37Z" stroke="white" stroke-width="1.25" stroke-miterlimit="10"/>
<path d="M270.739 360.017C270.884 361.191 271.441 362.276 272.31 363.078C273.18 363.879 274.304 364.346 275.485 364.395C276.033 364.396 276.574 364.278 277.072 364.05C277.569 363.821 278.012 363.488 278.368 363.071C278.725 362.655 278.987 362.167 279.138 361.64C279.288 361.112 279.322 360.559 279.238 360.017C279.107 358.829 278.554 357.728 277.681 356.912C276.808 356.097 275.672 355.623 274.479 355.574C273.926 355.574 273.38 355.694 272.879 355.927C272.377 356.161 271.933 356.501 271.576 356.924C271.22 357.347 270.96 357.843 270.816 358.378C270.671 358.912 270.645 359.472 270.739 360.017V360.017Z" stroke="white" stroke-width="1.25" stroke-miterlimit="10"/>
<path d="M413.826 331.37C413.699 332.638 413.126 333.819 412.209 334.701C411.292 335.584 410.091 336.111 408.821 336.188C408.236 336.168 407.661 336.021 407.137 335.759C406.613 335.496 406.152 335.124 405.785 334.667C405.417 334.209 405.153 333.678 405.009 333.109C404.866 332.541 404.846 331.947 404.952 331.37C405.069 330.091 405.64 328.896 406.56 328.001C407.48 327.106 408.689 326.569 409.969 326.488C410.56 326.509 411.14 326.657 411.668 326.925C412.196 327.192 412.659 327.571 413.026 328.035C413.393 328.5 413.655 329.039 413.793 329.615C413.931 330.19 413.942 330.79 413.826 331.37Z" stroke="white" stroke-width="1.25" stroke-miterlimit="10"/>
<path d="M410.368 360.017C410.223 361.191 409.666 362.276 408.797 363.078C407.928 363.879 406.803 364.346 405.622 364.395C405.075 364.396 404.533 364.278 404.036 364.05C403.538 363.821 403.096 363.488 402.739 363.071C402.382 362.655 402.12 362.167 401.97 361.64C401.819 361.112 401.785 360.559 401.869 360.017C402.001 358.829 402.553 357.728 403.426 356.912C404.299 356.097 405.435 355.623 406.628 355.574C407.181 355.574 407.727 355.694 408.229 355.927C408.73 356.161 409.175 356.501 409.531 356.924C409.887 357.347 410.147 357.843 410.292 358.378C410.436 358.912 410.462 359.472 410.368 360.017V360.017Z" stroke="white" stroke-width="1.25" stroke-miterlimit="10"/>
<path d="M464.965 428.235H216.143C214.961 428.234 213.815 427.827 212.898 427.081C211.98 426.336 211.345 425.298 211.1 424.14L175.128 253.814C174.971 253.063 174.983 252.286 175.163 251.539C175.344 250.793 175.688 250.097 176.171 249.5C176.654 248.904 177.264 248.423 177.956 248.093C178.648 247.762 179.404 247.59 180.171 247.589H500.937C501.703 247.59 502.46 247.762 503.152 248.093C503.844 248.423 504.454 248.904 504.937 249.5C505.42 250.097 505.764 250.793 505.944 251.539C506.125 252.286 506.137 253.063 505.98 253.814L470.008 424.14C469.763 425.298 469.128 426.336 468.21 427.081C467.292 427.827 466.147 428.234 464.965 428.235V428.235Z" stroke="#221F1F" stroke-width="1.25" stroke-miterlimit="10"/>
<path d="M361.86 428.235V359.978" stroke="white" stroke-width="1.25" stroke-linecap="round" stroke-linejoin="round"/>
<path d="M319.247 428.235V359.978" stroke="white" stroke-width="1.25" stroke-linecap="round" stroke-linejoin="round"/>
<path d="M319.247 484.545H278.516V492.281" stroke="white" stroke-width="1.25" stroke-linecap="round" stroke-linejoin="round"/>
<path d="M361.86 484.545H402.591V492.281" stroke="white" stroke-width="1.25" stroke-linecap="round" stroke-linejoin="round"/>
<path d="M251.92 511.642H276.787C279.49 511.642 282.081 512.717 283.992 514.63C285.903 516.544 286.976 519.139 286.976 521.845H241.68C241.68 520.501 241.945 519.17 242.46 517.928C242.975 516.687 243.731 515.56 244.682 514.612C245.634 513.664 246.763 512.913 248.005 512.404C249.248 511.894 250.578 511.635 251.92 511.642Z" fill="white"/>
<path d="M251.92 511.642H276.787C279.49 511.642 282.081 512.717 283.992 514.63C285.903 516.544 286.976 519.139 286.976 521.845V521.845H241.68C241.68 520.501 241.945 519.17 242.46 517.928C242.975 516.687 243.731 515.56 244.682 514.612C245.634 513.664 246.763 512.913 248.005 512.404C249.248 511.894 250.578 511.635 251.92 511.642V511.642Z" stroke="#221F1F" stroke-width="2" stroke-miterlimit="10"/>
<path d="M286.925 521.831C286.925 519.125 285.851 516.53 283.941 514.616C282.03 512.703 279.438 511.628 276.736 511.628H251.921C249.218 511.628 246.627 512.703 244.716 514.616C242.805 516.53 241.731 519.125 241.731 521.831V521.831" stroke="#221F1F" stroke-width="2" stroke-miterlimit="10"/>
<path d="M264.302 511.642V512.752C264.304 513.276 264.202 513.794 264.004 514.279C263.805 514.763 263.512 515.203 263.143 515.573C262.774 515.944 262.336 516.238 261.853 516.439C261.37 516.64 260.853 516.743 260.33 516.743H243.047" stroke="#221F1F" stroke-width="2" stroke-miterlimit="10"/>
<path d="M264.303 511.642V512.752C264.301 513.276 264.403 513.794 264.601 514.279C264.8 514.763 265.093 515.203 265.462 515.573C265.831 515.944 266.269 516.238 266.752 516.439C267.235 516.64 267.752 516.743 268.275 516.743H285.558" stroke="#221F1F" stroke-width="2" stroke-miterlimit="10"/>
<path d="M215.304 492.281V521.831H258.782V507.056H422.324V521.831H465.803V492.281H215.304Z" fill="white"/>
<path d="M465.803 492.281H215.304V521.831H465.803V492.281Z" stroke="#221F1F" stroke-width="2" stroke-miterlimit="10"/>
<path d="M422.325 521.83V507.055H258.783V521.83H422.325Z" stroke="#221F1F" stroke-width="2" stroke-miterlimit="10"/>
<path d="M805.654 423.723C805.654 423.723 795.621 425.607 786.325 424.51C786.325 424.51 773.199 427.423 773.843 439.579H760.684C762.586 428.621 766.167 418.023 771.301 408.16C772.49 407.517 773.762 407.041 775.08 406.745C775.08 406.745 797.645 399.964 805.654 423.723Z" fill="#DA1A3D"/>
<path d="M753.351 421.001C753.24 427.22 752.681 433.423 751.679 439.561H743.971C744.113 437.343 744.673 425.748 740.702 416.865C736.522 392.412 725.395 398.297 725.395 398.297C728.948 392.068 732.735 389.925 737.157 389.783C746.245 389.465 749.255 393.793 751.646 403.052C753.076 408.619 753.485 415.082 753.351 421.001Z" fill="#DA1A3D"/>
<path d="M786.216 389.776C779.862 394.656 774.996 401.303 771.301 408.193C766.167 418.056 762.586 428.654 760.683 439.612H751.671C752.673 433.474 753.231 427.271 753.343 421.052C762.18 377.938 786.216 389.776 786.216 389.776Z" fill="#DA1A3D"/>
<path d="M779.268 493.927C779.268 509.607 773.123 522.316 750.91 522.316C728.881 522.29 722.552 509.582 722.552 493.927C722.548 489.681 723.496 485.489 725.327 481.659C727.157 477.83 729.823 474.461 733.128 471.801L722.97 439.595H778.842L768.676 471.792C771.984 474.451 774.654 477.821 776.488 481.653C778.321 485.484 779.271 489.679 779.268 493.927Z" fill="white"/>
<path d="M779.268 493.927C779.268 509.607 773.123 522.316 750.91 522.316C728.881 522.29 722.552 509.582 722.552 493.927C722.548 489.681 723.496 485.489 725.327 481.659C727.157 477.83 729.823 474.461 733.128 471.801L722.97 439.595H778.842L768.676 471.792C771.984 474.451 774.654 477.821 776.488 481.653C778.321 485.484 779.271 489.679 779.268 493.927Z" stroke="#221F1F" stroke-width="2" stroke-linecap="round" stroke-linejoin="round"/>
<path d="M743.963 439.57H730.662C731.305 427.423 718.18 424.501 718.18 424.501C708.858 425.598 698.851 423.714 698.851 423.714C706.86 399.955 729.424 406.728 729.424 406.728C735.042 408.009 738.537 412.036 740.694 416.866C744.665 425.757 744.105 437.352 743.963 439.57Z" fill="#DA1A3D"/>
<path d="M743.963 439.57H730.662C731.305 427.423 718.18 424.501 718.18 424.501C708.858 425.598 698.851 423.714 698.851 423.714C706.86 399.955 729.424 406.728 729.424 406.728C735.042 408.009 738.537 412.036 740.694 416.866C744.665 425.757 744.105 437.352 743.963 439.57Z" stroke="#221F1F" stroke-width="2" stroke-linecap="round" stroke-linejoin="round"/>
<path d="M729.516 420.684C726.557 422.894 722.443 424.032 718.18 424.509" stroke="#221F1F" stroke-width="2" stroke-linecap="round" stroke-linejoin="round"/>
<path d="M805.654 423.723C805.654 423.723 795.621 425.607 786.325 424.51C786.325 424.51 773.199 427.423 773.843 439.579H760.684C762.586 428.621 766.167 418.023 771.301 408.16C772.49 407.517 773.762 407.041 775.08 406.745C775.08 406.745 797.645 399.964 805.654 423.723Z" stroke="#221F1F" stroke-width="2" stroke-linecap="round" stroke-linejoin="round"/>
<path d="M774.988 420.684C777.948 422.894 782.061 424.032 786.325 424.509" stroke="#221F1F" stroke-width="2" stroke-linecap="round" stroke-linejoin="round"/>
<path d="M760.574 439.947C760.574 439.947 760.574 439.813 760.574 439.57" stroke="#221F1F" stroke-width="2" stroke-miterlimit="10"/>
<path d="M753.351 421.001C753.24 427.22 752.681 433.423 751.679 439.561H743.971C744.113 437.343 744.673 425.748 740.702 416.865C736.522 392.412 725.395 398.297 725.395 398.297C728.948 392.068 732.735 389.925 737.157 389.783C746.245 389.465 749.255 393.793 751.646 403.052C753.076 408.619 753.485 415.082 753.351 421.001Z" stroke="#221F1F" stroke-width="2" stroke-linecap="round" stroke-linejoin="round"/>
<path d="M786.216 389.776C779.862 394.656 774.996 401.303 771.301 408.193C766.167 418.056 762.586 428.654 760.683 439.612H751.671C752.673 433.474 753.231 427.271 753.343 421.052V421.052C762.18 377.938 786.216 389.776 786.216 389.776Z" stroke="#221F1F" stroke-width="2" stroke-linecap="round" stroke-linejoin="round"/>
<path d="M691.132 521.367L673.97 404.771L657.43 416.052C657.43 416.052 641.591 414.396 636.775 427.918C636.775 427.918 631.123 443.311 646.962 450.794L620.226 521.153L691.132 521.367Z" fill="#331108"/>
<path d="M691.132 521.367L673.97 404.771L657.43 416.052C657.43 416.052 641.591 414.396 636.775 427.918C636.775 427.918 631.123 443.311 646.962 450.794L620.226 521.153L691.132 521.367Z" stroke="#221F1F" stroke-width="1.25" stroke-linecap="round" stroke-linejoin="round"/>
<path d="M679.875 512.161C679.875 512.161 673.716 499.389 661.069 501.376C661.069 501.376 650.989 502.789 648.372 510.583H629.566" stroke="white" stroke-width="1.25" stroke-linecap="round" stroke-linejoin="round"/>
<path d="M649.929 471.798L642.496 495.063" stroke="white" stroke-width="1.25" stroke-linecap="round" stroke-linejoin="round"/>
<path d="M670.214 414.389L670.379 424.004L664.921 417.165L670.214 414.389Z" fill="white"/>
<path d="M653.352 427.386C652.801 426.67 653.45 425.242 654.802 424.197C656.155 423.151 657.699 422.883 658.25 423.599C658.802 424.314 658.153 425.742 656.8 426.788C655.448 427.833 653.904 428.101 653.352 427.386Z" fill="white"/>
<path d="M681.342 521.367L681.235 521.581C681.235 521.581 695.07 528.089 682.49 541.32C682.49 541.32 672.469 550.214 667.079 558.651C665.878 560.466 664.923 562.431 664.238 564.497C664.238 564.497 661.319 576.041 668.023 585.19C668.023 585.19 678.822 601.313 701.676 603.213C704.633 603.475 707.614 603.231 710.49 602.492C711.08 602.314 711.608 601.975 712.015 601.512C712.422 601.049 712.692 600.481 712.793 599.872C712.894 599.264 712.823 598.639 712.588 598.069C712.353 597.499 711.964 597.006 711.463 596.647C711.066 596.357 710.609 596.16 710.126 596.071C709.642 595.982 709.145 596.002 708.671 596.13C707.144 596.515 705.575 596.701 704.001 596.686C703.427 596.686 702.853 596.686 702.327 596.627C683.025 595.02 673.889 582.014 673.5 581.468L673.451 581.4L673.374 581.283C669.005 575.321 670.387 567.429 670.64 566.231C671.757 563.495 673.301 560.953 675.212 558.7C678.757 554.264 682.662 550.129 686.887 546.337L687.082 546.152L687.286 545.947C692.939 539.995 695.245 534.013 694.145 528.109C693.679 525.67 692.642 523.376 691.12 521.416L681.342 521.367Z" fill="#331108"/>
<path d="M681.342 521.367L681.235 521.581C681.235 521.581 695.07 528.089 682.49 541.32C682.49 541.32 672.469 550.214 667.079 558.651C665.878 560.466 664.923 562.431 664.238 564.497C664.238 564.497 661.319 576.041 668.023 585.19C668.023 585.19 678.822 601.313 701.676 603.213C704.633 603.475 707.614 603.231 710.49 602.492C711.08 602.314 711.608 601.975 712.015 601.512C712.422 601.049 712.692 600.481 712.793 599.872C712.894 599.264 712.823 598.639 712.588 598.069C712.353 597.499 711.964 597.006 711.463 596.647C711.066 596.357 710.609 596.16 710.126 596.071C709.642 595.982 709.145 596.002 708.671 596.13C707.144 596.515 705.575 596.701 704.001 596.686C703.427 596.686 702.853 596.686 702.327 596.627C683.025 595.02 673.889 582.014 673.5 581.468L673.451 581.4L673.374 581.283C669.005 575.321 670.387 567.429 670.64 566.231C671.757 563.495 673.301 560.953 675.212 558.7C678.757 554.264 682.662 550.129 686.887 546.337L687.082 546.152L687.286 545.947C692.939 539.995 695.245 534.013 694.145 528.109C693.679 525.67 692.642 523.376 691.12 521.416L681.342 521.367Z" stroke="#221F1F" stroke-width="1.25" stroke-linecap="round" stroke-linejoin="round"/>
<path d="M587.185 517.325H546.153V521.368H587.185V517.325Z" fill="white"/>
<path d="M588.371 515.304H544.978V517.325H588.371V515.304Z" fill="white"/>
<path d="M578.453 455.078H554.904V515.314H578.453V455.078Z" fill="white"/>
<path d="M561.516 436.375L555.914 429.838L553.803 431.618L558.748 437.386C559.47 438.227 559.868 439.299 559.868 440.409V507.506H562.591V439.398C562.603 438.295 562.222 437.223 561.516 436.375Z" fill="#720E28"/>
<path d="M587.185 517.325H546.153V521.368H587.185V517.325Z" stroke="#221F1F" stroke-width="1.25" stroke-linejoin="round"/>
<path d="M588.371 515.304H544.978V517.325H588.371V515.304Z" stroke="#221F1F" stroke-width="1.25" stroke-linejoin="round"/>
<path d="M578.453 483.425H554.904V515.314H578.453V483.425Z" fill="#720E28"/>
<path d="M561.516 436.375L555.914 429.838L553.803 431.618L558.748 437.386C559.47 438.227 559.868 439.299 559.868 440.409V507.506H562.591V439.398C562.603 438.295 562.222 437.223 561.516 436.375V436.375Z" stroke="#221F1F" stroke-width="1.25" stroke-linecap="round" stroke-linejoin="round"/>
<path d="M578.453 483.425H554.904V515.314H578.453V483.425Z" stroke="#221F1F" stroke-width="1.25" stroke-linejoin="round"/>
<path d="M578.453 455.078H554.904V515.314H578.453V455.078Z" stroke="#221F1F" stroke-width="1.25" stroke-linejoin="round"/>
<path d="M575.703 479.798L575.157 481.773L574.194 485.25L571.48 484.499L571.888 484.323L570.777 481.773L569.869 479.687L570.258 478.296L575.703 479.798Z" fill="white" stroke="#221F1F" stroke-width="1.25" stroke-linecap="round" stroke-linejoin="round"/>
<path d="M563.081 480.958L562.627 481.588L562.498 481.774L561.544 483.091L560.738 484.194L559.905 483.582L557.516 481.839L557.571 481.774L559.858 478.603L559.905 478.64L560.84 479.326L562.627 480.624L563.081 480.958Z" fill="white" stroke="#221F1F" stroke-width="1.25" stroke-linecap="round" stroke-linejoin="round"/>
<path d="M571.888 484.325L571.481 484.501L563.647 487.914L562.628 485.586L561.545 483.092L562.498 481.775L562.628 481.59L563.082 480.959L562.628 480.625L560.841 479.327L562.628 478.539L568.295 476.072L569.869 479.689L570.777 481.775L571.888 484.325Z" fill="white" stroke="#221F1F" stroke-width="1.25" stroke-linecap="round" stroke-linejoin="round"/>
<path d="M1947.76 352.541C1923.56 327.996 1890.62 314.082 1856.18 313.859C1821.74 313.636 1788.62 327.123 1764.11 351.352C1739.6 375.581 1725.7 408.568 1725.48 443.057C1725.26 477.545 1738.72 510.709 1762.92 535.253L1763.49 535.836L1948.89 353.729L1947.75 352.565L1947.76 352.541ZM1785.64 372.753C1800.84 357.852 1820.38 348.187 1841.44 345.159C1862.5 342.131 1883.97 345.898 1902.74 355.913L1766.6 489.663C1756.95 470.679 1753.6 449.112 1757.02 428.09C1760.45 407.068 1770.47 387.686 1785.64 372.753Z" fill="white"/>
<path d="M1947.76 352.541C1923.56 327.996 1890.62 314.082 1856.18 313.859C1821.74 313.636 1788.62 327.123 1764.11 351.352C1739.6 375.581 1725.7 408.568 1725.48 443.057C1725.26 477.545 1738.72 510.709 1762.92 535.254L1763.49 535.836L1948.89 353.729L1947.75 352.565L1947.76 352.541ZM1785.64 372.753C1800.84 357.852 1820.38 348.187 1841.44 345.159C1862.5 342.131 1883.97 345.898 1902.74 355.913L1766.6 489.663C1756.95 470.679 1753.6 449.112 1757.02 428.09C1760.45 407.068 1770.47 387.686 1785.64 372.753Z" stroke="#221F1F" stroke-width="2" stroke-miterlimit="10"/>
<path d="M174.582 97.0166H59.1569C51.6867 97.0166 45.6309 103.081 45.6309 110.561V137.852C45.6309 145.332 51.6867 151.396 59.1569 151.396H174.582C182.052 151.396 188.108 145.332 188.108 137.852V110.561C188.108 103.081 182.052 97.0166 174.582 97.0166Z" fill="#720E28"/>
<path d="M172.722 108.91H103.591C102.099 108.91 100.89 110.121 100.89 111.615V112.546C100.89 114.04 102.099 115.25 103.591 115.25H172.722C174.214 115.25 175.423 114.04 175.423 112.546V111.615C175.423 110.121 174.214 108.91 172.722 108.91Z" fill="white"/>
<path d="M172.721 121.03H73.2878C71.7962 121.03 70.5869 122.241 70.5869 123.735V124.666C70.5869 126.16 71.7962 127.37 73.2878 127.37H172.721C174.213 127.37 175.422 126.16 175.422 124.666V123.735C175.422 122.241 174.213 121.03 172.721 121.03Z" fill="white"/>
<path d="M172.721 133.138H73.2878C71.7962 133.138 70.5869 134.348 70.5869 135.842V136.773C70.5869 138.267 71.7962 139.478 73.2878 139.478H172.721C174.213 139.478 175.422 138.267 175.422 136.773V135.842C175.422 134.348 174.213 133.138 172.721 133.138Z" fill="white"/>
<path d="M312.541 162.388H205.025C198.067 162.388 192.426 168.036 192.426 175.004V200.425C192.426 207.393 198.067 213.041 205.025 213.041H312.541C319.499 213.041 325.14 207.393 325.14 200.425V175.004C325.14 168.036 319.499 162.388 312.541 162.388Z" fill="#DA1A3D"/>
<path d="M208.042 179.384H272.437C273.826 179.384 274.952 178.256 274.952 176.865V175.997C274.952 174.606 273.826 173.478 272.437 173.478H208.042C206.652 173.478 205.526 174.606 205.526 175.997V176.865C205.526 178.256 206.652 179.384 208.042 179.384Z" fill="white"/>
<path d="M208.031 190.672H300.651C302.041 190.672 303.167 189.544 303.167 188.153V187.285C303.167 185.894 302.041 184.766 300.651 184.766H208.031C206.642 184.766 205.515 185.894 205.515 187.285V188.153C205.515 189.544 206.642 190.672 208.031 190.672Z" fill="white"/>
<path d="M208.031 201.951H300.651C302.041 201.951 303.167 200.823 303.167 199.432V198.565C303.167 197.173 302.041 196.045 300.651 196.045H208.031C206.642 196.045 205.515 197.173 205.515 198.565V199.432C205.515 200.823 206.642 201.951 208.031 201.951Z" fill="white"/>
<path d="M1852.25 166.498C1855.99 166.498 1859.02 163.462 1859.02 159.717C1859.02 155.972 1855.99 152.937 1852.25 152.937C1848.51 152.937 1845.48 155.972 1845.48 159.717C1845.48 163.462 1848.51 166.498 1852.25 166.498Z" fill="white"/>
<path d="M1582.64 415.461L1575.69 285.884" stroke="#221F1F" stroke-width="2" stroke-miterlimit="10"/>
<path d="M1605.11 302.491L1595.39 430.446" stroke="#221F1F" stroke-width="2" stroke-miterlimit="10"/>
<path d="M1649.15 267.934L1627.01 266.702C1622.82 266.469 1619.24 269.677 1619.01 273.866C1618.77 278.056 1621.98 281.641 1626.17 281.874L1648.31 283.106C1652.5 283.339 1656.08 280.132 1656.31 275.942C1656.55 271.752 1653.34 268.167 1649.15 267.934Z" fill="white"/>
<path d="M1582.92 269.226L1561.46 274.846C1557.41 275.909 1554.98 280.061 1556.04 284.121C1557.1 288.18 1561.25 290.61 1565.3 289.547L1586.76 283.926C1590.82 282.864 1593.25 278.711 1592.19 274.652C1591.13 270.592 1586.98 268.163 1582.92 269.226Z" fill="#DA1A3D"/>
<path d="M1649.15 267.934L1627.01 266.702C1622.82 266.469 1619.24 269.677 1619.01 273.866C1618.77 278.056 1621.98 281.641 1626.17 281.874L1648.31 283.106C1652.5 283.339 1656.08 280.132 1656.31 275.942C1656.55 271.752 1653.34 268.167 1649.15 267.934Z" stroke="#221F1F" stroke-width="2" stroke-miterlimit="10"/>
<path d="M1628.99 407.828L1637.73 282.216" stroke="#221F1F" stroke-width="2" stroke-miterlimit="10"/>
<path d="M1582.92 269.226L1561.46 274.846C1557.41 275.909 1554.98 280.061 1556.04 284.121C1557.1 288.18 1561.25 290.61 1565.3 289.547L1586.76 283.926C1590.82 282.864 1593.25 278.711 1592.19 274.652C1591.13 270.592 1586.98 268.163 1582.92 269.226Z" stroke="#221F1F" stroke-width="2" stroke-miterlimit="10"/>
<path d="M1656.33 300.304C1656.33 300.304 1648.42 304.311 1644.06 303.774C1639.69 303.238 1636.42 300.628 1636.74 297.919C1637.07 295.21 1640.87 293.461 1645.2 293.983C1649.52 294.505 1656.33 300.304 1656.33 300.304Z" fill="#720E28"/>
<path d="M1617.12 299.726C1617.12 299.726 1625.02 303.733 1629.39 303.197C1633.76 302.661 1637.02 300.051 1636.7 297.342C1636.38 294.633 1632.56 292.869 1628.25 293.406C1623.93 293.942 1617.12 299.726 1617.12 299.726Z" fill="#720E28"/>
<path d="M1656.33 300.304C1656.33 300.304 1648.42 304.311 1644.06 303.774C1639.69 303.238 1636.42 300.628 1636.74 297.919C1637.07 295.21 1640.87 293.461 1645.2 293.983C1649.52 294.505 1656.33 300.304 1656.33 300.304Z" stroke="#221F1F" stroke-width="2" stroke-miterlimit="10"/>
<path d="M1617.12 299.726C1617.12 299.726 1625.02 303.733 1629.39 303.197C1633.76 302.661 1637.02 300.051 1636.7 297.342C1636.38 294.633 1632.56 292.869 1628.25 293.406C1623.93 293.942 1617.12 299.726 1617.12 299.726Z" stroke="#221F1F" stroke-width="2" stroke-miterlimit="10"/>
<path d="M1635.18 506.818L1642.93 526.979C1643.36 528.059 1643.52 529.228 1643.39 530.384C1643.26 531.54 1642.85 532.646 1642.19 533.603C1641.53 534.561 1640.65 535.341 1639.62 535.874C1638.59 536.407 1637.44 536.677 1636.28 536.658H1567.55C1566.39 536.677 1565.24 536.407 1564.21 535.874C1563.17 535.341 1562.29 534.561 1561.63 533.603C1560.97 532.646 1560.56 531.54 1560.43 530.384C1560.31 529.228 1560.46 528.059 1560.9 526.979L1568.65 506.818C1573.64 493.824 1575.04 479.726 1572.72 466L1553.54 352.832C1553.4 351.983 1553.44 351.113 1553.67 350.283C1553.9 349.452 1554.3 348.682 1554.86 348.024C1555.41 347.367 1556.1 346.84 1556.89 346.478C1557.67 346.117 1558.52 345.931 1559.38 345.933H1644.46C1645.32 345.933 1646.17 346.121 1646.95 346.483C1647.73 346.845 1648.42 347.373 1648.97 348.03C1649.53 348.687 1649.93 349.457 1650.16 350.286C1650.38 351.115 1650.43 351.984 1650.28 352.832L1631.12 465.986C1628.79 479.715 1630.19 493.818 1635.18 506.818Z" fill="white"/>
<path d="M1635.18 506.818L1642.93 526.979C1643.36 528.059 1643.52 529.228 1643.39 530.384C1643.26 531.539 1642.85 532.646 1642.19 533.603C1641.53 534.561 1640.65 535.341 1639.62 535.874C1638.59 536.407 1637.44 536.677 1636.28 536.658H1567.55C1566.39 536.677 1565.24 536.407 1564.21 535.874C1563.17 535.341 1562.29 534.561 1561.63 533.603C1560.97 532.646 1560.56 531.539 1560.43 530.384C1560.31 529.228 1560.46 528.059 1560.9 526.979L1568.65 506.818C1573.64 493.824 1575.04 479.726 1572.72 466L1553.54 352.832C1553.4 351.983 1553.44 351.113 1553.67 350.283C1553.9 349.452 1554.3 348.682 1554.86 348.024C1555.41 347.367 1556.1 346.84 1556.89 346.478C1557.67 346.117 1558.52 345.931 1559.38 345.933H1644.46C1645.32 345.933 1646.17 346.121 1646.95 346.483C1647.73 346.845 1648.42 347.373 1648.97 348.03C1649.53 348.687 1649.93 349.457 1650.16 350.286C1650.38 351.115 1650.43 351.984 1650.28 352.832L1631.12 465.986C1628.79 479.715 1630.19 493.818 1635.18 506.818V506.818Z" stroke="#221F1F" stroke-width="2" stroke-miterlimit="10"/>
<path d="M1605.11 313.509C1611.19 313.509 1616.11 308.576 1616.11 302.49C1616.11 296.404 1611.19 291.471 1605.11 291.471C1599.03 291.471 1594.11 296.404 1594.11 302.49C1594.11 308.576 1599.03 313.509 1605.11 313.509Z" fill="#1A2427"/>
<path d="M1605.11 313.509C1611.19 313.509 1616.11 308.576 1616.11 302.49C1616.11 296.404 1611.19 291.471 1605.11 291.471C1599.03 291.471 1594.11 296.404 1594.11 302.49C1594.11 308.576 1599.03 313.509 1605.11 313.509Z" stroke="#221F1F" stroke-width="2" stroke-miterlimit="10"/>
<path d="M1207.68 425.598L1196.27 421.628C1195.04 421.225 1193.98 420.414 1193.27 419.329C1192.56 418.244 1192.24 416.949 1192.36 415.657L1193.16 405.716C1193.22 405.308 1193.36 404.917 1193.58 404.568C1193.79 404.22 1194.09 403.923 1194.43 403.698C1194.77 403.473 1195.16 403.325 1195.57 403.264C1195.98 403.203 1196.39 403.231 1196.79 403.346L1213.47 409.059L1207.68 425.598Z" fill="#DA1A3D"/>
<path d="M1237.44 465.22L1207.54 425.599L1213.22 409.088L1261.14 396.348L1237.44 465.22Z" fill="#221F1F"/>
<path d="M1461.75 535.978L1237.44 465.22L1261.14 396.348L1481.37 478.989L1461.75 535.978Z" fill="white"/>
<path d="M1461.75 535.978L1237.44 465.22L1261.14 396.348L1481.37 478.989L1461.75 535.978Z" stroke="#221F1F" stroke-width="2" stroke-linecap="round" stroke-linejoin="round"/>
<path d="M1237.44 465.22L1207.54 425.599L1213.22 409.088L1261.14 396.348L1237.44 465.22Z" stroke="#221F1F" stroke-width="2" stroke-linecap="round" stroke-linejoin="round"/>
<path d="M1207.68 425.598L1196.27 421.628C1195.04 421.225 1193.98 420.414 1193.27 419.329C1192.56 418.244 1192.24 416.949 1192.36 415.657L1193.16 405.716C1193.22 405.308 1193.36 404.917 1193.58 404.568C1193.79 404.22 1194.09 403.923 1194.43 403.698C1194.77 403.473 1195.16 403.325 1195.57 403.264C1195.98 403.203 1196.39 403.231 1196.79 403.346L1213.47 409.059L1207.68 425.598Z" stroke="#221F1F" stroke-width="2" stroke-linecap="round" stroke-linejoin="round"/>
<path d="M1178.5 540.979L1192.31 465.222H1237.44L1251.24 540.979H1178.5Z" fill="white"/>
<path d="M1178.5 540.979L1192.31 465.222H1237.44L1251.24 540.979H1178.5Z" stroke="#221F1F" stroke-width="2" stroke-linecap="round" stroke-linejoin="round"/>
<path d="M1910.11 536.659H1110.38V558.346H1910.11V536.659Z" fill="white"/>
<path d="M1910.11 536.659H1110.38V558.346H1910.11V536.659Z" stroke="#221F1F" stroke-width="2" stroke-miterlimit="10"/>
<path d="M1645.79 154.927C1639.15 154.899 1632.55 153.915 1626.19 152.003C1597.77 143.592 1600.03 126.668 1601.53 115.473C1602.07 111.468 1602.53 107.653 1601.24 106.461C1595.74 101.644 1573.05 101.875 1562.15 101.985C1558.47 101.985 1555.56 102.055 1553.73 101.985C1552.45 101.91 1551.18 101.726 1549.93 101.434C1526.17 142.39 1447.3 149.74 1443.69 150.06L1443.12 143.471C1443.96 143.391 1520.83 136.221 1543.67 99.0209C1541.75 97.9949 1539.98 96.7076 1538.41 95.1957C1535.76 92.4619 1532.11 85.6026 1537.28 79.1739L1537.47 78.9536C1538.9 77.2117 1540.88 76.0057 1543.08 75.5313C1545.29 75.0569 1547.59 75.3419 1549.61 76.34C1551.69 77.3062 1553.39 78.945 1554.43 80.9934C1555.47 83.0417 1555.79 85.3808 1555.35 87.6354C1555.15 88.6786 1554.89 89.7087 1554.57 90.7196C1554.11 92.2617 1553.57 93.7237 1552.97 95.2357C1553.34 95.2858 1553.73 95.3158 1554.12 95.3459C1555.72 95.436 1558.67 95.406 1562.12 95.3459C1580.4 95.1456 1598.8 95.466 1605.63 101.454C1609.63 104.959 1608.9 110.466 1608.12 116.294C1606.71 126.849 1605.12 138.805 1628.12 145.614C1653.54 153.134 1670.2 142.901 1676.18 138.144C1684.03 131.916 1688.65 123.694 1688.25 116.675L1694.85 116.294C1695.37 125.427 1689.79 135.791 1680.28 143.331C1670.77 150.871 1658.65 154.927 1645.79 154.927ZM1545.11 81.9576C1544.61 81.9606 1544.11 82.0774 1543.66 82.2994C1543.21 82.5215 1542.82 82.8428 1542.51 83.2394L1542.42 83.3495C1539.76 86.644 1542.58 89.9485 1543.17 90.5794C1544.23 91.5731 1545.42 92.4277 1546.7 93.1229C1547.29 91.7104 1547.81 90.2663 1548.25 88.797L1548.3 88.6568C1548.53 87.9249 1548.72 87.1791 1548.86 86.4237C1549.03 85.6058 1548.92 84.7521 1548.54 84.0075C1548.16 83.2628 1547.53 82.673 1546.77 82.3382C1546.25 82.0895 1545.68 81.9595 1545.11 81.9576Z" fill="#331108"/>
<path d="M1950.31 176.51L1776.55 76.4971L1746.36 129.099L1920.12 229.112L1950.31 176.51Z" fill="#331108"/>
<path d="M1769.04 89.5969L1781.9 88.254L1776.58 76.4471L1725.12 81.8149L1746.39 129.056L1759.26 127.708L1753.94 115.901L1766.8 114.558L1761.49 102.751L1774.36 101.404L1769.04 89.5969Z" fill="white"/>
<path d="M1731.39 81.1594L1734.66 87.3066L1727.71 87.576L1725.12 81.8145L1731.39 81.1594Z" fill="#331108"/>
<path d="M1746.39 129.056L1920.15 229.06L1950.35 176.46L1776.58 76.4472" stroke="#221F1F" stroke-width="2" stroke-linecap="round" stroke-linejoin="round"/>
<path d="M1950.31 176.507L1965.77 185.404C1968.28 186.85 1970.12 189.234 1970.87 192.034C1971.63 194.834 1971.24 197.82 1969.8 200.334L1950.48 233.984C1949.77 235.229 1948.81 236.321 1947.68 237.197C1946.54 238.074 1945.24 238.717 1943.86 239.092C1942.47 239.466 1941.03 239.564 1939.61 239.379C1938.19 239.194 1936.81 238.731 1935.57 238.015L1920.11 229.118L1950.31 176.507Z" stroke="#221F1F" stroke-width="2" stroke-linecap="round" stroke-linejoin="round"/>
<path d="M1731.39 81.1603L1734.66 87.3075L1727.71 87.577L1725.12 81.8155L1731.39 81.1603Z" stroke="#221F1F" stroke-width="2" stroke-linecap="round" stroke-linejoin="round"/>
<path d="M1769.04 89.5969L1781.9 88.254L1776.58 76.4471L1725.12 81.8149L1746.39 129.056L1759.26 127.708L1753.94 115.901L1766.8 114.558L1761.49 102.751L1774.36 101.404L1769.04 89.5969Z" stroke="#221F1F" stroke-width="2" stroke-linecap="round" stroke-linejoin="round"/>
<path d="M1790.21 93.0353L1939.29 178.835" stroke="white" stroke-width="2" stroke-linecap="round" stroke-linejoin="round"/>
<path d="M1782.66 106.19L1931.73 191.989" stroke="white" stroke-width="2" stroke-linecap="round" stroke-linejoin="round"/>
<path d="M1775.11 119.339L1924.19 205.138" stroke="white" stroke-width="2" stroke-linecap="round" stroke-linejoin="round"/>
<path d="M1767.57 132.489L1916.63 218.285" stroke="white" stroke-width="2" stroke-linecap="round" stroke-linejoin="round"/>
</svg>
