<svg width="772" height="207" viewBox="0 0 772 207" fill="none" xmlns="http://www.w3.org/2000/svg">
<path d="M48.6741 141.615H135.18C142.337 141.615 149.202 144.458 154.263 149.519C159.324 154.58 162.167 161.444 162.167 168.602V186.451H21.6875V168.602C21.6875 161.444 24.5307 154.58 29.5916 149.519C34.6525 144.458 41.5169 141.615 48.6741 141.615Z" fill="#331108"/>
<path d="M48.6741 141.615H135.18C142.337 141.615 149.202 144.458 154.263 149.519C159.324 154.58 162.167 161.444 162.167 168.602V186.451H21.6875V168.602C21.6875 161.444 24.5307 154.58 29.5916 149.519C34.6525 144.458 41.5169 141.615 48.6741 141.615Z" stroke="#221F1F" stroke-width="2" stroke-miterlimit="10"/>
<path d="M162.167 175.12H21.6875V186.469H162.167V175.12Z" fill="white"/>
<path d="M162.167 175.12H21.6875V186.469H162.167V175.12Z" stroke="#221F1F" stroke-width="2" stroke-miterlimit="10"/>
<path d="M334.651 18.0156L197.303 186.468H472L334.651 18.0156ZM334.651 69.7935L403.087 153.696H266.232L334.651 69.7935Z" fill="white"/>
<path d="M334.651 18.0156L197.303 186.468H472L334.651 18.0156ZM334.651 69.7935L403.087 153.696H266.232L334.651 69.7935Z" stroke="#221F1F" stroke-width="2" stroke-linecap="round" stroke-linejoin="round"/>
<path d="M588.383 50.1948C588.383 50.1948 601.657 52.7982 613.957 51.2824C613.957 51.2824 631.324 55.3092 630.472 72.1105H647.883C645.366 56.9646 640.627 42.3164 633.835 28.6839C632.262 27.7953 630.579 27.1373 628.835 26.7284C628.835 26.7284 598.98 17.3558 588.383 50.1948Z" fill="#DA1A3D"/>
<path d="M657.584 46.4342C657.731 55.0297 658.471 63.603 659.796 72.0874H669.995C669.807 69.0211 669.065 52.995 674.32 40.718C679.85 6.91862 694.573 15.0531 694.573 15.0531C689.872 6.44417 684.861 3.48197 679.01 3.28526C666.986 2.84555 663.004 8.82786 659.84 21.6256C657.949 29.3204 657.407 38.2533 657.584 46.4342Z" fill="#DA1A3D"/>
<path d="M614.101 3.27413C622.507 10.0201 628.945 19.2076 633.834 28.7307C640.627 42.3631 645.365 57.0114 647.882 72.1573H659.807C658.481 63.6729 657.742 55.0996 657.594 46.504C645.902 -13.0875 614.101 3.27413 614.101 3.27413Z" fill="#DA1A3D"/>
<path d="M623.293 147.231C623.293 168.903 631.423 186.469 660.813 186.469C689.96 186.434 698.334 168.869 698.334 147.231C698.339 141.362 697.084 135.568 694.663 130.275C692.241 124.981 688.713 120.325 684.341 116.648L697.781 72.1338H623.857L637.308 116.636C632.93 120.312 629.398 124.97 626.972 130.265C624.546 135.561 623.289 141.359 623.293 147.231Z" fill="white"/>
<path d="M623.293 147.231C623.293 168.903 631.423 186.469 660.813 186.469C689.96 186.434 698.334 168.869 698.334 147.231C698.339 141.362 697.084 135.568 694.663 130.275C692.241 124.981 688.713 120.325 684.341 116.648L697.781 72.1338H623.857L637.308 116.636C632.93 120.312 629.398 124.97 626.972 130.265C624.546 135.561 623.289 141.359 623.293 147.231Z" stroke="#221F1F" stroke-width="2" stroke-linecap="round" stroke-linejoin="round"/>
<path d="M670.006 72.0996H687.604C686.753 55.3098 704.119 51.2715 704.119 51.2715C716.453 52.7873 729.693 50.1838 729.693 50.1838C719.096 17.3448 689.242 26.7059 689.242 26.7059C681.808 28.4763 677.184 34.042 674.331 40.7186C669.076 53.0072 669.818 69.0332 670.006 72.0996Z" fill="#DA1A3D"/>
<path d="M670.006 72.0996H687.604C686.753 55.3098 704.119 51.2715 704.119 51.2715C716.453 52.7873 729.693 50.1838 729.693 50.1838C719.096 17.3448 689.242 26.7059 689.242 26.7059C681.808 28.4763 677.184 34.042 674.331 40.7186C669.076 53.0072 669.818 69.0332 670.006 72.0996Z" stroke="#221F1F" stroke-width="2" stroke-linecap="round" stroke-linejoin="round"/>
<path d="M689.12 45.9946C693.036 49.0494 698.478 50.6231 704.119 51.2826" stroke="#221F1F" stroke-width="2" stroke-linecap="round" stroke-linejoin="round"/>
<path d="M588.383 50.1948C588.383 50.1948 601.657 52.7982 613.957 51.2824C613.957 51.2824 631.324 55.3092 630.472 72.1105H647.883C645.366 56.9646 640.627 42.3164 633.835 28.6839C632.262 27.7953 630.579 27.1373 628.835 26.7284C628.835 26.7284 598.98 17.3558 588.383 50.1948Z" stroke="#221F1F" stroke-width="2" stroke-linecap="round" stroke-linejoin="round"/>
<path d="M628.957 45.9946C625.041 49.0494 619.599 50.6231 613.958 51.2826" stroke="#221F1F" stroke-width="2" stroke-linecap="round" stroke-linejoin="round"/>
<path d="M648.026 72.6185C648.026 72.6185 648.026 72.4342 648.026 72.1001" stroke="#221F1F" stroke-width="2" stroke-miterlimit="10"/>
<path d="M657.584 46.4342C657.731 55.0297 658.471 63.603 659.796 72.0874H669.995C669.807 69.0211 669.065 52.995 674.32 40.718C679.85 6.91862 694.573 15.0531 694.573 15.0531C689.872 6.44417 684.861 3.48197 679.01 3.28526C666.986 2.84555 663.004 8.82786 659.84 21.6256C657.949 29.3204 657.407 38.2533 657.584 46.4342Z" stroke="#221F1F" stroke-width="2" stroke-linecap="round" stroke-linejoin="round"/>
<path d="M614.101 3.27413C622.507 10.0201 628.945 19.2076 633.834 28.7307C640.627 42.3631 645.365 57.0114 647.882 72.1573H659.807C658.481 63.6729 657.742 55.0996 657.594 46.504V46.504C645.902 -13.0875 614.101 3.27413 614.101 3.27413Z" stroke="#221F1F" stroke-width="2" stroke-linecap="round" stroke-linejoin="round"/>
<path d="M-28.7368 186.469H771V206.56H-28.7368V186.469Z" fill="white"/>
<path d="M-28.7368 186.469H771V206.56H-28.7368V186.469Z" stroke="#221F1F" stroke-width="2" stroke-miterlimit="10"/>
</svg>
