<svg width="21" height="28" viewBox="0 0 21 28" fill="none" xmlns="http://www.w3.org/2000/svg">
<path d="M17.8077 27.0076H3.71828C2.46602 27.0076 1.45117 25.9927 1.45117 24.7405C1.45117 24.1351 1.68856 23.5653 2.11588 23.138L9.15463 16.0993C9.58194 15.672 10.1517 15.4346 10.7571 15.4346C11.3624 15.4346 11.9321 15.672 12.3595 16.0993L19.4101 23.138C19.8374 23.5653 20.0748 24.1351 20.0748 24.7405C20.0748 25.9927 19.054 27.0076 17.8077 27.0076ZM10.7571 16.4494C10.4247 16.4494 10.1101 16.58 9.87275 16.8174L2.83399 23.8562C2.5966 24.0936 2.46603 24.4081 2.46603 24.7405C2.46603 25.4289 3.02984 25.9927 3.71828 25.9927H17.8077C18.4961 25.9927 19.0599 25.4289 19.0599 24.7405C19.0599 24.4081 18.9294 24.0936 18.692 23.8562L11.6413 16.8174C11.404 16.58 11.0894 16.4494 10.7571 16.4494Z" fill="white" stroke="white"/>
<path d="M10.7631 12.9286C7.57017 12.9286 4.9707 10.3292 4.9707 7.1362C4.9707 3.94323 7.57017 1.34375 10.7631 1.34375C13.9561 1.34375 16.5496 3.94323 16.5496 7.1362C16.5496 10.3292 13.9561 12.9286 10.7631 12.9286ZM10.7631 2.36455C8.12805 2.36455 5.98556 4.50704 5.98556 7.14213C5.98556 9.77721 8.12805 11.9197 10.7631 11.9197C13.3982 11.9197 15.5407 9.77721 15.5407 7.14213C15.5407 4.50704 13.3982 2.36455 10.7631 2.36455Z" fill="white" stroke="white"/>
</svg>
