<svg width="123" height="51" viewBox="0 0 123 51" fill="none" xmlns="http://www.w3.org/2000/svg">
<path d="M41.7035 21.1199C41.7955 21.344 41.8433 21.5864 41.8433 21.8325V39.0352L40.655 36.4565L39.1392 41.7389V23.6839L37.5829 25.2341L33.0687 29.7414V47.8L30.3608 50.5V32.3202C30.3572 32.3202 30.3572 32.3202 30.3572 32.3202C30.0261 32.559 29.6765 32.761 29.3086 32.93C28.4698 33.3157 27.5537 33.5214 26.6045 33.5214C25.2359 33.5214 23.9371 33.1026 22.8481 32.3202V50.5L0.438733 28.1178C-0.146244 27.5374 -0.146244 26.5933 0.438733 26.0129L25.5523 0.938057C26.1336 0.353981 27.0791 0.353981 27.6641 0.938057L37.5682 10.8233L33.0723 15.3122L32.6492 15.731L32.274 16.1093L31.4204 16.9579L30.4712 17.9093L30.3645 18.0122L30.3572 18.0195L29.3123 19.0591V19.0628L27.7708 20.6056C27.7634 20.613 27.756 20.6166 27.7524 20.6203L27.7193 20.6534C27.7119 20.6607 27.7045 20.6681 27.6972 20.6754C27.6861 20.6864 27.6788 20.6974 27.6678 20.7048C27.6678 20.7085 27.6641 20.7085 27.6641 20.7085L26.6045 21.7701L25.0409 23.3276L23.9776 24.3929L23.9482 24.4186C23.6612 24.7052 23.4294 25.0247 23.2565 25.3664C22.999 25.8733 22.8628 26.4243 22.8481 26.979C22.8445 27.0084 22.8444 27.0378 22.8444 27.0708C22.8444 27.1039 22.8445 27.1296 22.8481 27.1627C22.8702 28.0921 23.2344 29.0141 23.9482 29.7231C24.3124 30.0904 24.7392 30.3659 25.1917 30.5496C25.6406 30.7333 26.1225 30.8251 26.6045 30.8251C27.1895 30.8251 27.7744 30.6892 28.3079 30.4137C28.639 30.2484 28.9444 30.028 29.224 29.7598L29.2571 29.7231C29.2682 29.712 29.2755 29.7047 29.2866 29.6937L29.3086 29.6716L30.3535 28.6357L31.9134 27.0745L32.9767 26.0129C32.9877 26.0019 32.9988 25.9909 33.0061 25.9835C33.0172 25.9725 33.0282 25.9652 33.0356 25.9541L36.8214 22.1742L37.2187 21.7811L42.8698 16.135L44.7866 18.0452L41.7035 21.1199Z" fill="#FF7A00"/>
<path d="M68.8975 16.268C61.9512 16.268 58.7156 21.0103 58.7156 27.5606C58.7156 34.9407 62.3965 38.7345 68.9272 38.7345C74.2705 38.7345 77.5359 36.1559 78.1889 31.6508H74.4783C73.944 33.9923 72.1035 35.415 69.0163 35.415C65.276 35.415 62.5153 33.3106 62.5153 27.3827C62.5153 22.1959 64.8604 19.5876 68.8975 19.5876C72.0738 19.5876 73.9143 21.0696 74.4486 23.3518H78.1889C77.5952 19.2023 74.7455 16.268 68.8975 16.268Z" fill="#221F1F"/>
<path d="M87.5487 22.344C82.8882 22.344 81.018 24.4781 80.8993 27.7384H84.1646C84.3724 26.1082 85.3224 25.4265 87.4003 25.4265C89.8345 25.4265 90.3391 26.5528 90.3391 28.2423V28.7165H89.6267C83.4819 28.7165 80.365 30.0799 80.365 34.1108C80.365 37.1044 82.6507 38.7345 85.3817 38.7345C87.6081 38.7345 89.6267 38.3789 90.4875 36.3338L90.6657 38.3196H93.931V29.3982C93.931 28.509 93.9013 27.8273 93.8419 27.027C93.6341 24.3002 91.9124 22.344 87.5487 22.344ZM83.9865 33.6662C83.9865 31.71 86.4504 31.4137 90.3391 31.5619V32.9253C90.3391 34.6147 88.4393 35.6521 86.5394 35.6521C84.9958 35.6521 83.9865 34.9407 83.9865 33.6662Z" fill="#221F1F"/>
<path d="M102.151 33.1327V25.7822H105.654V22.8183H102.151V18.1946H98.5595V22.8183H96.3628V25.7822H98.5595V33.2216C98.5595 34.1108 98.5595 34.7332 98.6189 35.5631C98.7673 37.4601 99.7469 38.6456 102.656 38.6456C103.873 38.6456 104.645 38.5863 105.536 38.4678V35.5335C102.656 35.7113 102.151 35.5335 102.151 33.1327Z" fill="#221F1F"/>
<path d="M111.126 30.5245C111.126 26.8196 112.64 25.4265 115.193 25.4265C117.746 25.4265 119.23 26.8196 119.23 30.5245C119.23 34.2887 117.746 35.6521 115.193 35.6521C112.64 35.6521 111.126 34.2887 111.126 30.5245ZM107.386 30.5245C107.386 35.9781 110.176 38.7345 115.193 38.7345C120.18 38.7345 123 35.9781 123 30.5245C123 25.1005 120.21 22.344 115.193 22.344C110.176 22.344 107.386 25.1005 107.386 30.5245Z" fill="#221F1F"/>
</svg>
