<svg width="103" height="43" viewBox="0 0 103 43" fill="none" xmlns="http://www.w3.org/2000/svg">
<path d="M35.0484 17.8471C35.1251 18.0339 35.165 18.2361 35.165 18.4414V32.7883L34.1743 30.6376L32.9107 35.0431V19.9855L31.6133 21.2783L27.8499 25.0374V40.0981L25.5925 42.3498V27.188C25.5895 27.188 25.5895 27.188 25.5895 27.188C25.3134 27.3871 25.0221 27.5556 24.7153 27.6966C24.016 28.0182 23.2523 28.1898 22.461 28.1898C21.3201 28.1898 20.2374 27.8406 19.3295 27.188V42.3498L0.647735 23.6832C0.160065 23.1992 0.160065 22.4118 0.647735 21.9278L21.5838 1.01559C22.0684 0.528475 22.8567 0.528475 23.3443 1.01559L31.601 9.25976L27.853 13.0035L27.5003 13.3527L27.1874 13.6683L26.4759 14.376L25.6846 15.1695L25.5956 15.2552L25.5895 15.2614L24.7184 16.1284V16.1314L23.4333 17.4181C23.4272 17.4243 23.421 17.4273 23.418 17.4304L23.3904 17.458C23.3842 17.4641 23.3781 17.4702 23.372 17.4764C23.3627 17.4856 23.3566 17.4947 23.3474 17.5009C23.3474 17.5039 23.3443 17.5039 23.3443 17.5039L22.461 18.3893L21.1575 19.6883L20.2711 20.5767L20.2466 20.5982C20.0073 20.8371 19.8141 21.1037 19.6699 21.3886C19.4553 21.8114 19.3418 22.2709 19.3295 22.7335C19.3264 22.758 19.3264 22.7825 19.3264 22.8101C19.3264 22.8377 19.3264 22.8591 19.3295 22.8867C19.3479 23.6618 19.6515 24.4308 20.2466 25.022C20.5502 25.3284 20.906 25.5582 21.2832 25.7113C21.6574 25.8645 22.0592 25.9411 22.461 25.9411C22.9487 25.9411 23.4364 25.8278 23.8811 25.598C24.1571 25.4601 24.4117 25.2763 24.6448 25.0527L24.6724 25.022C24.6816 25.0128 24.6877 25.0067 24.6969 24.9975L24.7153 24.9791L25.5864 24.1152L26.8869 22.8132L27.7733 21.9278C27.7825 21.9186 27.7917 21.9094 27.7978 21.9033C27.807 21.8941 27.8162 21.888 27.8223 21.8788L30.9784 18.7263L31.3096 18.3985L36.0207 13.6897L37.6187 15.2828L35.0484 17.8471Z" fill="#FF7A00"/>
<path d="M57.7189 13.8006C51.9281 13.8006 49.2307 17.7556 49.2307 23.2185C49.2307 29.3735 52.2993 32.5375 57.7437 32.5375C62.1982 32.5375 64.9203 30.387 65.4648 26.6297H62.3714C61.9259 28.5825 60.3916 29.769 57.8179 29.769C54.6998 29.769 52.3983 28.014 52.3983 23.0702C52.3983 18.7444 54.3533 16.5691 57.7189 16.5691C60.3669 16.5691 61.9012 17.8051 62.3467 19.7084H65.4648C64.9698 16.2478 62.5941 13.8006 57.7189 13.8006Z" fill="#EAEAE7"/>
<path d="M73.2677 18.868C69.3824 18.868 67.8233 20.6478 67.7243 23.3668H70.4465C70.6197 22.0073 71.4116 21.4388 73.1439 21.4388C75.1732 21.4388 75.5939 22.3781 75.5939 23.7871V24.1826H75C69.8773 24.1826 67.2789 25.3196 67.2789 28.6814C67.2789 31.178 69.1844 32.5375 71.4611 32.5375C73.3172 32.5375 75 32.2409 75.7176 30.5353L75.8661 32.1915H78.5883V24.7511C78.5883 24.0095 78.5635 23.441 78.514 22.7736C78.3408 20.4994 76.9055 18.868 73.2677 18.868ZM70.298 28.3106C70.298 26.6792 72.352 26.432 75.5939 26.5556V27.6926C75.5939 29.1016 74.0101 29.9668 72.4263 29.9668C71.1394 29.9668 70.298 29.3735 70.298 28.3106Z" fill="#EAEAE7"/>
<path d="M85.4413 27.8657V21.7354H88.3615V19.2635H85.4413V15.4074H82.4469V19.2635H80.6156V21.7354H82.4469V27.9398C82.4469 28.6814 82.4469 29.2005 82.4964 29.8926C82.6201 31.4746 83.4368 32.4634 85.862 32.4634C86.8766 32.4634 87.5201 32.4139 88.2625 32.3151V29.8679C85.862 30.0162 85.4413 29.8679 85.4413 27.8657Z" fill="#EAEAE7"/>
<path d="M92.923 25.6904C92.923 22.6005 94.1851 21.4388 96.3134 21.4388C98.4417 21.4388 99.679 22.6005 99.679 25.6904C99.679 28.8297 98.4417 29.9668 96.3134 29.9668C94.1851 29.9668 92.923 28.8297 92.923 25.6904ZM89.8049 25.6904C89.8049 30.2387 92.1311 32.5375 96.3134 32.5375C100.471 32.5375 102.822 30.2387 102.822 25.6904C102.822 21.1669 100.496 18.868 96.3134 18.868C92.1311 18.868 89.8049 21.1669 89.8049 25.6904Z" fill="#EAEAE7"/>
</svg>
