<svg width="36" height="36" viewBox="0 0 36 36" fill="none" xmlns="http://www.w3.org/2000/svg">
<path d="M22.0624 6.95992C22.0624 9.85895 21.3916 12.4975 20.2973 14.4669C19.834 14.1177 19.3061 13.8637 18.7441 13.7197C18.1821 13.5757 17.5972 13.5445 17.0232 13.6279C16.4054 11.4597 15.0154 9.12371 12.968 7.07252C12.6204 6.72408 12.259 6.38967 11.8847 6.07011C13.6819 5.19956 15.6531 4.74884 17.6498 4.75197C19.1743 4.75197 20.6393 5.0103 22.0028 5.48501C22.0425 5.96855 22.0624 6.46092 22.0624 6.95992ZM22.0624 17.9997C22.0624 18.1608 22.0535 18.322 22.0359 18.4788C24.2819 18.4368 26.8897 17.6994 29.3851 16.2576C29.8148 16.0089 30.2343 15.743 30.6427 15.4605C29.9709 12.0188 27.9638 8.98358 25.0607 7.01953C24.9712 7.49429 24.8645 7.96563 24.7408 8.43262C23.9907 11.2345 22.6581 13.6125 21.0872 15.2309C21.6983 15.9882 22.0624 16.9531 22.0624 17.9997ZM21.7601 19.607C21.5472 20.1507 21.2291 20.6469 20.8239 21.0671C20.4188 21.4874 19.9347 21.8233 19.3994 22.0557C20.5577 23.9766 22.4992 25.8644 24.9923 27.304C25.4336 27.5601 25.8793 27.7941 26.3271 28.0039C27.6423 26.8641 28.7196 25.4754 29.4969 23.9177C30.2742 22.36 30.7363 20.664 30.8567 18.927C30.3978 19.0882 29.9278 19.2361 29.4424 19.3664C26.6537 20.1149 23.9421 20.1524 21.7601 19.6093V19.607ZM17.6498 22.4156C16.6569 22.4156 15.7391 22.0866 15.0022 21.5324C13.9123 23.4975 13.246 26.1293 13.246 29.0195C13.246 29.5274 13.2681 30.0286 13.3056 30.5165C14.7026 31.0016 16.171 31.2487 17.6498 31.2474C19.7237 31.2474 21.6873 30.7704 23.4369 29.9182C23.0579 29.596 22.6921 29.2587 22.3404 28.9069C20.2995 26.8624 18.9096 24.533 18.2896 22.3714C18.0822 22.4001 17.8682 22.4156 17.6498 22.4156V22.4156ZM13.2372 17.9997C13.2372 17.823 13.2482 17.6464 13.268 17.472C11.0176 17.5095 8.40316 18.2469 5.89901 19.6954C5.47085 19.9427 5.05278 20.2071 4.64583 20.488C4.97272 22.1978 5.63294 23.8263 6.5888 25.2807C7.54467 26.7351 8.77745 27.9868 10.2167 28.9643C10.3063 28.4796 10.4153 27.9986 10.5433 27.5225C11.2934 24.7251 12.6172 22.3515 14.1837 20.7331C13.5686 19.9552 13.2349 18.9917 13.2372 17.9997ZM5.85268 16.6042C8.64806 15.8535 11.364 15.8204 13.5482 16.368C13.9807 15.2773 14.8345 14.4029 15.909 13.9392C14.7529 12.0095 12.8069 10.1129 10.3028 8.66666C9.87532 8.41958 9.43812 8.18977 8.99224 7.97778C7.67556 9.11505 6.59627 10.5013 5.81632 12.0571C5.03637 13.6129 4.57112 15.3075 4.44727 17.0436C4.90176 16.8802 5.3695 16.7345 5.85268 16.6042V16.6042ZM17.6498 20.2076C18.2349 20.2076 18.7961 19.975 19.2098 19.5609C19.6236 19.1468 19.8561 18.5852 19.8561 17.9997C19.8561 17.4141 19.6236 16.8525 19.2098 16.4384C18.7961 16.0243 18.2349 15.7917 17.6498 15.7917C17.0646 15.7917 16.5034 16.0243 16.0897 16.4384C15.6759 16.8525 15.4435 17.4141 15.4435 17.9997C15.4435 18.5852 15.6759 19.1468 16.0897 19.5609C16.5034 19.975 17.0646 20.2076 17.6498 20.2076Z" fill="black"/>
<path d="M17.6504 33.4557C13.5544 33.4557 9.6261 31.8273 6.72977 28.9288C3.83344 26.0303 2.2063 22.0991 2.2063 18C2.2063 13.9009 3.83344 9.96972 6.72977 7.07123C9.6261 4.17273 13.5544 2.54437 17.6504 2.54437C21.7464 2.54437 25.6747 4.17273 28.571 7.07123C31.4673 9.96972 33.0945 13.9009 33.0945 18C33.0945 22.0991 31.4673 26.0303 28.571 28.9288C25.6747 31.8273 21.7464 33.4557 17.6504 33.4557ZM17.6504 35.6636C22.3316 35.6636 26.821 33.8026 30.1311 30.4901C33.4412 27.1775 35.3008 22.6847 35.3008 18C35.3008 13.3153 33.4412 8.82254 30.1311 5.50997C26.821 2.19741 22.3316 0.336426 17.6504 0.336426C12.9692 0.336426 8.47977 2.19741 5.16968 5.50997C1.85959 8.82254 0 13.3153 0 18C0 22.6847 1.85959 27.1775 5.16968 30.4901C8.47977 33.8026 12.9692 35.6636 17.6504 35.6636Z" fill="black"/>
</svg>
