<svg width="43" height="46" viewBox="0 0 43 46" fill="none" xmlns="http://www.w3.org/2000/svg">
<path fill-rule="evenodd" clip-rule="evenodd" d="M21.1328 38.6163C21.7245 38.6163 22.2919 38.8513 22.7103 39.2697C23.1287 39.6881 23.3637 40.2555 23.3637 40.8472V43.078C23.3637 43.6697 23.1287 44.2371 22.7103 44.6555C22.2919 45.0739 21.7245 45.3089 21.1328 45.3089C20.5412 45.3089 19.9737 45.0739 19.5554 44.6555C19.137 44.2371 18.9019 43.6697 18.9019 43.078V40.8472C18.9019 40.2555 19.137 39.6881 19.5554 39.2697C19.9737 38.8513 20.5412 38.6163 21.1328 38.6163ZM32.1757 34.043C32.5598 33.6589 33.0709 33.4281 33.613 33.3941C34.1552 33.36 34.6912 33.5249 35.1204 33.8578L35.3301 34.043L36.9073 35.6202C37.3074 36.0217 37.5397 36.5604 37.557 37.1269C37.5743 37.6935 37.3753 38.2453 37.0005 38.6705C36.6256 39.0956 36.103 39.3621 35.5388 39.4158C34.9745 39.4696 34.411 39.3065 33.9626 38.9598L33.7529 38.7747L32.1757 37.1975C31.7574 36.7791 31.5225 36.2118 31.5225 35.6202C31.5225 35.0287 31.7574 34.4613 32.1757 34.043ZM10.09 34.043C10.5082 34.4613 10.7432 35.0287 10.7432 35.6202C10.7432 36.2118 10.5082 36.7791 10.09 37.1975L8.51276 38.7747C8.09201 39.1811 7.52848 39.4059 6.94356 39.4008C6.35863 39.3957 5.7991 39.1611 5.38547 38.7475C4.97185 38.3339 4.73723 37.7744 4.73215 37.1894C4.72707 36.6045 4.95193 36.041 5.3583 35.6202L6.93553 34.043C7.35388 33.6248 7.92121 33.3898 8.51276 33.3898C9.10431 33.3898 9.67164 33.6248 10.09 34.043ZM21.1328 0.691406C21.6792 0.691478 22.2066 0.892087 22.615 1.25518C23.0233 1.61828 23.2841 2.11861 23.3481 2.66127L23.3637 2.92228V5.37624L41.6011 23.6159C42.9597 24.9723 42.0986 27.2522 40.2626 27.4485L40.0083 27.4619H32.0641C31.5563 29.9393 30.2221 32.1708 28.2801 33.7906C26.338 35.4105 23.9034 36.3226 21.375 36.3776C18.8467 36.4326 16.3747 35.6271 14.3641 34.0932C12.3535 32.5593 10.9236 30.3879 10.3086 27.9349L10.2015 27.4619H2.25738C0.336598 27.4619 -0.665066 25.24 0.492759 23.8055L0.664536 23.6159L18.9019 5.37624V2.92228C18.9019 2.33062 19.137 1.76318 19.5554 1.34481C19.9737 0.926444 20.5412 0.691406 21.1328 0.691406ZM27.4462 27.4619H14.8194C15.2692 28.7341 16.0929 29.8408 17.1825 30.6367C18.2722 31.4327 19.5769 31.8808 20.9257 31.9222C22.2744 31.9637 23.6042 31.5967 24.7408 30.8692C25.8773 30.1417 26.7674 29.0878 27.2945 27.8456L27.4462 27.4619ZM34.6765 23.0002L21.289 9.61045L21.1328 9.61491L20.9811 9.61045L7.5914 23.0002H34.6742H34.6765Z" fill="black"/>
</svg>
