<svg width="27" height="57" viewBox="0 0 27 57" fill="none" xmlns="http://www.w3.org/2000/svg">
<path d="M25.2677 28.636C17.6974 33.1276 15.5993 37.0026 12.9727 54.1905C12.9048 54.7496 12.0539 54.7081 12.0408 54.1449C11.102 36.7829 9.35112 32.7198 2.29516 27.5137C9.86548 23.0222 11.9636 19.1472 14.5902 1.95927C14.6581 1.40012 15.509 1.44168 15.5221 2.0048C16.4609 19.3669 18.1693 23.468 25.2677 28.636Z" fill="white"/>
<path d="M25.2677 28.636C17.6974 33.1276 15.5993 37.0026 12.9727 54.1905C12.9048 54.7496 12.0539 54.7081 12.0408 54.1449C11.102 36.7829 9.35112 32.7198 2.29516 27.5137C9.86548 23.0222 11.9636 19.1472 14.5902 1.95927C14.6581 1.40012 15.509 1.44168 15.5221 2.0048C16.4609 19.3669 18.1693 23.468 25.2677 28.636Z" stroke="#221F1F" stroke-width="3" stroke-miterlimit="10" stroke-linecap="round" stroke-linejoin="round"/>
</svg>
